G04 Layer: TopSilkLayer*
G04 EasyEDA v6.4.19.5, 2021-06-22T13:22:06+02:00*
G04 8d010e87a7914041b3697a5a1e0c44dd,1767a0bbb58a490299b52c1c45d7117c,10*
G04 Gerber Generator version 0.2*
G04 Scale: 100 percent, Rotated: No, Reflected: No *
G04 Dimensions in millimeters *
G04 leading zeros omitted , absolute positions ,4 integer and 5 decimal *
%FSLAX45Y45*%
%MOMM*%

%ADD10C,0.2540*%
%ADD20C,0.2032*%
%ADD21C,0.2030*%
%ADD22C,0.2997*%
%ADD23C,0.1540*%
%ADD24C,0.1524*%
%ADD25C,0.2000*%
%ADD26C,0.1000*%
%ADD27C,0.1030*%

%LPD*%
G36*
X199898Y-2349500D02*
G01*
X197815Y-2354580D01*
X196392Y-2359660D01*
X195580Y-2365146D01*
X195326Y-2371344D01*
X195681Y-2377084D01*
X196697Y-2382723D01*
X198374Y-2388209D01*
X200710Y-2393594D01*
X203606Y-2398826D01*
X207111Y-2403856D01*
X211124Y-2408732D01*
X215696Y-2413355D01*
X220725Y-2417775D01*
X226212Y-2421940D01*
X232156Y-2425852D01*
X238506Y-2429510D01*
X238506Y-2430780D01*
X200660Y-2433828D01*
X200660Y-2458974D01*
X406400Y-2458974D01*
X406400Y-2427986D01*
X272288Y-2427986D01*
X263804Y-2424328D01*
X256235Y-2420416D01*
X249580Y-2416302D01*
X243738Y-2411984D01*
X238709Y-2407513D01*
X234492Y-2402890D01*
X230987Y-2398217D01*
X228193Y-2393543D01*
X226110Y-2388819D01*
X224637Y-2384196D01*
X223774Y-2379624D01*
X223520Y-2375154D01*
X223723Y-2369616D01*
X224332Y-2364892D01*
X225348Y-2360422D01*
X226821Y-2355596D01*
G37*
G36*
X291846Y-2511044D02*
G01*
X284480Y-2511196D01*
X277418Y-2511653D01*
X270560Y-2512415D01*
X263956Y-2513482D01*
X257657Y-2514854D01*
X251561Y-2516479D01*
X245821Y-2518410D01*
X240284Y-2520645D01*
X235051Y-2523185D01*
X230174Y-2525928D01*
X225501Y-2529027D01*
X221183Y-2532329D01*
X217170Y-2535936D01*
X213512Y-2539796D01*
X210108Y-2543962D01*
X207060Y-2548331D01*
X204368Y-2552954D01*
X202031Y-2557881D01*
X199999Y-2563012D01*
X198323Y-2568397D01*
X197002Y-2574036D01*
X196088Y-2579878D01*
X195529Y-2585974D01*
X195342Y-2591816D01*
X220471Y-2591816D01*
X220725Y-2585669D01*
X221538Y-2579878D01*
X222910Y-2574442D01*
X224790Y-2569311D01*
X227177Y-2564587D01*
X230124Y-2560218D01*
X233578Y-2556205D01*
X237540Y-2552547D01*
X242011Y-2549347D01*
X246989Y-2546502D01*
X252526Y-2544114D01*
X258521Y-2542082D01*
X265023Y-2540508D01*
X272034Y-2539390D01*
X279552Y-2538730D01*
X287528Y-2538476D01*
X287528Y-2653538D01*
X279806Y-2652522D01*
X272542Y-2650947D01*
X265684Y-2648966D01*
X259283Y-2646476D01*
X253288Y-2643581D01*
X247802Y-2640279D01*
X242722Y-2636570D01*
X238201Y-2632557D01*
X234137Y-2628290D01*
X230581Y-2623667D01*
X227533Y-2618841D01*
X225044Y-2613761D01*
X223062Y-2608478D01*
X221640Y-2603042D01*
X220776Y-2597505D01*
X220471Y-2591816D01*
X195342Y-2591816D01*
X195478Y-2597353D01*
X195935Y-2602382D01*
X196748Y-2607360D01*
X197815Y-2612288D01*
X199186Y-2617114D01*
X200863Y-2621889D01*
X205079Y-2631186D01*
X207619Y-2635656D01*
X213512Y-2644190D01*
X216865Y-2648254D01*
X220522Y-2652166D01*
X224383Y-2655874D01*
X228498Y-2659430D01*
X237540Y-2665984D01*
X242417Y-2668930D01*
X247497Y-2671622D01*
X252882Y-2674112D01*
X258419Y-2676347D01*
X264261Y-2678328D01*
X270256Y-2680004D01*
X276504Y-2681427D01*
X282956Y-2682544D01*
X289610Y-2683357D01*
X296468Y-2683865D01*
X303530Y-2684018D01*
X310692Y-2683865D01*
X317652Y-2683357D01*
X324358Y-2682544D01*
X330860Y-2681478D01*
X337159Y-2680055D01*
X343204Y-2678379D01*
X348996Y-2676398D01*
X354584Y-2674162D01*
X359918Y-2671622D01*
X365048Y-2668879D01*
X369874Y-2665882D01*
X374497Y-2662682D01*
X378866Y-2659227D01*
X386791Y-2651658D01*
X390347Y-2647594D01*
X393649Y-2643327D01*
X396697Y-2638856D01*
X399440Y-2634234D01*
X401929Y-2629458D01*
X404164Y-2624531D01*
X406095Y-2619451D01*
X407720Y-2614269D01*
X409041Y-2608935D01*
X410108Y-2603449D01*
X410870Y-2597912D01*
X411327Y-2592222D01*
X411480Y-2586482D01*
X411276Y-2579522D01*
X410718Y-2572867D01*
X409803Y-2566466D01*
X408533Y-2560320D01*
X407009Y-2554478D01*
X405231Y-2548839D01*
X403199Y-2543403D01*
X398526Y-2533192D01*
X393192Y-2523693D01*
X390398Y-2519172D01*
X369824Y-2530602D01*
X373532Y-2536393D01*
X376834Y-2542336D01*
X379730Y-2548483D01*
X382117Y-2554833D01*
X384048Y-2561386D01*
X385419Y-2568194D01*
X386283Y-2575306D01*
X386588Y-2582672D01*
X386384Y-2588717D01*
X385673Y-2594610D01*
X384606Y-2600198D01*
X383032Y-2605633D01*
X381101Y-2610764D01*
X378764Y-2615692D01*
X376021Y-2620314D01*
X372922Y-2624734D01*
X369468Y-2628849D01*
X365607Y-2632659D01*
X361442Y-2636164D01*
X356971Y-2639415D01*
X352145Y-2642311D01*
X347014Y-2644902D01*
X341579Y-2647188D01*
X335889Y-2649118D01*
X329895Y-2650693D01*
X323646Y-2651912D01*
X317144Y-2652776D01*
X310388Y-2653284D01*
X310388Y-2512568D01*
X301904Y-2511399D01*
G37*
G36*
X408686Y-2722118D02*
G01*
X384556Y-2726690D01*
X385419Y-2731058D01*
X385572Y-2734056D01*
X384759Y-2737764D01*
X382168Y-2740761D01*
X377647Y-2742742D01*
X371094Y-2743454D01*
X103124Y-2743454D01*
X103124Y-2774442D01*
X368554Y-2774442D01*
X375158Y-2774238D01*
X381254Y-2773578D01*
X386842Y-2772511D01*
X391871Y-2770987D01*
X396392Y-2769006D01*
X400304Y-2766517D01*
X403656Y-2763570D01*
X406450Y-2760116D01*
X408635Y-2756103D01*
X410209Y-2751582D01*
X411175Y-2746552D01*
X411480Y-2740914D01*
X411276Y-2734919D01*
X410667Y-2730093D01*
G37*
G36*
X408686Y-2828544D02*
G01*
X384556Y-2833116D01*
X385419Y-2837434D01*
X385572Y-2840228D01*
X384759Y-2843987D01*
X382168Y-2847035D01*
X377647Y-2849118D01*
X371094Y-2849880D01*
X103124Y-2849880D01*
X103124Y-2880614D01*
X368554Y-2880614D01*
X375158Y-2880410D01*
X381254Y-2879750D01*
X386842Y-2878683D01*
X391871Y-2877159D01*
X396392Y-2875178D01*
X400304Y-2872689D01*
X403656Y-2869742D01*
X406450Y-2866288D01*
X408635Y-2862275D01*
X410209Y-2857754D01*
X411175Y-2852724D01*
X411480Y-2847086D01*
X411276Y-2841244D01*
X410667Y-2836367D01*
G37*
G36*
X303530Y-2936748D02*
G01*
X296316Y-2936900D01*
X289306Y-2937408D01*
X282498Y-2938221D01*
X275945Y-2939338D01*
X269646Y-2940761D01*
X263550Y-2942488D01*
X257708Y-2944469D01*
X252069Y-2946755D01*
X246735Y-2949244D01*
X241604Y-2951988D01*
X236778Y-2954985D01*
X232156Y-2958185D01*
X227787Y-2961640D01*
X223723Y-2965246D01*
X219862Y-2969107D01*
X216306Y-2973070D01*
X213004Y-2977286D01*
X210007Y-2981604D01*
X207264Y-2986074D01*
X204774Y-2990697D01*
X202590Y-2995472D01*
X200660Y-3000349D01*
X199034Y-3005328D01*
X197713Y-3010408D01*
X196697Y-3015589D01*
X195935Y-3020822D01*
X195478Y-3026105D01*
X195326Y-3031490D01*
X221488Y-3031490D01*
X221742Y-3026054D01*
X222453Y-3020771D01*
X223672Y-3015691D01*
X225348Y-3010814D01*
X227431Y-3006140D01*
X229971Y-3001721D01*
X232968Y-2997454D01*
X236321Y-2993491D01*
X240080Y-2989783D01*
X244246Y-2986328D01*
X248716Y-2983128D01*
X253593Y-2980232D01*
X258775Y-2977642D01*
X264312Y-2975356D01*
X270154Y-2973374D01*
X276250Y-2971749D01*
X282702Y-2970428D01*
X289407Y-2969514D01*
X296316Y-2968955D01*
X303530Y-2968752D01*
X310794Y-2968955D01*
X317804Y-2969514D01*
X324510Y-2970428D01*
X330962Y-2971749D01*
X337159Y-2973374D01*
X343001Y-2975356D01*
X348488Y-2977642D01*
X353720Y-2980232D01*
X358546Y-2983128D01*
X363016Y-2986328D01*
X367131Y-2989783D01*
X370890Y-2993491D01*
X374243Y-2997454D01*
X377139Y-3001721D01*
X379679Y-3006140D01*
X381762Y-3010814D01*
X383438Y-3015691D01*
X384606Y-3020771D01*
X385318Y-3026054D01*
X385572Y-3031490D01*
X385318Y-3036976D01*
X384606Y-3042259D01*
X383438Y-3047339D01*
X381762Y-3052216D01*
X379679Y-3056890D01*
X377139Y-3061360D01*
X374243Y-3065526D01*
X370890Y-3069488D01*
X367131Y-3073196D01*
X363016Y-3076651D01*
X358546Y-3079800D01*
X353720Y-3082645D01*
X348488Y-3085236D01*
X343001Y-3087471D01*
X337159Y-3089402D01*
X330962Y-3091027D01*
X324510Y-3092297D01*
X317804Y-3093212D01*
X310794Y-3093770D01*
X303530Y-3093974D01*
X296316Y-3093770D01*
X289407Y-3093212D01*
X282702Y-3092297D01*
X276250Y-3091027D01*
X270154Y-3089402D01*
X264312Y-3087471D01*
X258775Y-3085236D01*
X253593Y-3082645D01*
X248716Y-3079800D01*
X244246Y-3076651D01*
X240080Y-3073196D01*
X236321Y-3069488D01*
X232968Y-3065526D01*
X229971Y-3061360D01*
X227431Y-3056890D01*
X225348Y-3052216D01*
X223672Y-3047339D01*
X222453Y-3042259D01*
X221742Y-3036976D01*
X221488Y-3031490D01*
X195326Y-3031490D01*
X195478Y-3036874D01*
X195935Y-3042158D01*
X196697Y-3047390D01*
X197713Y-3052572D01*
X199034Y-3057652D01*
X200660Y-3062630D01*
X204774Y-3072231D01*
X207264Y-3076854D01*
X210007Y-3081324D01*
X213004Y-3085642D01*
X216306Y-3089808D01*
X219862Y-3093770D01*
X223723Y-3097580D01*
X227787Y-3101187D01*
X232156Y-3104642D01*
X236778Y-3107842D01*
X241604Y-3110788D01*
X246735Y-3113532D01*
X252069Y-3116021D01*
X257708Y-3118307D01*
X263550Y-3120288D01*
X269646Y-3121964D01*
X275945Y-3123387D01*
X282498Y-3124504D01*
X289306Y-3125317D01*
X296316Y-3125825D01*
X303530Y-3125978D01*
X310743Y-3125825D01*
X317703Y-3125317D01*
X324510Y-3124504D01*
X331012Y-3123387D01*
X337312Y-3121964D01*
X343408Y-3120288D01*
X349199Y-3118307D01*
X354787Y-3116021D01*
X360172Y-3113532D01*
X365252Y-3110788D01*
X370128Y-3107842D01*
X374700Y-3104642D01*
X383133Y-3097580D01*
X386943Y-3093770D01*
X390499Y-3089808D01*
X393801Y-3085642D01*
X396798Y-3081324D01*
X399542Y-3076854D01*
X402031Y-3072231D01*
X406146Y-3062630D01*
X407771Y-3057652D01*
X409092Y-3052572D01*
X410108Y-3047390D01*
X410870Y-3042158D01*
X411327Y-3036874D01*
X411480Y-3031490D01*
X411327Y-3026105D01*
X410870Y-3020822D01*
X410108Y-3015589D01*
X409092Y-3010408D01*
X407771Y-3005328D01*
X406146Y-3000349D01*
X404215Y-2995472D01*
X402031Y-2990697D01*
X399542Y-2986074D01*
X396798Y-2981604D01*
X393801Y-2977286D01*
X390499Y-2973070D01*
X386943Y-2969107D01*
X383133Y-2965246D01*
X374700Y-2958185D01*
X370128Y-2954985D01*
X365252Y-2951988D01*
X360172Y-2949244D01*
X354787Y-2946755D01*
X349199Y-2944469D01*
X343408Y-2942488D01*
X337312Y-2940761D01*
X331012Y-2939338D01*
X324510Y-2938221D01*
X317703Y-2937408D01*
X310743Y-2936900D01*
G37*
G36*
X199898Y-3140964D02*
G01*
X197815Y-3145993D01*
X196392Y-3151073D01*
X195580Y-3156508D01*
X195326Y-3162554D01*
X195681Y-3168345D01*
X196697Y-3173984D01*
X198374Y-3179521D01*
X200710Y-3184906D01*
X203606Y-3190138D01*
X207111Y-3195218D01*
X211124Y-3200044D01*
X215696Y-3204718D01*
X220725Y-3209137D01*
X226212Y-3213354D01*
X232156Y-3217265D01*
X238506Y-3220974D01*
X238506Y-3221990D01*
X200660Y-3225038D01*
X200660Y-3250184D01*
X406400Y-3250184D01*
X406400Y-3219450D01*
X272288Y-3219450D01*
X263804Y-3215741D01*
X256235Y-3211779D01*
X249580Y-3207613D01*
X243738Y-3203244D01*
X238709Y-3198774D01*
X234492Y-3194151D01*
X230987Y-3189478D01*
X228193Y-3184753D01*
X226110Y-3180029D01*
X224637Y-3175406D01*
X223774Y-3170834D01*
X223520Y-3166364D01*
X223723Y-3160979D01*
X224332Y-3156356D01*
X225348Y-3151886D01*
X226821Y-3147060D01*
G37*
G36*
X403606Y-3291840D02*
G01*
X380238Y-3297936D01*
X382371Y-3303473D01*
X384149Y-3309569D01*
X385368Y-3315817D01*
X385826Y-3321812D01*
X385521Y-3327704D01*
X384556Y-3332886D01*
X383032Y-3337407D01*
X380949Y-3341319D01*
X378256Y-3344621D01*
X375056Y-3347415D01*
X371348Y-3349650D01*
X367080Y-3351428D01*
X362356Y-3352749D01*
X357174Y-3353663D01*
X351536Y-3354171D01*
X345440Y-3354324D01*
X226314Y-3354324D01*
X226314Y-3297428D01*
X200660Y-3297428D01*
X200660Y-3354324D01*
X142494Y-3354324D01*
X142494Y-3380232D01*
X200660Y-3384042D01*
X202438Y-3416300D01*
X226314Y-3416300D01*
X226314Y-3385058D01*
X344170Y-3385058D01*
X351536Y-3384905D01*
X358597Y-3384397D01*
X365302Y-3383534D01*
X371602Y-3382264D01*
X377545Y-3380587D01*
X383082Y-3378454D01*
X388213Y-3375863D01*
X392887Y-3372815D01*
X397052Y-3369259D01*
X400761Y-3365195D01*
X403961Y-3360572D01*
X406603Y-3355390D01*
X408686Y-3349599D01*
X410209Y-3343198D01*
X411175Y-3336137D01*
X411480Y-3328415D01*
X410819Y-3319475D01*
X409092Y-3310128D01*
X406552Y-3300780D01*
G37*
G36*
X275844Y-3459734D02*
G01*
X268122Y-3459886D01*
X260756Y-3460343D01*
X253796Y-3461105D01*
X247192Y-3462121D01*
X240995Y-3463493D01*
X235153Y-3465169D01*
X229717Y-3467150D01*
X224688Y-3469487D01*
X220014Y-3472078D01*
X215747Y-3475024D01*
X211937Y-3478326D01*
X208432Y-3481882D01*
X205384Y-3485845D01*
X202742Y-3490061D01*
X200456Y-3494684D01*
X198628Y-3499612D01*
X197205Y-3504844D01*
X196138Y-3510483D01*
X195529Y-3516426D01*
X195326Y-3522726D01*
X195630Y-3529634D01*
X196596Y-3536289D01*
X198120Y-3542690D01*
X200202Y-3548837D01*
X202742Y-3554780D01*
X205790Y-3560521D01*
X209194Y-3566109D01*
X212953Y-3571544D01*
X217068Y-3576828D01*
X221437Y-3582009D01*
X230886Y-3592068D01*
X230886Y-3593084D01*
X200660Y-3596132D01*
X200660Y-3621278D01*
X406400Y-3621278D01*
X406400Y-3590544D01*
X255778Y-3590544D01*
X245617Y-3580282D01*
X241249Y-3575405D01*
X237337Y-3570630D01*
X233883Y-3565956D01*
X230835Y-3561283D01*
X228295Y-3556660D01*
X226212Y-3551936D01*
X224586Y-3547160D01*
X223418Y-3542233D01*
X222758Y-3537153D01*
X222504Y-3531870D01*
X222707Y-3526688D01*
X223316Y-3521862D01*
X224383Y-3517442D01*
X225856Y-3513378D01*
X227787Y-3509670D01*
X230124Y-3506317D01*
X232968Y-3503320D01*
X236220Y-3500678D01*
X239928Y-3498342D01*
X244144Y-3496360D01*
X248818Y-3494684D01*
X254000Y-3493312D01*
X259689Y-3492296D01*
X265836Y-3491534D01*
X272491Y-3491128D01*
X279654Y-3490976D01*
X406400Y-3490976D01*
X406400Y-3459734D01*
G37*
G36*
X303530Y-3677412D02*
G01*
X296316Y-3677564D01*
X289306Y-3678072D01*
X282498Y-3678885D01*
X275945Y-3680002D01*
X269646Y-3681425D01*
X263550Y-3683152D01*
X257708Y-3685133D01*
X252069Y-3687419D01*
X246735Y-3689908D01*
X241604Y-3692651D01*
X236778Y-3695649D01*
X232156Y-3698849D01*
X227787Y-3702304D01*
X223723Y-3705910D01*
X219862Y-3709771D01*
X216306Y-3713734D01*
X213004Y-3717950D01*
X210007Y-3722268D01*
X207264Y-3726738D01*
X204774Y-3731361D01*
X202590Y-3736136D01*
X200660Y-3741013D01*
X199034Y-3745992D01*
X197713Y-3751072D01*
X196697Y-3756253D01*
X195935Y-3761486D01*
X195478Y-3766769D01*
X195326Y-3772154D01*
X221488Y-3772154D01*
X221742Y-3766718D01*
X222453Y-3761435D01*
X223672Y-3756355D01*
X225348Y-3751478D01*
X227431Y-3746804D01*
X229971Y-3742385D01*
X232968Y-3738118D01*
X236321Y-3734155D01*
X240080Y-3730447D01*
X244246Y-3726992D01*
X248716Y-3723792D01*
X253593Y-3720896D01*
X258775Y-3718306D01*
X264312Y-3716020D01*
X270154Y-3714038D01*
X276250Y-3712413D01*
X282702Y-3711092D01*
X289407Y-3710178D01*
X296316Y-3709619D01*
X303530Y-3709415D01*
X310794Y-3709619D01*
X317804Y-3710178D01*
X324510Y-3711092D01*
X330962Y-3712413D01*
X337159Y-3714038D01*
X343001Y-3716020D01*
X348488Y-3718306D01*
X353720Y-3720896D01*
X358546Y-3723792D01*
X363016Y-3726992D01*
X367131Y-3730447D01*
X370890Y-3734155D01*
X374243Y-3738118D01*
X377139Y-3742385D01*
X379679Y-3746804D01*
X381762Y-3751478D01*
X383438Y-3756355D01*
X384606Y-3761435D01*
X385318Y-3766718D01*
X385572Y-3772154D01*
X385318Y-3777640D01*
X384606Y-3782923D01*
X383438Y-3788003D01*
X381762Y-3792880D01*
X379679Y-3797554D01*
X377139Y-3802024D01*
X374243Y-3806190D01*
X370890Y-3810152D01*
X367131Y-3813860D01*
X363016Y-3817315D01*
X358546Y-3820464D01*
X353720Y-3823309D01*
X348488Y-3825900D01*
X343001Y-3828135D01*
X337159Y-3830065D01*
X330962Y-3831691D01*
X324510Y-3832961D01*
X317804Y-3833876D01*
X310794Y-3834434D01*
X303530Y-3834637D01*
X296316Y-3834434D01*
X289407Y-3833876D01*
X282702Y-3832961D01*
X276250Y-3831691D01*
X270154Y-3830065D01*
X264312Y-3828135D01*
X258775Y-3825900D01*
X253593Y-3823309D01*
X248716Y-3820464D01*
X244246Y-3817315D01*
X240080Y-3813860D01*
X236321Y-3810152D01*
X232968Y-3806190D01*
X229971Y-3802024D01*
X227431Y-3797554D01*
X225348Y-3792880D01*
X223672Y-3788003D01*
X222453Y-3782923D01*
X221742Y-3777640D01*
X221488Y-3772154D01*
X195326Y-3772154D01*
X195478Y-3777538D01*
X195935Y-3782822D01*
X196697Y-3788054D01*
X197713Y-3793236D01*
X199034Y-3798315D01*
X200660Y-3803294D01*
X204774Y-3812895D01*
X207264Y-3817518D01*
X210007Y-3821988D01*
X213004Y-3826306D01*
X216306Y-3830472D01*
X219862Y-3834434D01*
X223723Y-3838244D01*
X227787Y-3841851D01*
X232156Y-3845306D01*
X236778Y-3848506D01*
X241604Y-3851452D01*
X246735Y-3854196D01*
X252069Y-3856685D01*
X257708Y-3858971D01*
X263550Y-3860952D01*
X269646Y-3862628D01*
X275945Y-3864051D01*
X282498Y-3865168D01*
X289306Y-3865981D01*
X296316Y-3866489D01*
X303530Y-3866642D01*
X310743Y-3866489D01*
X317703Y-3865981D01*
X324510Y-3865168D01*
X331012Y-3864051D01*
X337312Y-3862628D01*
X343408Y-3860952D01*
X349199Y-3858971D01*
X354787Y-3856685D01*
X360172Y-3854196D01*
X365252Y-3851452D01*
X370128Y-3848506D01*
X374700Y-3845306D01*
X383133Y-3838244D01*
X386943Y-3834434D01*
X390499Y-3830472D01*
X393801Y-3826306D01*
X396798Y-3821988D01*
X399542Y-3817518D01*
X402031Y-3812895D01*
X406146Y-3803294D01*
X407771Y-3798315D01*
X409092Y-3793236D01*
X410108Y-3788054D01*
X410870Y-3782822D01*
X411327Y-3777538D01*
X411480Y-3772154D01*
X411327Y-3766769D01*
X410870Y-3761486D01*
X410108Y-3756253D01*
X409092Y-3751072D01*
X407771Y-3745992D01*
X406146Y-3741013D01*
X404215Y-3736136D01*
X402031Y-3731361D01*
X399542Y-3726738D01*
X396798Y-3722268D01*
X393801Y-3717950D01*
X390499Y-3713734D01*
X386943Y-3709771D01*
X383133Y-3705910D01*
X374700Y-3698849D01*
X370128Y-3695649D01*
X365252Y-3692651D01*
X360172Y-3689908D01*
X354787Y-3687419D01*
X349199Y-3685133D01*
X343408Y-3683152D01*
X337312Y-3681425D01*
X331012Y-3680002D01*
X324510Y-3678885D01*
X317703Y-3678072D01*
X310743Y-3677564D01*
G37*
G36*
X371348Y-3901186D02*
G01*
X351536Y-3918712D01*
X356463Y-3923284D01*
X361035Y-3927957D01*
X365201Y-3932783D01*
X368960Y-3937762D01*
X372313Y-3942892D01*
X375259Y-3948176D01*
X377748Y-3953662D01*
X379831Y-3959351D01*
X381457Y-3965295D01*
X382574Y-3971442D01*
X383286Y-3977843D01*
X383540Y-3984498D01*
X383387Y-3990289D01*
X382879Y-3995928D01*
X382016Y-4001414D01*
X380847Y-4006697D01*
X379323Y-4011828D01*
X377494Y-4016806D01*
X375361Y-4021582D01*
X372872Y-4026154D01*
X370128Y-4030573D01*
X367080Y-4034790D01*
X363728Y-4038803D01*
X360070Y-4042613D01*
X356108Y-4046220D01*
X351942Y-4049623D01*
X347421Y-4052874D01*
X342646Y-4055821D01*
X337616Y-4058615D01*
X332333Y-4061155D01*
X326796Y-4063492D01*
X321005Y-4065574D01*
X314960Y-4067454D01*
X308660Y-4069079D01*
X302158Y-4070451D01*
X288442Y-4072483D01*
X281228Y-4073144D01*
X266192Y-4073651D01*
X258622Y-4073499D01*
X251256Y-4073093D01*
X244144Y-4072432D01*
X237236Y-4071518D01*
X224078Y-4068876D01*
X217881Y-4067200D01*
X211886Y-4065270D01*
X206197Y-4063136D01*
X195478Y-4058107D01*
X190550Y-4055262D01*
X185826Y-4052214D01*
X181406Y-4048912D01*
X177292Y-4045458D01*
X173380Y-4041749D01*
X169824Y-4037837D01*
X166522Y-4033774D01*
X163525Y-4029506D01*
X160782Y-4025036D01*
X158394Y-4020413D01*
X156311Y-4015587D01*
X154482Y-4010609D01*
X153009Y-4005427D01*
X151892Y-4000093D01*
X151028Y-3994658D01*
X150520Y-3989019D01*
X150368Y-3983228D01*
X150571Y-3977233D01*
X151231Y-3971493D01*
X152298Y-3965956D01*
X153720Y-3960622D01*
X155549Y-3955491D01*
X157683Y-3950563D01*
X160223Y-3945890D01*
X163017Y-3941419D01*
X166116Y-3937152D01*
X169519Y-3933088D01*
X173126Y-3929227D01*
X177038Y-3925570D01*
X156464Y-3908044D01*
X152095Y-3912260D01*
X147878Y-3916883D01*
X143764Y-3921861D01*
X139852Y-3927297D01*
X136194Y-3933037D01*
X132892Y-3939235D01*
X129895Y-3945737D01*
X127355Y-3952646D01*
X125272Y-3959910D01*
X123748Y-3967530D01*
X122783Y-3975455D01*
X122428Y-3983736D01*
X122935Y-3995267D01*
X123545Y-4000906D01*
X125577Y-4011879D01*
X128524Y-4022445D01*
X130352Y-4027525D01*
X134721Y-4037380D01*
X140004Y-4046677D01*
X146202Y-4055465D01*
X149606Y-4059631D01*
X157124Y-4067505D01*
X165404Y-4074769D01*
X174548Y-4081322D01*
X179425Y-4084370D01*
X189738Y-4089857D01*
X195173Y-4092346D01*
X200812Y-4094632D01*
X212648Y-4098594D01*
X225196Y-4101744D01*
X231749Y-4103014D01*
X245313Y-4104843D01*
X252374Y-4105452D01*
X259588Y-4105808D01*
X274421Y-4105808D01*
X281686Y-4105452D01*
X295706Y-4104081D01*
X302463Y-4103065D01*
X315468Y-4100372D01*
X327660Y-4096867D01*
X339140Y-4092549D01*
X349859Y-4087520D01*
X354939Y-4084726D01*
X364439Y-4078579D01*
X373126Y-4071772D01*
X381000Y-4064355D01*
X384606Y-4060393D01*
X391160Y-4052062D01*
X396849Y-4043172D01*
X401624Y-4033774D01*
X405485Y-4023918D01*
X407060Y-4018787D01*
X409498Y-4008272D01*
X410362Y-4002836D01*
X411378Y-3991711D01*
X411327Y-3979367D01*
X410819Y-3972915D01*
X409956Y-3966667D01*
X408838Y-3960571D01*
X407314Y-3954729D01*
X405536Y-3949039D01*
X403453Y-3943502D01*
X401015Y-3938168D01*
X398322Y-3932986D01*
X395325Y-3928008D01*
X392023Y-3923182D01*
X388416Y-3918458D01*
X384556Y-3913936D01*
X380441Y-3909568D01*
X376021Y-3905300D01*
G37*
G36*
X469646Y-4230878D02*
G01*
X444754Y-4236974D01*
X446227Y-4242866D01*
X447446Y-4249521D01*
X448259Y-4257192D01*
X448564Y-4265930D01*
X448411Y-4271721D01*
X447954Y-4277360D01*
X447243Y-4282897D01*
X446176Y-4288231D01*
X444804Y-4293412D01*
X443179Y-4298391D01*
X441248Y-4303217D01*
X438962Y-4307789D01*
X436422Y-4312208D01*
X433578Y-4316323D01*
X430377Y-4320235D01*
X426923Y-4323892D01*
X423164Y-4327296D01*
X419049Y-4330395D01*
X414680Y-4333240D01*
X409956Y-4335780D01*
X408990Y-4330242D01*
X407720Y-4324858D01*
X404469Y-4314444D01*
X400202Y-4304487D01*
X397713Y-4299712D01*
X392023Y-4290618D01*
X388823Y-4286300D01*
X385368Y-4282084D01*
X377850Y-4274210D01*
X369417Y-4266946D01*
X360172Y-4260392D01*
X350062Y-4254500D01*
X339140Y-4249420D01*
X333400Y-4247134D01*
X321360Y-4243171D01*
X308508Y-4240072D01*
X294995Y-4237786D01*
X280822Y-4236415D01*
X273456Y-4236059D01*
X258622Y-4236059D01*
X244449Y-4236974D01*
X230936Y-4238701D01*
X224434Y-4239869D01*
X211988Y-4242866D01*
X205994Y-4244644D01*
X200202Y-4246626D01*
X189230Y-4251147D01*
X183997Y-4253687D01*
X174142Y-4259326D01*
X169519Y-4262374D01*
X160832Y-4269028D01*
X153009Y-4276293D01*
X145999Y-4284167D01*
X139903Y-4292650D01*
X134620Y-4301642D01*
X132334Y-4306366D01*
X128473Y-4316171D01*
X125526Y-4326432D01*
X124409Y-4331766D01*
X123545Y-4337202D01*
X122529Y-4348327D01*
X122428Y-4354068D01*
X150368Y-4354068D01*
X150520Y-4348581D01*
X151028Y-4343247D01*
X151892Y-4338066D01*
X153009Y-4332986D01*
X154482Y-4328109D01*
X156311Y-4323384D01*
X158394Y-4318812D01*
X160782Y-4314393D01*
X163525Y-4310176D01*
X166522Y-4306112D01*
X169824Y-4302201D01*
X173380Y-4298543D01*
X177241Y-4295038D01*
X181406Y-4291736D01*
X185826Y-4288586D01*
X190500Y-4285691D01*
X195427Y-4282998D01*
X200660Y-4280509D01*
X206095Y-4278223D01*
X211836Y-4276191D01*
X217779Y-4274362D01*
X223977Y-4272737D01*
X230378Y-4271365D01*
X237083Y-4270248D01*
X251053Y-4268724D01*
X265938Y-4268216D01*
X281076Y-4268724D01*
X295402Y-4270248D01*
X302260Y-4271365D01*
X308813Y-4272737D01*
X315214Y-4274362D01*
X321310Y-4276191D01*
X327202Y-4278223D01*
X332841Y-4280509D01*
X338226Y-4282998D01*
X343306Y-4285691D01*
X348183Y-4288586D01*
X352755Y-4291736D01*
X357022Y-4295038D01*
X361035Y-4298543D01*
X364794Y-4302201D01*
X368198Y-4306112D01*
X371348Y-4310176D01*
X374142Y-4314393D01*
X376682Y-4318812D01*
X378866Y-4323384D01*
X380746Y-4328109D01*
X382270Y-4332986D01*
X383489Y-4338066D01*
X384352Y-4343247D01*
X384911Y-4348581D01*
X385064Y-4354068D01*
X384911Y-4359503D01*
X384352Y-4364786D01*
X383489Y-4369968D01*
X382270Y-4374946D01*
X380746Y-4379823D01*
X378866Y-4384497D01*
X376682Y-4389069D01*
X374142Y-4393438D01*
X371348Y-4397654D01*
X368198Y-4401667D01*
X364794Y-4405528D01*
X361035Y-4409186D01*
X357022Y-4412691D01*
X352755Y-4415993D01*
X348183Y-4419092D01*
X343306Y-4421987D01*
X338226Y-4424680D01*
X332841Y-4427169D01*
X321310Y-4431487D01*
X315214Y-4433316D01*
X302260Y-4436262D01*
X295402Y-4437380D01*
X281076Y-4438904D01*
X265938Y-4439412D01*
X251053Y-4438904D01*
X237083Y-4437380D01*
X230378Y-4436262D01*
X217779Y-4433316D01*
X211836Y-4431487D01*
X200660Y-4427169D01*
X195427Y-4424680D01*
X190500Y-4421987D01*
X185826Y-4419092D01*
X181406Y-4415993D01*
X177241Y-4412691D01*
X173380Y-4409186D01*
X169824Y-4405528D01*
X166522Y-4401667D01*
X163525Y-4397654D01*
X160782Y-4393438D01*
X158394Y-4389069D01*
X156311Y-4384497D01*
X154482Y-4379823D01*
X153009Y-4374946D01*
X151892Y-4369968D01*
X151028Y-4364786D01*
X150520Y-4359503D01*
X150368Y-4354068D01*
X122428Y-4354068D01*
X122529Y-4359757D01*
X123545Y-4370832D01*
X124409Y-4376216D01*
X125526Y-4381500D01*
X128473Y-4391710D01*
X130302Y-4396689D01*
X134620Y-4406188D01*
X139903Y-4415129D01*
X142849Y-4419447D01*
X145999Y-4423562D01*
X153009Y-4431436D01*
X160832Y-4438700D01*
X169519Y-4445304D01*
X178968Y-4451248D01*
X189230Y-4456480D01*
X200202Y-4461002D01*
X205994Y-4462983D01*
X218135Y-4466336D01*
X224434Y-4467758D01*
X237591Y-4469892D01*
X251460Y-4471212D01*
X258622Y-4471568D01*
X273558Y-4471568D01*
X280974Y-4471212D01*
X295351Y-4469790D01*
X309067Y-4467453D01*
X315620Y-4465980D01*
X328168Y-4462322D01*
X334162Y-4460240D01*
X339953Y-4457903D01*
X350977Y-4452670D01*
X361137Y-4446676D01*
X370433Y-4439920D01*
X374751Y-4436313D01*
X378866Y-4432503D01*
X386384Y-4424426D01*
X389788Y-4420158D01*
X395884Y-4411116D01*
X398576Y-4406392D01*
X401015Y-4401515D01*
X403199Y-4396536D01*
X405130Y-4391355D01*
X406806Y-4386122D01*
X409346Y-4375200D01*
X410209Y-4369562D01*
X415798Y-4367123D01*
X421233Y-4364431D01*
X426466Y-4361434D01*
X431546Y-4358132D01*
X436372Y-4354576D01*
X440994Y-4350715D01*
X445414Y-4346600D01*
X449529Y-4342231D01*
X453440Y-4337608D01*
X457047Y-4332681D01*
X460349Y-4327499D01*
X463397Y-4322064D01*
X466140Y-4316374D01*
X468528Y-4310380D01*
X470611Y-4304182D01*
X472338Y-4297730D01*
X473709Y-4291025D01*
X474675Y-4284116D01*
X475284Y-4276902D01*
X475488Y-4269486D01*
X475386Y-4263542D01*
X474421Y-4252366D01*
X472846Y-4242460D01*
X470763Y-4234230D01*
G37*
G36*
X324866Y-4511294D02*
G01*
X317906Y-4511548D01*
X311302Y-4512360D01*
X305104Y-4513681D01*
X299262Y-4515510D01*
X293776Y-4517796D01*
X288645Y-4520590D01*
X283921Y-4523790D01*
X279552Y-4527397D01*
X275539Y-4531410D01*
X271881Y-4535830D01*
X268630Y-4540554D01*
X265734Y-4545685D01*
X263194Y-4551121D01*
X261010Y-4556861D01*
X259232Y-4562906D01*
X257810Y-4569206D01*
X256286Y-4569206D01*
X253746Y-4562805D01*
X250647Y-4556861D01*
X246989Y-4551476D01*
X242824Y-4546600D01*
X238150Y-4542282D01*
X233070Y-4538522D01*
X227584Y-4535271D01*
X221742Y-4532630D01*
X215595Y-4530547D01*
X209143Y-4529023D01*
X202488Y-4528108D01*
X195580Y-4527804D01*
X189687Y-4528007D01*
X184099Y-4528616D01*
X178816Y-4529582D01*
X173786Y-4530902D01*
X169062Y-4532630D01*
X164592Y-4534662D01*
X160375Y-4537100D01*
X156464Y-4539843D01*
X152857Y-4542942D01*
X149453Y-4546346D01*
X146304Y-4550054D01*
X143459Y-4554118D01*
X140817Y-4558436D01*
X138430Y-4563008D01*
X136296Y-4567936D01*
X134416Y-4573066D01*
X132791Y-4578502D01*
X130149Y-4590084D01*
X129184Y-4596231D01*
X127914Y-4609236D01*
X127508Y-4623054D01*
X127508Y-4672076D01*
X152654Y-4672076D01*
X152654Y-4627626D01*
X152806Y-4619345D01*
X153263Y-4611624D01*
X154076Y-4604410D01*
X155194Y-4597704D01*
X156667Y-4591558D01*
X158496Y-4585970D01*
X160680Y-4580839D01*
X163271Y-4576267D01*
X166268Y-4572254D01*
X169722Y-4568748D01*
X173532Y-4565802D01*
X177850Y-4563364D01*
X182575Y-4561484D01*
X187756Y-4560112D01*
X193446Y-4559300D01*
X199644Y-4559046D01*
X204978Y-4559300D01*
X210058Y-4560011D01*
X214884Y-4561230D01*
X219405Y-4562957D01*
X223621Y-4565243D01*
X227533Y-4568037D01*
X231089Y-4571441D01*
X234340Y-4575352D01*
X237236Y-4579924D01*
X239826Y-4585055D01*
X242011Y-4590796D01*
X243840Y-4597196D01*
X245262Y-4604258D01*
X246278Y-4611928D01*
X246938Y-4620310D01*
X247142Y-4629404D01*
X247142Y-4672076D01*
X271526Y-4672076D01*
X271627Y-4614367D01*
X272643Y-4600498D01*
X273507Y-4594098D01*
X274675Y-4588052D01*
X276047Y-4582312D01*
X277723Y-4576978D01*
X279603Y-4571949D01*
X281787Y-4567326D01*
X284226Y-4563059D01*
X286918Y-4559198D01*
X289915Y-4555693D01*
X293166Y-4552594D01*
X296672Y-4549902D01*
X300482Y-4547616D01*
X304546Y-4545685D01*
X308864Y-4544212D01*
X313486Y-4543145D01*
X318414Y-4542485D01*
X323596Y-4542282D01*
X329387Y-4542485D01*
X334822Y-4543145D01*
X340004Y-4544263D01*
X344830Y-4545787D01*
X349300Y-4547717D01*
X353517Y-4550105D01*
X357428Y-4552848D01*
X360984Y-4555998D01*
X364286Y-4559554D01*
X367284Y-4563465D01*
X369976Y-4567732D01*
X372364Y-4572406D01*
X374497Y-4577435D01*
X376275Y-4582769D01*
X377799Y-4588459D01*
X379069Y-4594504D01*
X380034Y-4600854D01*
X380695Y-4607509D01*
X381101Y-4614519D01*
X381254Y-4621784D01*
X381254Y-4672076D01*
X127508Y-4672076D01*
X127508Y-4703826D01*
X406400Y-4703826D01*
X406298Y-4610354D01*
X405485Y-4597552D01*
X403809Y-4585462D01*
X401320Y-4574082D01*
X397967Y-4563465D01*
X395986Y-4558487D01*
X393801Y-4553712D01*
X391414Y-4549140D01*
X388823Y-4544822D01*
X386029Y-4540707D01*
X379780Y-4533188D01*
X376326Y-4529836D01*
X372719Y-4526737D01*
X368858Y-4523892D01*
X364794Y-4521301D01*
X360527Y-4519015D01*
X356057Y-4516983D01*
X351383Y-4515307D01*
X346506Y-4513884D01*
X341426Y-4512767D01*
X336092Y-4511954D01*
X330606Y-4511446D01*
G37*
G36*
X324866Y-4759706D02*
G01*
X317906Y-4759960D01*
X311302Y-4760772D01*
X305104Y-4762093D01*
X299262Y-4763922D01*
X293776Y-4766259D01*
X288645Y-4769002D01*
X283921Y-4772202D01*
X279552Y-4775860D01*
X275539Y-4779873D01*
X271881Y-4784293D01*
X268630Y-4789068D01*
X265734Y-4794199D01*
X263194Y-4799685D01*
X261010Y-4805476D01*
X259232Y-4811522D01*
X257810Y-4817872D01*
X256286Y-4817872D01*
X253746Y-4811471D01*
X250647Y-4805527D01*
X246989Y-4800092D01*
X242824Y-4795215D01*
X238150Y-4790846D01*
X233070Y-4787036D01*
X227584Y-4783785D01*
X221742Y-4781092D01*
X215595Y-4778959D01*
X209143Y-4777435D01*
X202488Y-4776520D01*
X195580Y-4776216D01*
X189687Y-4776419D01*
X184099Y-4777028D01*
X178816Y-4777994D01*
X173786Y-4779314D01*
X169062Y-4781042D01*
X164592Y-4783074D01*
X160375Y-4785512D01*
X156464Y-4788255D01*
X152857Y-4791354D01*
X149453Y-4794758D01*
X146304Y-4798466D01*
X143459Y-4802530D01*
X140817Y-4806848D01*
X138430Y-4811420D01*
X136296Y-4816348D01*
X134416Y-4821478D01*
X132791Y-4826914D01*
X130149Y-4838496D01*
X129184Y-4844643D01*
X127914Y-4857648D01*
X127508Y-4871466D01*
X127508Y-4920488D01*
X152654Y-4920488D01*
X152654Y-4876038D01*
X152806Y-4867757D01*
X153263Y-4860036D01*
X154076Y-4852822D01*
X155194Y-4846116D01*
X156667Y-4839970D01*
X158496Y-4834382D01*
X160680Y-4829251D01*
X163271Y-4824679D01*
X166268Y-4820666D01*
X169722Y-4817160D01*
X173532Y-4814214D01*
X177850Y-4811776D01*
X182575Y-4809896D01*
X187756Y-4808524D01*
X193446Y-4807712D01*
X199644Y-4807458D01*
X204978Y-4807712D01*
X210058Y-4808423D01*
X214884Y-4809642D01*
X219405Y-4811420D01*
X223621Y-4813706D01*
X227533Y-4816551D01*
X231089Y-4819954D01*
X234340Y-4823917D01*
X237236Y-4828489D01*
X239826Y-4833620D01*
X242011Y-4839411D01*
X243840Y-4845812D01*
X245262Y-4852873D01*
X246278Y-4860594D01*
X246938Y-4868976D01*
X247142Y-4878070D01*
X247142Y-4920488D01*
X271526Y-4920488D01*
X271627Y-4862779D01*
X272643Y-4848910D01*
X273507Y-4842510D01*
X274675Y-4836464D01*
X276047Y-4830724D01*
X277723Y-4825390D01*
X279603Y-4820361D01*
X281787Y-4815738D01*
X284226Y-4811471D01*
X286918Y-4807610D01*
X289915Y-4804105D01*
X293166Y-4801006D01*
X296672Y-4798314D01*
X300482Y-4796028D01*
X304546Y-4794097D01*
X308864Y-4792624D01*
X313486Y-4791557D01*
X318414Y-4790897D01*
X323596Y-4790694D01*
X329387Y-4790897D01*
X334822Y-4791608D01*
X340004Y-4792675D01*
X344830Y-4794250D01*
X349300Y-4796180D01*
X353517Y-4798568D01*
X357428Y-4801311D01*
X360984Y-4804511D01*
X364286Y-4808016D01*
X367284Y-4811979D01*
X369976Y-4816246D01*
X372364Y-4820920D01*
X374497Y-4825949D01*
X376275Y-4831283D01*
X377799Y-4836972D01*
X379069Y-4843018D01*
X380034Y-4849368D01*
X380695Y-4855972D01*
X381101Y-4862931D01*
X381254Y-4870196D01*
X381254Y-4920488D01*
X127508Y-4920488D01*
X127508Y-4952238D01*
X406400Y-4952238D01*
X406298Y-4858766D01*
X405485Y-4845964D01*
X403809Y-4833874D01*
X401320Y-4822494D01*
X397967Y-4811877D01*
X395986Y-4806899D01*
X393801Y-4802124D01*
X391414Y-4797552D01*
X388823Y-4793234D01*
X386029Y-4789119D01*
X379780Y-4781600D01*
X376326Y-4778248D01*
X372719Y-4775149D01*
X368858Y-4772304D01*
X364794Y-4769713D01*
X360527Y-4767427D01*
X356057Y-4765395D01*
X351383Y-4763719D01*
X346506Y-4762296D01*
X341426Y-4761179D01*
X336092Y-4760366D01*
X330606Y-4759858D01*
G37*
D24*
X1906015Y-1407413D02*
G01*
X1906015Y-1464563D01*
X1864360Y-1433321D01*
X1864360Y-1449070D01*
X1859279Y-1459229D01*
X1854200Y-1464563D01*
X1838452Y-1469644D01*
X1828037Y-1469644D01*
X1812544Y-1464563D01*
X1802129Y-1454150D01*
X1797050Y-1438655D01*
X1797050Y-1422907D01*
X1802129Y-1407413D01*
X1807210Y-1402079D01*
X1817623Y-1397000D01*
X1906015Y-1503934D02*
G01*
X1797050Y-1545589D01*
X1906015Y-1587245D02*
G01*
X1797050Y-1545589D01*
X1760473Y-1621536D02*
G01*
X1760473Y-1715007D01*
X1906015Y-1811528D02*
G01*
X1906015Y-1759712D01*
X1859279Y-1754378D01*
X1864360Y-1759712D01*
X1869694Y-1775205D01*
X1869694Y-1790700D01*
X1864360Y-1806447D01*
X1854200Y-1816862D01*
X1838452Y-1821942D01*
X1828037Y-1821942D01*
X1812544Y-1816862D01*
X1802129Y-1806447D01*
X1797050Y-1790700D01*
X1797050Y-1775205D01*
X1802129Y-1759712D01*
X1807210Y-1754378D01*
X1817623Y-1749297D01*
X1906015Y-1856231D02*
G01*
X1797050Y-1897887D01*
X1906015Y-1939289D02*
G01*
X1797050Y-1897887D01*
X5901715Y-301604D02*
G01*
X5792749Y-301604D01*
X5901715Y-301604D02*
G01*
X5792749Y-343260D01*
X5901715Y-384662D02*
G01*
X5792749Y-343260D01*
X5901715Y-384662D02*
G01*
X5792749Y-384662D01*
X5901715Y-418952D02*
G01*
X5792749Y-418952D01*
X5901715Y-418952D02*
G01*
X5901715Y-486516D01*
X5849899Y-418952D02*
G01*
X5849899Y-460608D01*
X5792749Y-418952D02*
G01*
X5792749Y-486516D01*
X5901715Y-562462D02*
G01*
X5792749Y-520806D01*
X5901715Y-562462D02*
G01*
X5792749Y-603864D01*
X5829071Y-536554D02*
G01*
X5829071Y-588370D01*
X5901715Y-674730D02*
G01*
X5792749Y-674730D01*
X5901715Y-638154D02*
G01*
X5901715Y-711052D01*
X5901715Y-755756D02*
G01*
X5901715Y-812906D01*
X5860059Y-781664D01*
X5860059Y-797158D01*
X5854979Y-807572D01*
X5849899Y-812906D01*
X5834151Y-817986D01*
X5823737Y-817986D01*
X5808243Y-812906D01*
X5797829Y-802492D01*
X5792749Y-786744D01*
X5792749Y-771250D01*
X5797829Y-755756D01*
X5802909Y-750422D01*
X5813323Y-745342D01*
X4456684Y-1498600D02*
G01*
X4565650Y-1498600D01*
X4456684Y-1498600D02*
G01*
X4456684Y-1451863D01*
X4461763Y-1436370D01*
X4467097Y-1431036D01*
X4477511Y-1425955D01*
X4487925Y-1425955D01*
X4498340Y-1431036D01*
X4503420Y-1436370D01*
X4508500Y-1451863D01*
X4508500Y-1498600D01*
X4508500Y-1462278D02*
G01*
X4565650Y-1425955D01*
X4456684Y-1329181D02*
G01*
X4456684Y-1381252D01*
X4503420Y-1386331D01*
X4498340Y-1381252D01*
X4493006Y-1365504D01*
X4493006Y-1350010D01*
X4498340Y-1334515D01*
X4508500Y-1324102D01*
X4524247Y-1318768D01*
X4534661Y-1318768D01*
X4550156Y-1324102D01*
X4560570Y-1334515D01*
X4565650Y-1350010D01*
X4565650Y-1365504D01*
X4560570Y-1381252D01*
X4555490Y-1386331D01*
X4545075Y-1391665D01*
X3599941Y-4177284D02*
G01*
X3589527Y-4182363D01*
X3579113Y-4192778D01*
X3573779Y-4203192D01*
X3568700Y-4218939D01*
X3568700Y-4244847D01*
X3573779Y-4260342D01*
X3579113Y-4270755D01*
X3589527Y-4281170D01*
X3599941Y-4286250D01*
X3620770Y-4286250D01*
X3630929Y-4281170D01*
X3641343Y-4270755D01*
X3646677Y-4260342D01*
X3651758Y-4244847D01*
X3651758Y-4218939D01*
X3646677Y-4203192D01*
X3641343Y-4192778D01*
X3630929Y-4182363D01*
X3620770Y-4177284D01*
X3599941Y-4177284D01*
X3686047Y-4177284D02*
G01*
X3686047Y-4286250D01*
X3686047Y-4177284D02*
G01*
X3758945Y-4286250D01*
X3758945Y-4177284D02*
G01*
X3758945Y-4286250D01*
X3793236Y-4322826D02*
G01*
X3886708Y-4322826D01*
X3952240Y-4177284D02*
G01*
X3941825Y-4182363D01*
X3931411Y-4192778D01*
X3926077Y-4203192D01*
X3920997Y-4218939D01*
X3920997Y-4244847D01*
X3926077Y-4260342D01*
X3931411Y-4270755D01*
X3941825Y-4281170D01*
X3952240Y-4286250D01*
X3972813Y-4286250D01*
X3983227Y-4281170D01*
X3993641Y-4270755D01*
X3998975Y-4260342D01*
X4004056Y-4244847D01*
X4004056Y-4218939D01*
X3998975Y-4203192D01*
X3993641Y-4192778D01*
X3983227Y-4182363D01*
X3972813Y-4177284D01*
X3952240Y-4177284D01*
X4038345Y-4177284D02*
G01*
X4038345Y-4286250D01*
X4038345Y-4177284D02*
G01*
X4105909Y-4177284D01*
X4038345Y-4229100D02*
G01*
X4080002Y-4229100D01*
X4140200Y-4177284D02*
G01*
X4140200Y-4286250D01*
X4140200Y-4177284D02*
G01*
X4207763Y-4177284D01*
X4140200Y-4229100D02*
G01*
X4181856Y-4229100D01*
X4468622Y-4113784D02*
G01*
X4468622Y-4222750D01*
X4432300Y-4113784D02*
G01*
X4504943Y-4113784D01*
X4539234Y-4113784D02*
G01*
X4539234Y-4222750D01*
X4539234Y-4113784D02*
G01*
X4585970Y-4113784D01*
X4601718Y-4118863D01*
X4606797Y-4124197D01*
X4612131Y-4134612D01*
X4612131Y-4145026D01*
X4606797Y-4155439D01*
X4601718Y-4160520D01*
X4585970Y-4165600D01*
X4539234Y-4165600D01*
X4575809Y-4165600D02*
G01*
X4612131Y-4222750D01*
X4687824Y-4113784D02*
G01*
X4646422Y-4222750D01*
X4687824Y-4113784D02*
G01*
X4729479Y-4222750D01*
X4661915Y-4186428D02*
G01*
X4713986Y-4186428D01*
X4763770Y-4113784D02*
G01*
X4763770Y-4222750D01*
X4763770Y-4113784D02*
G01*
X4836413Y-4222750D01*
X4836413Y-4113784D02*
G01*
X4836413Y-4222750D01*
X4943602Y-4129278D02*
G01*
X4933188Y-4118863D01*
X4917440Y-4113784D01*
X4896865Y-4113784D01*
X4881118Y-4118863D01*
X4870704Y-4129278D01*
X4870704Y-4139692D01*
X4876038Y-4150105D01*
X4881118Y-4155439D01*
X4891531Y-4160520D01*
X4922774Y-4170934D01*
X4933188Y-4176013D01*
X4938268Y-4181347D01*
X4943602Y-4191762D01*
X4943602Y-4207255D01*
X4933188Y-4217670D01*
X4917440Y-4222750D01*
X4896865Y-4222750D01*
X4881118Y-4217670D01*
X4870704Y-4207255D01*
X4977891Y-4113784D02*
G01*
X4977891Y-4222750D01*
X5084825Y-4129278D02*
G01*
X5074411Y-4118863D01*
X5058918Y-4113784D01*
X5038090Y-4113784D01*
X5022595Y-4118863D01*
X5012181Y-4129278D01*
X5012181Y-4139692D01*
X5017261Y-4150105D01*
X5022595Y-4155439D01*
X5033009Y-4160520D01*
X5063997Y-4170934D01*
X5074411Y-4176013D01*
X5079745Y-4181347D01*
X5084825Y-4191762D01*
X5084825Y-4207255D01*
X5074411Y-4217670D01*
X5058918Y-4222750D01*
X5038090Y-4222750D01*
X5022595Y-4217670D01*
X5012181Y-4207255D01*
X5155438Y-4113784D02*
G01*
X5155438Y-4222750D01*
X5119115Y-4113784D02*
G01*
X5191759Y-4113784D01*
X5257291Y-4113784D02*
G01*
X5246877Y-4118863D01*
X5236463Y-4129278D01*
X5231384Y-4139692D01*
X5226050Y-4155439D01*
X5226050Y-4181347D01*
X5231384Y-4196842D01*
X5236463Y-4207255D01*
X5246877Y-4217670D01*
X5257291Y-4222750D01*
X5278120Y-4222750D01*
X5288534Y-4217670D01*
X5298947Y-4207255D01*
X5304027Y-4196842D01*
X5309361Y-4181347D01*
X5309361Y-4155439D01*
X5304027Y-4139692D01*
X5298947Y-4129278D01*
X5288534Y-4118863D01*
X5278120Y-4113784D01*
X5257291Y-4113784D01*
X5343652Y-4113784D02*
G01*
X5343652Y-4222750D01*
X5343652Y-4113784D02*
G01*
X5390388Y-4113784D01*
X5405881Y-4118863D01*
X5411215Y-4124197D01*
X5416295Y-4134612D01*
X5416295Y-4145026D01*
X5411215Y-4155439D01*
X5405881Y-4160520D01*
X5390388Y-4165600D01*
X5343652Y-4165600D01*
X5379974Y-4165600D02*
G01*
X5416295Y-4222750D01*
X5450586Y-4134612D02*
G01*
X5461000Y-4129278D01*
X5476493Y-4113784D01*
X5476493Y-4222750D01*
X4517415Y-301604D02*
G01*
X4408449Y-301604D01*
X4517415Y-301604D02*
G01*
X4408449Y-343260D01*
X4517415Y-384662D02*
G01*
X4408449Y-343260D01*
X4517415Y-384662D02*
G01*
X4408449Y-384662D01*
X4517415Y-418952D02*
G01*
X4408449Y-418952D01*
X4517415Y-418952D02*
G01*
X4517415Y-486516D01*
X4465599Y-418952D02*
G01*
X4465599Y-460608D01*
X4408449Y-418952D02*
G01*
X4408449Y-486516D01*
X4517415Y-562462D02*
G01*
X4408449Y-520806D01*
X4517415Y-562462D02*
G01*
X4408449Y-603864D01*
X4444771Y-536554D02*
G01*
X4444771Y-588370D01*
X4517415Y-674730D02*
G01*
X4408449Y-674730D01*
X4517415Y-638154D02*
G01*
X4517415Y-711052D01*
X4491507Y-750422D02*
G01*
X4496587Y-750422D01*
X4507001Y-755756D01*
X4512335Y-760836D01*
X4517415Y-771250D01*
X4517415Y-792078D01*
X4512335Y-802492D01*
X4507001Y-807572D01*
X4496587Y-812906D01*
X4486173Y-812906D01*
X4475759Y-807572D01*
X4460265Y-797158D01*
X4408449Y-745342D01*
X4408449Y-817986D01*
X3107715Y-301604D02*
G01*
X2998749Y-301604D01*
X3107715Y-301604D02*
G01*
X2998749Y-343260D01*
X3107715Y-384662D02*
G01*
X2998749Y-343260D01*
X3107715Y-384662D02*
G01*
X2998749Y-384662D01*
X3107715Y-418952D02*
G01*
X2998749Y-418952D01*
X3107715Y-418952D02*
G01*
X3107715Y-486516D01*
X3055899Y-418952D02*
G01*
X3055899Y-460608D01*
X2998749Y-418952D02*
G01*
X2998749Y-486516D01*
X3107715Y-562462D02*
G01*
X2998749Y-520806D01*
X3107715Y-562462D02*
G01*
X2998749Y-603864D01*
X3035071Y-536554D02*
G01*
X3035071Y-588370D01*
X3107715Y-674730D02*
G01*
X2998749Y-674730D01*
X3107715Y-638154D02*
G01*
X3107715Y-711052D01*
X3086887Y-745342D02*
G01*
X3092221Y-755756D01*
X3107715Y-771250D01*
X2998749Y-771250D01*
X1723415Y-301604D02*
G01*
X1614449Y-301604D01*
X1723415Y-335894D02*
G01*
X1614449Y-335894D01*
X1723415Y-335894D02*
G01*
X1614449Y-408538D01*
X1723415Y-408538D02*
G01*
X1614449Y-408538D01*
X1707921Y-515726D02*
G01*
X1718335Y-505312D01*
X1723415Y-489564D01*
X1723415Y-468990D01*
X1718335Y-453242D01*
X1707921Y-442828D01*
X1697507Y-442828D01*
X1687093Y-448162D01*
X1681759Y-453242D01*
X1676679Y-463656D01*
X1666265Y-494898D01*
X1661185Y-505312D01*
X1655851Y-510392D01*
X1645437Y-515726D01*
X1629943Y-515726D01*
X1619529Y-505312D01*
X1614449Y-489564D01*
X1614449Y-468990D01*
X1619529Y-453242D01*
X1629943Y-442828D01*
X1723415Y-550016D02*
G01*
X1614449Y-550016D01*
X1723415Y-584306D02*
G01*
X1614449Y-584306D01*
X1723415Y-584306D02*
G01*
X1723415Y-620628D01*
X1718335Y-636122D01*
X1707921Y-646536D01*
X1697507Y-651870D01*
X1681759Y-656950D01*
X1655851Y-656950D01*
X1640357Y-651870D01*
X1629943Y-646536D01*
X1619529Y-636122D01*
X1614449Y-620628D01*
X1614449Y-584306D01*
X1723415Y-691240D02*
G01*
X1614449Y-691240D01*
X1723415Y-691240D02*
G01*
X1723415Y-758804D01*
X1671599Y-691240D02*
G01*
X1671599Y-732896D01*
X1614449Y-691240D02*
G01*
X1614449Y-758804D01*
X2145284Y-1498600D02*
G01*
X2254250Y-1498600D01*
X2145284Y-1498600D02*
G01*
X2145284Y-1451863D01*
X2150363Y-1436370D01*
X2155697Y-1431036D01*
X2166111Y-1425955D01*
X2176525Y-1425955D01*
X2186940Y-1431036D01*
X2192020Y-1436370D01*
X2197100Y-1451863D01*
X2197100Y-1498600D01*
X2197100Y-1462278D02*
G01*
X2254250Y-1425955D01*
X2145284Y-1381252D02*
G01*
X2145284Y-1324102D01*
X2186940Y-1355089D01*
X2186940Y-1339595D01*
X2192020Y-1329181D01*
X2197100Y-1324102D01*
X2212847Y-1318768D01*
X2223261Y-1318768D01*
X2238756Y-1324102D01*
X2249170Y-1334515D01*
X2254250Y-1350010D01*
X2254250Y-1365504D01*
X2249170Y-1381252D01*
X2244090Y-1386331D01*
X2233675Y-1391665D01*
X2970784Y-1485900D02*
G01*
X3079750Y-1485900D01*
X2970784Y-1485900D02*
G01*
X2970784Y-1439163D01*
X2975863Y-1423670D01*
X2981197Y-1418336D01*
X2991611Y-1413255D01*
X3002025Y-1413255D01*
X3012440Y-1418336D01*
X3017520Y-1423670D01*
X3022600Y-1439163D01*
X3022600Y-1485900D01*
X3022600Y-1449578D02*
G01*
X3079750Y-1413255D01*
X2996691Y-1373631D02*
G01*
X2991611Y-1373631D01*
X2981197Y-1368552D01*
X2975863Y-1363218D01*
X2970784Y-1352804D01*
X2970784Y-1332229D01*
X2975863Y-1321815D01*
X2981197Y-1316481D01*
X2991611Y-1311402D01*
X3002025Y-1311402D01*
X3012440Y-1316481D01*
X3027934Y-1326895D01*
X3079750Y-1378965D01*
X3079750Y-1306068D01*
X3643884Y-1460500D02*
G01*
X3752850Y-1460500D01*
X3643884Y-1460500D02*
G01*
X3643884Y-1413763D01*
X3648963Y-1398270D01*
X3654297Y-1392936D01*
X3664711Y-1387855D01*
X3675125Y-1387855D01*
X3685540Y-1392936D01*
X3690620Y-1398270D01*
X3695700Y-1413763D01*
X3695700Y-1460500D01*
X3695700Y-1424178D02*
G01*
X3752850Y-1387855D01*
X3664711Y-1353565D02*
G01*
X3659377Y-1343152D01*
X3643884Y-1327404D01*
X3752850Y-1327404D01*
X4254500Y-4786884D02*
G01*
X4254500Y-4895850D01*
X4254500Y-4786884D02*
G01*
X4301236Y-4786884D01*
X4316729Y-4791963D01*
X4322063Y-4797297D01*
X4327143Y-4807712D01*
X4327143Y-4818126D01*
X4322063Y-4828539D01*
X4316729Y-4833620D01*
X4301236Y-4838700D01*
X4254500Y-4838700D01*
X4290822Y-4838700D02*
G01*
X4327143Y-4895850D01*
X4413504Y-4786884D02*
G01*
X4361434Y-4859528D01*
X4439411Y-4859528D01*
X4413504Y-4786884D02*
G01*
X4413504Y-4895850D01*
X6083300Y-5586984D02*
G01*
X6083300Y-5695950D01*
X6083300Y-5586984D02*
G01*
X6150863Y-5586984D01*
X6083300Y-5638800D02*
G01*
X6124956Y-5638800D01*
X6226809Y-5586984D02*
G01*
X6185154Y-5695950D01*
X6226809Y-5586984D02*
G01*
X6268211Y-5695950D01*
X6200647Y-5659628D02*
G01*
X6252718Y-5659628D01*
X6302502Y-5586984D02*
G01*
X6302502Y-5695950D01*
X6302502Y-5586984D02*
G01*
X6375400Y-5695950D01*
X6375400Y-5586984D02*
G01*
X6375400Y-5695950D01*
D25*
X4203700Y-5938268D02*
G01*
X4203700Y-6036566D01*
X4269231Y-5938268D02*
G01*
X4269231Y-6036566D01*
X4203700Y-5985004D02*
G01*
X4269231Y-5985004D01*
X4300220Y-5938268D02*
G01*
X4365752Y-6036566D01*
X4365752Y-5938268D02*
G01*
X4300220Y-6036566D01*
X4396486Y-5994402D02*
G01*
X4480813Y-5994402D01*
X4511802Y-5938268D02*
G01*
X4511802Y-6036566D01*
X4511802Y-5938268D02*
G01*
X4549140Y-6036566D01*
X4586731Y-5938268D02*
G01*
X4549140Y-6036566D01*
X4586731Y-5938268D02*
G01*
X4586731Y-6036566D01*
X4617465Y-5938268D02*
G01*
X4617465Y-6036566D01*
X4648454Y-5938268D02*
G01*
X4648454Y-6036566D01*
X4648454Y-5938268D02*
G01*
X4713986Y-6036566D01*
X4713986Y-5938268D02*
G01*
X4713986Y-6036566D01*
X4744974Y-5938268D02*
G01*
X4744974Y-6036566D01*
X4775708Y-5994402D02*
G01*
X4860036Y-5994402D01*
X4900422Y-5938268D02*
G01*
X4951729Y-5938268D01*
X4923790Y-5975606D01*
X4937759Y-5975606D01*
X4947158Y-5980432D01*
X4951729Y-5985004D01*
X4956556Y-5998974D01*
X4956556Y-6008372D01*
X4951729Y-6022596D01*
X4942586Y-6031740D01*
X4928361Y-6036566D01*
X4914391Y-6036566D01*
X4900422Y-6031740D01*
X4895595Y-6027168D01*
X4891024Y-6017770D01*
X5043677Y-5952238D02*
G01*
X5038852Y-5942840D01*
X5024881Y-5938268D01*
X5015484Y-5938268D01*
X5001513Y-5942840D01*
X4992115Y-5957064D01*
X4987543Y-5980432D01*
X4987543Y-6003800D01*
X4992115Y-6022596D01*
X5001513Y-6031740D01*
X5015484Y-6036566D01*
X5020309Y-6036566D01*
X5034279Y-6031740D01*
X5043677Y-6022596D01*
X5048250Y-6008372D01*
X5048250Y-6003800D01*
X5043677Y-5989830D01*
X5034279Y-5980432D01*
X5020309Y-5975606D01*
X5015484Y-5975606D01*
X5001513Y-5980432D01*
X4992115Y-5989830D01*
X4987543Y-6003800D01*
X5107177Y-5938268D02*
G01*
X5093208Y-5942840D01*
X5083809Y-5957064D01*
X5079238Y-5980432D01*
X5079238Y-5994402D01*
X5083809Y-6017770D01*
X5093208Y-6031740D01*
X5107177Y-6036566D01*
X5116575Y-6036566D01*
X5130800Y-6031740D01*
X5139943Y-6017770D01*
X5144770Y-5994402D01*
X5144770Y-5980432D01*
X5139943Y-5957064D01*
X5130800Y-5942840D01*
X5116575Y-5938268D01*
X5107177Y-5938268D01*
D20*
X5372100Y-6400800D02*
G01*
X5372100Y-6305295D01*
X5342127Y-6400800D02*
G01*
X5342127Y-6305295D01*
X5342127Y-6400800D02*
G01*
X5278374Y-6305295D01*
X5278374Y-6400800D02*
G01*
X5278374Y-6305295D01*
X5248402Y-6346189D02*
G01*
X5166613Y-6346189D01*
X5372100Y-5461000D02*
G01*
X5372100Y-5365495D01*
X5342127Y-5461000D02*
G01*
X5342127Y-5365495D01*
X5342127Y-5461000D02*
G01*
X5278374Y-5365495D01*
X5278374Y-5461000D02*
G01*
X5278374Y-5365495D01*
X5207508Y-5447284D02*
G01*
X5207508Y-5365495D01*
X5248402Y-5406389D02*
G01*
X5166613Y-5406389D01*
X4328922Y-6400800D02*
G01*
X4337811Y-6396228D01*
X4346956Y-6387084D01*
X4351527Y-6377939D01*
X4356100Y-6364478D01*
X4356100Y-6341618D01*
X4351527Y-6327902D01*
X4346956Y-6319012D01*
X4337811Y-6309868D01*
X4328922Y-6305295D01*
X4310634Y-6305295D01*
X4301490Y-6309868D01*
X4292345Y-6319012D01*
X4288027Y-6327902D01*
X4283456Y-6341618D01*
X4283456Y-6364478D01*
X4288027Y-6377939D01*
X4292345Y-6387084D01*
X4301490Y-6396228D01*
X4310634Y-6400800D01*
X4328922Y-6400800D01*
X4253484Y-6400800D02*
G01*
X4253484Y-6332473D01*
X4248911Y-6319012D01*
X4239768Y-6309868D01*
X4226052Y-6305295D01*
X4216908Y-6305295D01*
X4203445Y-6309868D01*
X4194302Y-6319012D01*
X4189729Y-6332473D01*
X4189729Y-6400800D01*
X4128008Y-6400800D02*
G01*
X4128008Y-6305295D01*
X4159758Y-6400800D02*
G01*
X4096004Y-6400800D01*
X4066031Y-6346189D02*
G01*
X3984243Y-6346189D01*
X4328922Y-5461000D02*
G01*
X4337811Y-5456428D01*
X4346956Y-5447284D01*
X4351527Y-5438139D01*
X4356100Y-5424678D01*
X4356100Y-5401818D01*
X4351527Y-5388102D01*
X4346956Y-5379212D01*
X4337811Y-5370068D01*
X4328922Y-5365495D01*
X4310634Y-5365495D01*
X4301490Y-5370068D01*
X4292345Y-5379212D01*
X4288027Y-5388102D01*
X4283456Y-5401818D01*
X4283456Y-5424678D01*
X4288027Y-5438139D01*
X4292345Y-5447284D01*
X4301490Y-5456428D01*
X4310634Y-5461000D01*
X4328922Y-5461000D01*
X4253484Y-5461000D02*
G01*
X4253484Y-5392673D01*
X4248911Y-5379212D01*
X4239768Y-5370068D01*
X4226052Y-5365495D01*
X4216908Y-5365495D01*
X4203445Y-5370068D01*
X4194302Y-5379212D01*
X4189729Y-5392673D01*
X4189729Y-5461000D01*
X4128008Y-5461000D02*
G01*
X4128008Y-5365495D01*
X4159758Y-5461000D02*
G01*
X4096004Y-5461000D01*
X4025138Y-5447284D02*
G01*
X4025138Y-5365495D01*
X4066031Y-5406389D02*
G01*
X3984243Y-5406389D01*
D24*
X4483100Y-6501384D02*
G01*
X4483100Y-6610350D01*
X4483100Y-6501384D02*
G01*
X4519422Y-6501384D01*
X4535170Y-6506463D01*
X4545329Y-6516878D01*
X4550663Y-6527292D01*
X4555743Y-6543039D01*
X4555743Y-6568947D01*
X4550663Y-6584442D01*
X4545329Y-6594855D01*
X4535170Y-6605270D01*
X4519422Y-6610350D01*
X4483100Y-6610350D01*
X4668011Y-6527292D02*
G01*
X4662931Y-6516878D01*
X4652518Y-6506463D01*
X4642104Y-6501384D01*
X4621275Y-6501384D01*
X4610861Y-6506463D01*
X4600447Y-6516878D01*
X4595368Y-6527292D01*
X4590034Y-6543039D01*
X4590034Y-6568947D01*
X4595368Y-6584442D01*
X4600447Y-6594855D01*
X4610861Y-6605270D01*
X4621275Y-6610350D01*
X4642104Y-6610350D01*
X4652518Y-6605270D01*
X4662931Y-6594855D01*
X4668011Y-6584442D01*
X4702302Y-6501384D02*
G01*
X4702302Y-6610350D01*
X4702302Y-6501384D02*
G01*
X4738624Y-6501384D01*
X4754372Y-6506463D01*
X4764786Y-6516878D01*
X4769865Y-6527292D01*
X4775200Y-6543039D01*
X4775200Y-6568947D01*
X4769865Y-6584442D01*
X4764786Y-6594855D01*
X4754372Y-6605270D01*
X4738624Y-6610350D01*
X4702302Y-6610350D01*
X4887213Y-6527292D02*
G01*
X4882134Y-6516878D01*
X4871720Y-6506463D01*
X4861306Y-6501384D01*
X4840477Y-6501384D01*
X4830063Y-6506463D01*
X4819650Y-6516878D01*
X4814570Y-6527292D01*
X4809490Y-6543039D01*
X4809490Y-6568947D01*
X4814570Y-6584442D01*
X4819650Y-6594855D01*
X4830063Y-6605270D01*
X4840477Y-6610350D01*
X4861306Y-6610350D01*
X4871720Y-6605270D01*
X4882134Y-6594855D01*
X4887213Y-6584442D01*
X5893815Y-7213600D02*
G01*
X5784850Y-7213600D01*
X5893815Y-7213600D02*
G01*
X5893815Y-7260336D01*
X5888736Y-7275829D01*
X5883402Y-7281163D01*
X5872988Y-7286244D01*
X5857493Y-7286244D01*
X5847079Y-7281163D01*
X5842000Y-7275829D01*
X5836665Y-7260336D01*
X5836665Y-7213600D01*
X5893815Y-7351776D02*
G01*
X5888736Y-7341362D01*
X5878322Y-7330947D01*
X5867908Y-7325868D01*
X5852159Y-7320534D01*
X5826252Y-7320534D01*
X5810758Y-7325868D01*
X5800343Y-7330947D01*
X5789929Y-7341362D01*
X5784850Y-7351776D01*
X5784850Y-7372604D01*
X5789929Y-7383018D01*
X5800343Y-7393431D01*
X5810758Y-7398512D01*
X5826252Y-7403845D01*
X5852159Y-7403845D01*
X5867908Y-7398512D01*
X5878322Y-7393431D01*
X5888736Y-7383018D01*
X5893815Y-7372604D01*
X5893815Y-7351776D01*
X5893815Y-7438136D02*
G01*
X5784850Y-7464044D01*
X5893815Y-7489952D02*
G01*
X5784850Y-7464044D01*
X5893815Y-7489952D02*
G01*
X5784850Y-7515860D01*
X5893815Y-7542021D02*
G01*
X5784850Y-7515860D01*
X5893815Y-7576312D02*
G01*
X5784850Y-7576312D01*
X5893815Y-7576312D02*
G01*
X5893815Y-7643876D01*
X5842000Y-7576312D02*
G01*
X5842000Y-7617713D01*
X5784850Y-7576312D02*
G01*
X5784850Y-7643876D01*
X5893815Y-7678165D02*
G01*
X5784850Y-7678165D01*
X5893815Y-7678165D02*
G01*
X5893815Y-7724902D01*
X5888736Y-7740395D01*
X5883402Y-7745729D01*
X5872988Y-7750810D01*
X5862574Y-7750810D01*
X5852159Y-7745729D01*
X5847079Y-7740395D01*
X5842000Y-7724902D01*
X5842000Y-7678165D01*
X5842000Y-7714487D02*
G01*
X5784850Y-7750810D01*
X5829300Y-5028184D02*
G01*
X5829300Y-5137150D01*
X5829300Y-5028184D02*
G01*
X5865622Y-5028184D01*
X5881370Y-5033263D01*
X5891529Y-5043678D01*
X5896863Y-5054092D01*
X5901943Y-5069839D01*
X5901943Y-5095747D01*
X5896863Y-5111242D01*
X5891529Y-5121655D01*
X5881370Y-5132070D01*
X5865622Y-5137150D01*
X5829300Y-5137150D01*
X5936234Y-5028184D02*
G01*
X5936234Y-5137150D01*
X6001765Y-5028184D02*
G01*
X5991352Y-5033263D01*
X5980938Y-5043678D01*
X5975858Y-5054092D01*
X5970524Y-5069839D01*
X5970524Y-5095747D01*
X5975858Y-5111242D01*
X5980938Y-5121655D01*
X5991352Y-5132070D01*
X6001765Y-5137150D01*
X6022593Y-5137150D01*
X6033008Y-5132070D01*
X6043422Y-5121655D01*
X6048502Y-5111242D01*
X6053836Y-5095747D01*
X6053836Y-5069839D01*
X6048502Y-5054092D01*
X6043422Y-5043678D01*
X6033008Y-5033263D01*
X6022593Y-5028184D01*
X6001765Y-5028184D01*
X6088125Y-5028184D02*
G01*
X6088125Y-5137150D01*
X6088125Y-5028184D02*
G01*
X6124447Y-5028184D01*
X6139941Y-5033263D01*
X6150356Y-5043678D01*
X6155690Y-5054092D01*
X6160770Y-5069839D01*
X6160770Y-5095747D01*
X6155690Y-5111242D01*
X6150356Y-5121655D01*
X6139941Y-5132070D01*
X6124447Y-5137150D01*
X6088125Y-5137150D01*
X6195059Y-5028184D02*
G01*
X6195059Y-5137150D01*
X6195059Y-5028184D02*
G01*
X6262624Y-5028184D01*
X6195059Y-5080000D02*
G01*
X6236715Y-5080000D01*
X6195059Y-5137150D02*
G01*
X6262624Y-5137150D01*
X1968500Y-2157984D02*
G01*
X1968500Y-2235962D01*
X1973579Y-2251455D01*
X1983993Y-2261870D01*
X1999741Y-2266950D01*
X2010156Y-2266950D01*
X2025650Y-2261870D01*
X2036063Y-2251455D01*
X2041143Y-2235962D01*
X2041143Y-2157984D01*
X2075434Y-2178812D02*
G01*
X2085847Y-2173478D01*
X2101595Y-2157984D01*
X2101595Y-2266950D01*
D26*
X1248410Y-6476997D02*
G01*
X1219200Y-6553451D01*
X1248410Y-6476997D02*
G01*
X1277365Y-6553451D01*
X1230121Y-6528051D02*
G01*
X1266444Y-6528051D01*
X1301495Y-6476997D02*
G01*
X1301495Y-6553451D01*
X1301495Y-6476997D02*
G01*
X1330452Y-6553451D01*
X1359662Y-6476997D02*
G01*
X1330452Y-6553451D01*
X1359662Y-6476997D02*
G01*
X1359662Y-6553451D01*
X1434592Y-6487919D02*
G01*
X1427226Y-6480807D01*
X1416304Y-6476997D01*
X1401826Y-6476997D01*
X1390904Y-6480807D01*
X1383537Y-6487919D01*
X1383537Y-6495285D01*
X1387094Y-6502397D01*
X1390904Y-6506207D01*
X1398015Y-6509763D01*
X1419860Y-6517129D01*
X1427226Y-6520685D01*
X1430781Y-6524241D01*
X1434592Y-6531607D01*
X1434592Y-6542529D01*
X1427226Y-6549895D01*
X1416304Y-6553451D01*
X1401826Y-6553451D01*
X1390904Y-6549895D01*
X1383537Y-6542529D01*
X1458468Y-6491475D02*
G01*
X1465834Y-6487919D01*
X1476755Y-6476997D01*
X1476755Y-6553451D01*
X1500631Y-6491475D02*
G01*
X1507997Y-6487919D01*
X1518920Y-6476997D01*
X1518920Y-6553451D01*
X1542795Y-6491475D02*
G01*
X1550162Y-6487919D01*
X1561084Y-6476997D01*
X1561084Y-6553451D01*
X1636013Y-6476997D02*
G01*
X1599437Y-6553451D01*
X1584960Y-6476997D02*
G01*
X1636013Y-6476997D01*
X1226565Y-6658607D02*
G01*
X1266444Y-6658607D01*
X1244600Y-6687817D01*
X1255521Y-6687817D01*
X1262887Y-6691373D01*
X1266444Y-6694929D01*
X1270000Y-6705851D01*
X1270000Y-6713217D01*
X1266444Y-6724139D01*
X1259078Y-6731251D01*
X1248410Y-6735061D01*
X1237487Y-6735061D01*
X1226565Y-6731251D01*
X1222755Y-6727695D01*
X1219200Y-6720583D01*
X1297686Y-6716773D02*
G01*
X1294129Y-6720583D01*
X1297686Y-6724139D01*
X1301495Y-6720583D01*
X1297686Y-6716773D01*
X1332737Y-6658607D02*
G01*
X1372615Y-6658607D01*
X1350771Y-6687817D01*
X1361694Y-6687817D01*
X1369060Y-6691373D01*
X1372615Y-6694929D01*
X1376171Y-6705851D01*
X1376171Y-6713217D01*
X1372615Y-6724139D01*
X1365504Y-6731251D01*
X1354581Y-6735061D01*
X1343660Y-6735061D01*
X1332737Y-6731251D01*
X1328928Y-6727695D01*
X1325371Y-6720583D01*
X1456181Y-6658607D02*
G01*
X1456181Y-6735061D01*
X1456181Y-6658607D02*
G01*
X1481836Y-6658607D01*
X1492757Y-6662163D01*
X1499870Y-6669529D01*
X1503679Y-6676895D01*
X1507236Y-6687817D01*
X1507236Y-6705851D01*
X1503679Y-6716773D01*
X1499870Y-6724139D01*
X1492757Y-6731251D01*
X1481836Y-6735061D01*
X1456181Y-6735061D01*
X1531112Y-6658607D02*
G01*
X1531112Y-6735061D01*
X1531112Y-6658607D02*
G01*
X1582165Y-6735061D01*
X1582165Y-6658607D02*
G01*
X1582165Y-6735061D01*
X1624329Y-6658607D02*
G01*
X1613407Y-6662163D01*
X1609852Y-6669529D01*
X1609852Y-6676895D01*
X1613407Y-6684007D01*
X1620773Y-6687817D01*
X1635252Y-6691373D01*
X1646173Y-6694929D01*
X1653286Y-6702295D01*
X1657095Y-6709661D01*
X1657095Y-6720583D01*
X1653286Y-6727695D01*
X1649729Y-6731251D01*
X1638807Y-6735061D01*
X1624329Y-6735061D01*
X1613407Y-6731251D01*
X1609852Y-6727695D01*
X1606042Y-6720583D01*
X1606042Y-6709661D01*
X1609852Y-6702295D01*
X1616963Y-6694929D01*
X1627886Y-6691373D01*
X1642363Y-6687817D01*
X1649729Y-6684007D01*
X1653286Y-6676895D01*
X1653286Y-6669529D01*
X1649729Y-6662163D01*
X1638807Y-6658607D01*
X1624329Y-6658607D01*
X1680971Y-6673085D02*
G01*
X1688337Y-6669529D01*
X1699260Y-6658607D01*
X1699260Y-6735061D01*
X1723136Y-6673085D02*
G01*
X1730502Y-6669529D01*
X1741423Y-6658607D01*
X1741423Y-6735061D01*
D27*
X2279650Y-6194297D02*
G01*
X2273300Y-6187947D01*
X2263902Y-6184900D01*
X2251202Y-6184900D01*
X2241550Y-6187947D01*
X2235200Y-6194297D01*
X2235200Y-6200647D01*
X2238502Y-6206997D01*
X2241550Y-6210300D01*
X2247900Y-6213347D01*
X2266950Y-6219697D01*
X2273300Y-6223000D01*
X2276602Y-6226302D01*
X2279650Y-6232652D01*
X2279650Y-6242050D01*
X2273300Y-6248400D01*
X2263902Y-6251702D01*
X2251202Y-6251702D01*
X2241550Y-6248400D01*
X2235200Y-6242050D01*
X2300731Y-6184900D02*
G01*
X2300731Y-6251702D01*
X2321813Y-6184900D02*
G01*
X2321813Y-6251702D01*
X2321813Y-6251702D02*
G01*
X2359913Y-6251702D01*
X2406395Y-6184900D02*
G01*
X2380995Y-6251702D01*
X2406395Y-6184900D02*
G01*
X2431795Y-6251702D01*
X2390393Y-6229350D02*
G01*
X2422397Y-6229350D01*
X2452877Y-6184900D02*
G01*
X2452877Y-6251702D01*
X2452877Y-6184900D02*
G01*
X2481579Y-6184900D01*
X2490977Y-6187947D01*
X2494279Y-6191250D01*
X2497327Y-6197600D01*
X2497327Y-6203950D01*
X2494279Y-6210300D01*
X2490977Y-6213347D01*
X2481579Y-6216650D01*
X2452877Y-6216650D02*
G01*
X2481579Y-6216650D01*
X2490977Y-6219697D01*
X2494279Y-6223000D01*
X2497327Y-6229350D01*
X2497327Y-6239002D01*
X2494279Y-6245352D01*
X2490977Y-6248400D01*
X2481579Y-6251702D01*
X2452877Y-6251702D01*
X2562859Y-6194297D02*
G01*
X2556509Y-6187947D01*
X2547111Y-6184900D01*
X2534411Y-6184900D01*
X2524759Y-6187947D01*
X2518409Y-6194297D01*
X2518409Y-6200647D01*
X2521458Y-6206997D01*
X2524759Y-6210300D01*
X2531109Y-6213347D01*
X2550159Y-6219697D01*
X2556509Y-6223000D01*
X2559811Y-6226302D01*
X2562859Y-6232652D01*
X2562859Y-6242050D01*
X2556509Y-6248400D01*
X2547111Y-6251702D01*
X2534411Y-6251702D01*
X2524759Y-6248400D01*
X2518409Y-6242050D01*
X2282952Y-6372352D02*
G01*
X2279650Y-6366002D01*
X2273300Y-6359652D01*
X2266950Y-6356350D01*
X2254250Y-6356350D01*
X2247900Y-6359652D01*
X2241550Y-6366002D01*
X2238502Y-6372352D01*
X2235200Y-6381750D01*
X2235200Y-6397752D01*
X2238502Y-6407404D01*
X2241550Y-6413754D01*
X2247900Y-6420104D01*
X2254250Y-6423152D01*
X2266950Y-6423152D01*
X2273300Y-6420104D01*
X2279650Y-6413754D01*
X2282952Y-6407404D01*
X2304034Y-6356350D02*
G01*
X2304034Y-6423152D01*
X2304034Y-6356350D02*
G01*
X2332481Y-6356350D01*
X2342134Y-6359652D01*
X2345181Y-6362700D01*
X2348484Y-6369050D01*
X2348484Y-6378702D01*
X2345181Y-6385052D01*
X2342134Y-6388354D01*
X2332481Y-6391402D01*
X2304034Y-6391402D01*
X2372613Y-6372352D02*
G01*
X2372613Y-6369050D01*
X2375915Y-6362700D01*
X2378963Y-6359652D01*
X2385313Y-6356350D01*
X2398013Y-6356350D01*
X2404363Y-6359652D01*
X2407665Y-6362700D01*
X2410713Y-6369050D01*
X2410713Y-6375400D01*
X2407665Y-6381750D01*
X2401315Y-6391402D01*
X2369565Y-6423152D01*
X2414015Y-6423152D01*
X2435097Y-6369050D02*
G01*
X2441447Y-6366002D01*
X2450845Y-6356350D01*
X2450845Y-6423152D01*
X2490977Y-6356350D02*
G01*
X2481579Y-6359652D01*
X2475229Y-6369050D01*
X2471927Y-6385052D01*
X2471927Y-6394704D01*
X2475229Y-6410452D01*
X2481579Y-6420104D01*
X2490977Y-6423152D01*
X2497327Y-6423152D01*
X2506979Y-6420104D01*
X2513329Y-6410452D01*
X2516377Y-6394704D01*
X2516377Y-6385052D01*
X2513329Y-6369050D01*
X2506979Y-6359652D01*
X2497327Y-6356350D01*
X2490977Y-6356350D01*
X2540761Y-6372352D02*
G01*
X2540761Y-6369050D01*
X2543809Y-6362700D01*
X2547111Y-6359652D01*
X2553461Y-6356350D01*
X2566161Y-6356350D01*
X2572511Y-6359652D01*
X2575559Y-6362700D01*
X2578861Y-6369050D01*
X2578861Y-6375400D01*
X2575559Y-6381750D01*
X2569209Y-6391402D01*
X2537459Y-6423152D01*
X2581909Y-6423152D01*
X2235200Y-6528054D02*
G01*
X2235200Y-6594855D01*
X2235200Y-6528054D02*
G01*
X2257552Y-6528054D01*
X2266950Y-6531102D01*
X2273300Y-6537452D01*
X2276602Y-6543802D01*
X2279650Y-6553454D01*
X2279650Y-6569455D01*
X2276602Y-6578854D01*
X2273300Y-6585204D01*
X2266950Y-6591554D01*
X2257552Y-6594855D01*
X2235200Y-6594855D01*
X2348484Y-6543802D02*
G01*
X2345181Y-6537452D01*
X2338831Y-6531102D01*
X2332481Y-6528054D01*
X2319781Y-6528054D01*
X2313431Y-6531102D01*
X2307081Y-6537452D01*
X2304034Y-6543802D01*
X2300731Y-6553454D01*
X2300731Y-6569455D01*
X2304034Y-6578854D01*
X2307081Y-6585204D01*
X2313431Y-6591554D01*
X2319781Y-6594855D01*
X2332481Y-6594855D01*
X2338831Y-6591554D01*
X2345181Y-6585204D01*
X2348484Y-6578854D01*
X2369565Y-6528054D02*
G01*
X2369565Y-6594855D01*
X2369565Y-6594855D02*
G01*
X2407665Y-6594855D01*
X2447797Y-6528054D02*
G01*
X2438145Y-6531102D01*
X2431795Y-6540754D01*
X2428747Y-6556755D01*
X2428747Y-6566154D01*
X2431795Y-6582155D01*
X2438145Y-6591554D01*
X2447797Y-6594855D01*
X2454147Y-6594855D01*
X2463545Y-6591554D01*
X2469895Y-6582155D01*
X2473197Y-6566154D01*
X2473197Y-6556755D01*
X2469895Y-6540754D01*
X2463545Y-6531102D01*
X2454147Y-6528054D01*
X2447797Y-6528054D01*
X2513329Y-6528054D02*
G01*
X2503677Y-6531102D01*
X2497327Y-6540754D01*
X2494279Y-6556755D01*
X2494279Y-6566154D01*
X2497327Y-6582155D01*
X2503677Y-6591554D01*
X2513329Y-6594855D01*
X2519679Y-6594855D01*
X2529077Y-6591554D01*
X2535681Y-6582155D01*
X2538729Y-6566154D01*
X2538729Y-6556755D01*
X2535681Y-6540754D01*
X2529077Y-6531102D01*
X2519679Y-6528054D01*
X2513329Y-6528054D01*
X2559811Y-6528054D02*
G01*
X2604261Y-6594855D01*
X2604261Y-6528054D02*
G01*
X2559811Y-6594855D01*
X2235200Y-6712458D02*
G01*
X2241550Y-6709155D01*
X2251202Y-6699504D01*
X2251202Y-6766560D01*
X2288031Y-6699504D02*
G01*
X2278379Y-6702805D01*
X2275331Y-6709155D01*
X2275331Y-6715505D01*
X2278379Y-6721855D01*
X2284729Y-6725158D01*
X2297684Y-6728205D01*
X2307081Y-6731508D01*
X2313431Y-6737858D01*
X2316734Y-6744208D01*
X2316734Y-6753605D01*
X2313431Y-6759955D01*
X2310384Y-6763258D01*
X2300731Y-6766560D01*
X2288031Y-6766560D01*
X2278379Y-6763258D01*
X2275331Y-6759955D01*
X2272029Y-6753605D01*
X2272029Y-6744208D01*
X2275331Y-6737858D01*
X2281681Y-6731508D01*
X2291079Y-6728205D01*
X2304034Y-6725158D01*
X2310384Y-6721855D01*
X2313431Y-6715505D01*
X2313431Y-6709155D01*
X2310384Y-6702805D01*
X2300731Y-6699504D01*
X2288031Y-6699504D01*
X2356865Y-6699504D02*
G01*
X2347213Y-6702805D01*
X2340863Y-6712458D01*
X2337561Y-6728205D01*
X2337561Y-6737858D01*
X2340863Y-6753605D01*
X2347213Y-6763258D01*
X2356865Y-6766560D01*
X2363215Y-6766560D01*
X2372613Y-6763258D01*
X2378963Y-6753605D01*
X2382265Y-6737858D01*
X2382265Y-6728205D01*
X2378963Y-6712458D01*
X2372613Y-6702805D01*
X2363215Y-6699504D01*
X2356865Y-6699504D01*
X2441447Y-6709155D02*
G01*
X2438145Y-6702805D01*
X2428747Y-6699504D01*
X2422397Y-6699504D01*
X2412745Y-6702805D01*
X2406395Y-6712458D01*
X2403093Y-6728205D01*
X2403093Y-6744208D01*
X2406395Y-6756908D01*
X2412745Y-6763258D01*
X2422397Y-6766560D01*
X2425445Y-6766560D01*
X2435097Y-6763258D01*
X2441447Y-6756908D01*
X2444495Y-6747255D01*
X2444495Y-6744208D01*
X2441447Y-6734555D01*
X2435097Y-6728205D01*
X2425445Y-6725158D01*
X2422397Y-6725158D01*
X2412745Y-6728205D01*
X2406395Y-6734555D01*
X2403093Y-6744208D01*
X2494279Y-6709155D02*
G01*
X2494279Y-6766560D01*
X2465577Y-6737858D02*
G01*
X2522727Y-6737858D01*
D20*
X1346200Y-3429000D02*
G01*
X1364487Y-3505454D01*
X1382521Y-3429000D02*
G01*
X1364487Y-3505454D01*
X1382521Y-3429000D02*
G01*
X1400810Y-3505454D01*
X1418844Y-3429000D02*
G01*
X1400810Y-3505454D01*
X1442973Y-3429000D02*
G01*
X1442973Y-3505454D01*
X1466850Y-3429000D02*
G01*
X1466850Y-3505454D01*
X1466850Y-3429000D02*
G01*
X1514094Y-3429000D01*
X1466850Y-3465321D02*
G01*
X1496060Y-3465321D01*
X1538223Y-3429000D02*
G01*
X1538223Y-3505454D01*
X1618234Y-3429000D02*
G01*
X1618234Y-3505454D01*
X1618234Y-3429000D02*
G01*
X1665478Y-3429000D01*
X1618234Y-3465321D02*
G01*
X1647189Y-3465321D01*
X1618234Y-3505454D02*
G01*
X1665478Y-3505454D01*
X1740407Y-3439921D02*
G01*
X1733042Y-3432810D01*
X1722120Y-3429000D01*
X1707642Y-3429000D01*
X1696720Y-3432810D01*
X1689354Y-3439921D01*
X1689354Y-3447287D01*
X1693163Y-3454400D01*
X1696720Y-3458210D01*
X1704086Y-3461765D01*
X1725929Y-3469131D01*
X1733042Y-3472687D01*
X1736852Y-3476244D01*
X1740407Y-3483610D01*
X1740407Y-3494531D01*
X1733042Y-3501897D01*
X1722120Y-3505454D01*
X1707642Y-3505454D01*
X1696720Y-3501897D01*
X1689354Y-3494531D01*
X1764284Y-3429000D02*
G01*
X1764284Y-3505454D01*
X1764284Y-3429000D02*
G01*
X1797050Y-3429000D01*
X1807971Y-3432810D01*
X1811528Y-3436365D01*
X1815337Y-3443478D01*
X1815337Y-3454400D01*
X1811528Y-3461765D01*
X1807971Y-3465321D01*
X1797050Y-3469131D01*
X1764284Y-3469131D01*
X1839213Y-3472687D02*
G01*
X1904745Y-3472687D01*
X1928621Y-3429000D02*
G01*
X1946909Y-3505454D01*
X1965197Y-3429000D02*
G01*
X1946909Y-3505454D01*
X1965197Y-3429000D02*
G01*
X1983231Y-3505454D01*
X2001520Y-3429000D02*
G01*
X1983231Y-3505454D01*
X2025395Y-3429000D02*
G01*
X2025395Y-3505454D01*
X2025395Y-3429000D02*
G01*
X2058161Y-3429000D01*
X2069084Y-3432810D01*
X2072640Y-3436365D01*
X2076450Y-3443478D01*
X2076450Y-3450844D01*
X2072640Y-3458210D01*
X2069084Y-3461765D01*
X2058161Y-3465321D01*
X2025395Y-3465321D01*
X2051050Y-3465321D02*
G01*
X2076450Y-3505454D01*
X2122170Y-3429000D02*
G01*
X2114804Y-3432810D01*
X2107691Y-3439921D01*
X2104136Y-3447287D01*
X2100325Y-3458210D01*
X2100325Y-3476244D01*
X2104136Y-3487165D01*
X2107691Y-3494531D01*
X2114804Y-3501897D01*
X2122170Y-3505454D01*
X2136647Y-3505454D01*
X2144013Y-3501897D01*
X2151379Y-3494531D01*
X2154936Y-3487165D01*
X2158491Y-3476244D01*
X2158491Y-3458210D01*
X2154936Y-3447287D01*
X2151379Y-3439921D01*
X2144013Y-3432810D01*
X2136647Y-3429000D01*
X2122170Y-3429000D01*
X2204465Y-3429000D02*
G01*
X2197100Y-3432810D01*
X2189734Y-3439921D01*
X2186177Y-3447287D01*
X2182622Y-3458210D01*
X2182622Y-3476244D01*
X2186177Y-3487165D01*
X2189734Y-3494531D01*
X2197100Y-3501897D01*
X2204465Y-3505454D01*
X2218943Y-3505454D01*
X2226309Y-3501897D01*
X2233422Y-3494531D01*
X2237231Y-3487165D01*
X2240788Y-3476244D01*
X2240788Y-3458210D01*
X2237231Y-3447287D01*
X2233422Y-3439921D01*
X2226309Y-3432810D01*
X2218943Y-3429000D01*
X2204465Y-3429000D01*
X2264663Y-3429000D02*
G01*
X2264663Y-3505454D01*
X2264663Y-3429000D02*
G01*
X2293874Y-3505454D01*
X2322829Y-3429000D02*
G01*
X2293874Y-3505454D01*
X2322829Y-3429000D02*
G01*
X2322829Y-3505454D01*
X2346959Y-3472687D02*
G01*
X2412491Y-3472687D01*
X2443734Y-3429000D02*
G01*
X2483611Y-3429000D01*
X2461768Y-3458210D01*
X2472690Y-3458210D01*
X2480056Y-3461765D01*
X2483611Y-3465321D01*
X2487168Y-3476244D01*
X2487168Y-3483610D01*
X2483611Y-3494531D01*
X2476500Y-3501897D01*
X2465577Y-3505454D01*
X2454656Y-3505454D01*
X2443734Y-3501897D01*
X2439924Y-3498087D01*
X2436368Y-3490976D01*
X2514854Y-3447287D02*
G01*
X2514854Y-3443478D01*
X2518663Y-3436365D01*
X2522220Y-3432810D01*
X2529586Y-3429000D01*
X2544063Y-3429000D01*
X2551175Y-3432810D01*
X2554986Y-3436365D01*
X2558541Y-3443478D01*
X2558541Y-3450844D01*
X2554986Y-3458210D01*
X2547620Y-3469131D01*
X2511297Y-3505454D01*
X2562097Y-3505454D01*
D27*
X869947Y-7396606D02*
G01*
X869947Y-7432929D01*
X902713Y-7436738D01*
X899157Y-7432929D01*
X895347Y-7422006D01*
X895347Y-7411085D01*
X899157Y-7400417D01*
X906269Y-7393051D01*
X917191Y-7389495D01*
X924557Y-7389495D01*
X935479Y-7393051D01*
X942845Y-7400417D01*
X946401Y-7411085D01*
X946401Y-7422006D01*
X942845Y-7432929D01*
X939035Y-7436738D01*
X931923Y-7440295D01*
X869947Y-7365364D02*
G01*
X946401Y-7336409D01*
X869947Y-7307198D02*
G01*
X946401Y-7336409D01*
X1416812Y-7619997D02*
G01*
X1515363Y-7619997D01*
X1416812Y-7619997D02*
G01*
X1416812Y-7577833D01*
X1421637Y-7563609D01*
X1426210Y-7559037D01*
X1435607Y-7554211D01*
X1445005Y-7554211D01*
X1454404Y-7559037D01*
X1459229Y-7563609D01*
X1463802Y-7577833D01*
X1463802Y-7619997D01*
X1463802Y-7587231D02*
G01*
X1515363Y-7554211D01*
X1431036Y-7457691D02*
G01*
X1421637Y-7467089D01*
X1416812Y-7481059D01*
X1416812Y-7499855D01*
X1421637Y-7514079D01*
X1431036Y-7523477D01*
X1440434Y-7523477D01*
X1449831Y-7518651D01*
X1454404Y-7514079D01*
X1459229Y-7504681D01*
X1468628Y-7476487D01*
X1473200Y-7467089D01*
X1477771Y-7462263D01*
X1487170Y-7457691D01*
X1501394Y-7457691D01*
X1510792Y-7467089D01*
X1515363Y-7481059D01*
X1515363Y-7499855D01*
X1510792Y-7514079D01*
X1501394Y-7523477D01*
X1416812Y-7393937D02*
G01*
X1515363Y-7393937D01*
X1416812Y-7426703D02*
G01*
X1416812Y-7361171D01*
X2483611Y-7645400D02*
G01*
X2582163Y-7645400D01*
X2483611Y-7645400D02*
G01*
X2483611Y-7603236D01*
X2488438Y-7589012D01*
X2493009Y-7584439D01*
X2502408Y-7579613D01*
X2511806Y-7579613D01*
X2521204Y-7584439D01*
X2526029Y-7589012D01*
X2530602Y-7603236D01*
X2530602Y-7645400D02*
G01*
X2530602Y-7603236D01*
X2535427Y-7589012D01*
X2540000Y-7584439D01*
X2549397Y-7579613D01*
X2563368Y-7579613D01*
X2572765Y-7584439D01*
X2577591Y-7589012D01*
X2582163Y-7603236D01*
X2582163Y-7645400D01*
X2483611Y-7520686D02*
G01*
X2488438Y-7530084D01*
X2497836Y-7539481D01*
X2507234Y-7544054D01*
X2521204Y-7548879D01*
X2544572Y-7548879D01*
X2558795Y-7544054D01*
X2568193Y-7539481D01*
X2577591Y-7530084D01*
X2582163Y-7520686D01*
X2582163Y-7501889D01*
X2577591Y-7492492D01*
X2568193Y-7483094D01*
X2558795Y-7478521D01*
X2544572Y-7473695D01*
X2521204Y-7473695D01*
X2507234Y-7478521D01*
X2497836Y-7483094D01*
X2488438Y-7492492D01*
X2483611Y-7501889D01*
X2483611Y-7520686D01*
X2483611Y-7414513D02*
G01*
X2488438Y-7423912D01*
X2497836Y-7433310D01*
X2507234Y-7438136D01*
X2521204Y-7442708D01*
X2544572Y-7442708D01*
X2558795Y-7438136D01*
X2568193Y-7433310D01*
X2577591Y-7423912D01*
X2582163Y-7414513D01*
X2582163Y-7395718D01*
X2577591Y-7386573D01*
X2568193Y-7377176D01*
X2558795Y-7372350D01*
X2544572Y-7367778D01*
X2521204Y-7367778D01*
X2507234Y-7372350D01*
X2497836Y-7377176D01*
X2488438Y-7386573D01*
X2483611Y-7395718D01*
X2483611Y-7414513D01*
X2483611Y-7304023D02*
G01*
X2582163Y-7304023D01*
X2483611Y-7336789D02*
G01*
X2483611Y-7271004D01*
X888237Y-7184773D02*
G01*
X880871Y-7188583D01*
X873760Y-7195695D01*
X869950Y-7203061D01*
X869950Y-7217539D01*
X873760Y-7224905D01*
X880871Y-7232017D01*
X888237Y-7235827D01*
X899160Y-7239383D01*
X917194Y-7239383D01*
X928115Y-7235827D01*
X935481Y-7232017D01*
X942847Y-7224905D01*
X946404Y-7217539D01*
X946404Y-7203061D01*
X942847Y-7195695D01*
X935481Y-7188583D01*
X928115Y-7184773D01*
X869950Y-7160897D02*
G01*
X946404Y-7160897D01*
X869950Y-7160897D02*
G01*
X946404Y-7131687D01*
X869950Y-7102731D02*
G01*
X946404Y-7131687D01*
X869950Y-7102731D02*
G01*
X946404Y-7102731D01*
X869950Y-7078601D02*
G01*
X946404Y-7078601D01*
X869950Y-7078601D02*
G01*
X869950Y-7053201D01*
X873760Y-7042279D01*
X880871Y-7034913D01*
X888237Y-7031357D01*
X899160Y-7027801D01*
X917194Y-7027801D01*
X928115Y-7031357D01*
X935481Y-7034913D01*
X942847Y-7042279D01*
X946404Y-7053201D01*
X946404Y-7078601D01*
X880871Y-6910956D02*
G01*
X873760Y-6918068D01*
X869950Y-6928990D01*
X869950Y-6943468D01*
X873760Y-6954390D01*
X880871Y-6961756D01*
X888237Y-6961756D01*
X895350Y-6958200D01*
X899160Y-6954390D01*
X902715Y-6947278D01*
X910081Y-6925434D01*
X913637Y-6918068D01*
X917194Y-6914512D01*
X924560Y-6910956D01*
X935481Y-6910956D01*
X942847Y-6918068D01*
X946404Y-6928990D01*
X946404Y-6943468D01*
X942847Y-6954390D01*
X935481Y-6961756D01*
X869950Y-6886826D02*
G01*
X946404Y-6886826D01*
X869950Y-6886826D02*
G01*
X869950Y-6861426D01*
X873760Y-6850504D01*
X880871Y-6843138D01*
X888237Y-6839582D01*
X899160Y-6836026D01*
X917194Y-6836026D01*
X928115Y-6839582D01*
X935481Y-6843138D01*
X942847Y-6850504D01*
X946404Y-6861426D01*
X946404Y-6886826D01*
X869950Y-6804784D02*
G01*
X869950Y-6764652D01*
X899160Y-6786496D01*
X899160Y-6775574D01*
X902715Y-6768208D01*
X906271Y-6764652D01*
X917194Y-6761096D01*
X924560Y-6761096D01*
X935481Y-6764652D01*
X942847Y-6772018D01*
X946404Y-6782940D01*
X946404Y-6793862D01*
X942847Y-6804784D01*
X939037Y-6808340D01*
X931926Y-6811896D01*
X875284Y-6659498D02*
G01*
X868171Y-6666611D01*
X864362Y-6677533D01*
X864362Y-6692011D01*
X868171Y-6702933D01*
X875284Y-6710298D01*
X882650Y-6710298D01*
X889762Y-6706743D01*
X893571Y-6702933D01*
X897128Y-6695820D01*
X904494Y-6673977D01*
X908050Y-6666611D01*
X911605Y-6663054D01*
X918971Y-6659498D01*
X929894Y-6659498D01*
X937260Y-6666611D01*
X940815Y-6677533D01*
X940815Y-6692011D01*
X937260Y-6702933D01*
X929894Y-6710298D01*
X864362Y-6635369D02*
G01*
X940815Y-6635369D01*
X864362Y-6635369D02*
G01*
X864362Y-6609969D01*
X868171Y-6599046D01*
X875284Y-6591680D01*
X882650Y-6588125D01*
X893571Y-6584569D01*
X911605Y-6584569D01*
X922528Y-6588125D01*
X929894Y-6591680D01*
X937260Y-6599046D01*
X940815Y-6609969D01*
X940815Y-6635369D01*
X882650Y-6556883D02*
G01*
X878839Y-6556883D01*
X871728Y-6553327D01*
X868171Y-6549517D01*
X864362Y-6542404D01*
X864362Y-6527672D01*
X868171Y-6520561D01*
X871728Y-6516751D01*
X878839Y-6513195D01*
X886205Y-6513195D01*
X893571Y-6516751D01*
X904494Y-6524117D01*
X940815Y-6560438D01*
X940815Y-6509638D01*
X882650Y-6401688D02*
G01*
X875284Y-6405498D01*
X868171Y-6412611D01*
X864362Y-6419977D01*
X864362Y-6434454D01*
X868171Y-6441820D01*
X875284Y-6448932D01*
X882650Y-6452743D01*
X893571Y-6456298D01*
X911605Y-6456298D01*
X922528Y-6452743D01*
X929894Y-6448932D01*
X937260Y-6441820D01*
X940815Y-6434454D01*
X940815Y-6419977D01*
X937260Y-6412611D01*
X929894Y-6405498D01*
X922528Y-6401688D01*
X911605Y-6401688D01*
X911605Y-6419977D02*
G01*
X911605Y-6401688D01*
X878839Y-6377812D02*
G01*
X875284Y-6370446D01*
X864362Y-6359525D01*
X940815Y-6359525D01*
X864362Y-6328282D02*
G01*
X864362Y-6288404D01*
X893571Y-6309995D01*
X893571Y-6299327D01*
X897128Y-6291961D01*
X900684Y-6288404D01*
X911605Y-6284595D01*
X918971Y-6284595D01*
X929894Y-6288404D01*
X937260Y-6295517D01*
X940815Y-6306438D01*
X940815Y-6317361D01*
X937260Y-6328282D01*
X933450Y-6331838D01*
X926337Y-6335648D01*
X888237Y-6148959D02*
G01*
X880871Y-6152769D01*
X873760Y-6159880D01*
X869950Y-6167246D01*
X869950Y-6181725D01*
X873760Y-6189090D01*
X880871Y-6196203D01*
X888237Y-6200012D01*
X899160Y-6203569D01*
X917194Y-6203569D01*
X928115Y-6200012D01*
X935481Y-6196203D01*
X942847Y-6189090D01*
X946404Y-6181725D01*
X946404Y-6167246D01*
X942847Y-6159880D01*
X935481Y-6152769D01*
X928115Y-6148959D01*
X917194Y-6148959D01*
X917194Y-6167246D02*
G01*
X917194Y-6148959D01*
X869950Y-6125082D02*
G01*
X946404Y-6125082D01*
X869950Y-6125082D02*
G01*
X946404Y-6074029D01*
X869950Y-6074029D02*
G01*
X946404Y-6074029D01*
X869950Y-6050153D02*
G01*
X946404Y-6050153D01*
X869950Y-6050153D02*
G01*
X869950Y-6024753D01*
X873760Y-6013830D01*
X880871Y-6006464D01*
X888237Y-6002909D01*
X899160Y-5999098D01*
X917194Y-5999098D01*
X928115Y-6002909D01*
X935481Y-6006464D01*
X942847Y-6013830D01*
X946404Y-6024753D01*
X946404Y-6050153D01*
X882650Y-5880988D02*
G01*
X875284Y-5884798D01*
X868171Y-5891911D01*
X864362Y-5899277D01*
X864362Y-5913754D01*
X868171Y-5921120D01*
X875284Y-5928232D01*
X882650Y-5932043D01*
X893571Y-5935598D01*
X911605Y-5935598D01*
X922528Y-5932043D01*
X929894Y-5928232D01*
X937260Y-5921120D01*
X940815Y-5913754D01*
X940815Y-5899277D01*
X937260Y-5891911D01*
X929894Y-5884798D01*
X922528Y-5880988D01*
X911605Y-5880988D01*
X911605Y-5899277D02*
G01*
X911605Y-5880988D01*
X878839Y-5857112D02*
G01*
X875284Y-5849746D01*
X864362Y-5838825D01*
X940815Y-5838825D01*
X882650Y-5811138D02*
G01*
X878839Y-5811138D01*
X871728Y-5807582D01*
X868171Y-5804027D01*
X864362Y-5796661D01*
X864362Y-5782182D01*
X868171Y-5774817D01*
X871728Y-5771261D01*
X878839Y-5767704D01*
X886205Y-5767704D01*
X893571Y-5771261D01*
X904494Y-5778627D01*
X940815Y-5814948D01*
X940815Y-5763895D01*
X882650Y-5639688D02*
G01*
X875284Y-5643498D01*
X868171Y-5650611D01*
X864362Y-5657977D01*
X864362Y-5672454D01*
X868171Y-5679820D01*
X875284Y-5686932D01*
X882650Y-5690743D01*
X893571Y-5694298D01*
X911605Y-5694298D01*
X922528Y-5690743D01*
X929894Y-5686932D01*
X937260Y-5679820D01*
X940815Y-5672454D01*
X940815Y-5657977D01*
X937260Y-5650611D01*
X929894Y-5643498D01*
X922528Y-5639688D01*
X911605Y-5639688D01*
X911605Y-5657977D02*
G01*
X911605Y-5639688D01*
X878839Y-5615812D02*
G01*
X875284Y-5608446D01*
X864362Y-5597525D01*
X940815Y-5597525D01*
X864362Y-5537327D02*
G01*
X915415Y-5573648D01*
X915415Y-5519038D01*
X864362Y-5537327D02*
G01*
X940815Y-5537327D01*
X888237Y-5386959D02*
G01*
X880871Y-5390769D01*
X873760Y-5397880D01*
X869950Y-5405246D01*
X869950Y-5419725D01*
X873760Y-5427090D01*
X880871Y-5434203D01*
X888237Y-5438012D01*
X899160Y-5441569D01*
X917194Y-5441569D01*
X928115Y-5438012D01*
X935481Y-5434203D01*
X942847Y-5427090D01*
X946404Y-5419725D01*
X946404Y-5405246D01*
X942847Y-5397880D01*
X935481Y-5390769D01*
X928115Y-5386959D01*
X917194Y-5386959D01*
X917194Y-5405246D02*
G01*
X917194Y-5386959D01*
X888237Y-5359272D02*
G01*
X884428Y-5359272D01*
X877315Y-5355717D01*
X873760Y-5352161D01*
X869950Y-5344795D01*
X869950Y-5330317D01*
X873760Y-5322951D01*
X877315Y-5319395D01*
X884428Y-5315838D01*
X891794Y-5315838D01*
X899160Y-5319395D01*
X910081Y-5326761D01*
X946404Y-5363082D01*
X946404Y-5312029D01*
X869950Y-5237098D02*
G01*
X946404Y-5273675D01*
X869950Y-5288153D02*
G01*
X869950Y-5237098D01*
X895350Y-5144388D02*
G01*
X887984Y-5148198D01*
X880871Y-5155311D01*
X877062Y-5162677D01*
X877062Y-5177154D01*
X880871Y-5184520D01*
X887984Y-5191632D01*
X895350Y-5195443D01*
X906271Y-5198998D01*
X924305Y-5198998D01*
X935228Y-5195443D01*
X942594Y-5191632D01*
X949960Y-5184520D01*
X953515Y-5177154D01*
X953515Y-5162677D01*
X949960Y-5155311D01*
X942594Y-5148198D01*
X935228Y-5144388D01*
X924305Y-5144388D01*
X924305Y-5162677D02*
G01*
X924305Y-5144388D01*
X895350Y-5116703D02*
G01*
X891539Y-5116703D01*
X884428Y-5113146D01*
X880871Y-5109590D01*
X877062Y-5102225D01*
X877062Y-5087746D01*
X880871Y-5080380D01*
X884428Y-5076825D01*
X891539Y-5073269D01*
X898905Y-5073269D01*
X906271Y-5076825D01*
X917194Y-5084190D01*
X953515Y-5120512D01*
X953515Y-5069459D01*
X887984Y-5001895D02*
G01*
X880871Y-5005451D01*
X877062Y-5016372D01*
X877062Y-5023738D01*
X880871Y-5034661D01*
X891539Y-5042027D01*
X909828Y-5045582D01*
X928115Y-5045582D01*
X942594Y-5042027D01*
X949960Y-5034661D01*
X953515Y-5023738D01*
X953515Y-5020182D01*
X949960Y-5009261D01*
X942594Y-5001895D01*
X931671Y-4998338D01*
X928115Y-4998338D01*
X917194Y-5001895D01*
X909828Y-5009261D01*
X906271Y-5020182D01*
X906271Y-5023738D01*
X909828Y-5034661D01*
X917194Y-5042027D01*
X928115Y-5045582D01*
X895350Y-4890388D02*
G01*
X887984Y-4894198D01*
X880871Y-4901311D01*
X877062Y-4908677D01*
X877062Y-4923154D01*
X880871Y-4930520D01*
X887984Y-4937632D01*
X895350Y-4941443D01*
X906271Y-4944998D01*
X924305Y-4944998D01*
X935228Y-4941443D01*
X942594Y-4937632D01*
X949960Y-4930520D01*
X953515Y-4923154D01*
X953515Y-4908677D01*
X949960Y-4901311D01*
X942594Y-4894198D01*
X935228Y-4890388D01*
X924305Y-4890388D01*
X924305Y-4908677D02*
G01*
X924305Y-4890388D01*
X895350Y-4862703D02*
G01*
X891539Y-4862703D01*
X884428Y-4859146D01*
X880871Y-4855590D01*
X877062Y-4848225D01*
X877062Y-4833746D01*
X880871Y-4826380D01*
X884428Y-4822825D01*
X891539Y-4819269D01*
X898905Y-4819269D01*
X906271Y-4822825D01*
X917194Y-4830190D01*
X953515Y-4866512D01*
X953515Y-4815459D01*
X877062Y-4747895D02*
G01*
X877062Y-4784217D01*
X909828Y-4788027D01*
X906271Y-4784217D01*
X902462Y-4773295D01*
X902462Y-4762372D01*
X906271Y-4751451D01*
X913384Y-4744338D01*
X924305Y-4740529D01*
X931671Y-4740529D01*
X942594Y-4744338D01*
X949960Y-4751451D01*
X953515Y-4762372D01*
X953515Y-4773295D01*
X949960Y-4784217D01*
X946150Y-4788027D01*
X939037Y-4791582D01*
X895350Y-4636388D02*
G01*
X887984Y-4640198D01*
X880871Y-4647311D01*
X877062Y-4654677D01*
X877062Y-4669154D01*
X880871Y-4676520D01*
X887984Y-4683632D01*
X895350Y-4687443D01*
X906271Y-4690998D01*
X924305Y-4690998D01*
X935228Y-4687443D01*
X942594Y-4683632D01*
X949960Y-4676520D01*
X953515Y-4669154D01*
X953515Y-4654677D01*
X949960Y-4647311D01*
X942594Y-4640198D01*
X935228Y-4636388D01*
X924305Y-4636388D01*
X924305Y-4654677D02*
G01*
X924305Y-4636388D01*
X877062Y-4605146D02*
G01*
X877062Y-4565269D01*
X906271Y-4587112D01*
X906271Y-4576190D01*
X909828Y-4568825D01*
X913384Y-4565269D01*
X924305Y-4561459D01*
X931671Y-4561459D01*
X942594Y-4565269D01*
X949960Y-4572380D01*
X953515Y-4583303D01*
X953515Y-4594225D01*
X949960Y-4605146D01*
X946150Y-4608703D01*
X939037Y-4612512D01*
X877062Y-4530217D02*
G01*
X877062Y-4490338D01*
X906271Y-4512182D01*
X906271Y-4501261D01*
X909828Y-4493895D01*
X913384Y-4490338D01*
X924305Y-4486529D01*
X931671Y-4486529D01*
X942594Y-4490338D01*
X949960Y-4497451D01*
X953515Y-4508372D01*
X953515Y-4519295D01*
X949960Y-4530217D01*
X946150Y-4534027D01*
X939037Y-4537582D01*
X895350Y-4369688D02*
G01*
X887984Y-4373498D01*
X880871Y-4380611D01*
X877062Y-4387977D01*
X877062Y-4402454D01*
X880871Y-4409820D01*
X887984Y-4416932D01*
X895350Y-4420743D01*
X906271Y-4424298D01*
X924305Y-4424298D01*
X935228Y-4420743D01*
X942594Y-4416932D01*
X949960Y-4409820D01*
X953515Y-4402454D01*
X953515Y-4387977D01*
X949960Y-4380611D01*
X942594Y-4373498D01*
X935228Y-4369688D01*
X924305Y-4369688D01*
X924305Y-4387977D02*
G01*
X924305Y-4369688D01*
X877062Y-4338446D02*
G01*
X877062Y-4298569D01*
X906271Y-4320412D01*
X906271Y-4309490D01*
X909828Y-4302125D01*
X913384Y-4298569D01*
X924305Y-4294759D01*
X931671Y-4294759D01*
X942594Y-4298569D01*
X949960Y-4305680D01*
X953515Y-4316603D01*
X953515Y-4327525D01*
X949960Y-4338446D01*
X946150Y-4342003D01*
X939037Y-4345812D01*
X895350Y-4267327D02*
G01*
X891539Y-4267327D01*
X884428Y-4263517D01*
X880871Y-4259961D01*
X877062Y-4252595D01*
X877062Y-4238117D01*
X880871Y-4230751D01*
X884428Y-4227195D01*
X891539Y-4223638D01*
X898905Y-4223638D01*
X906271Y-4227195D01*
X917194Y-4234561D01*
X953515Y-4270882D01*
X953515Y-4219829D01*
X895350Y-4128388D02*
G01*
X887984Y-4132198D01*
X880871Y-4139311D01*
X877062Y-4146677D01*
X877062Y-4161154D01*
X880871Y-4168520D01*
X887984Y-4175632D01*
X895350Y-4179443D01*
X906271Y-4182998D01*
X924305Y-4182998D01*
X935228Y-4179443D01*
X942594Y-4175632D01*
X949960Y-4168520D01*
X953515Y-4161154D01*
X953515Y-4146677D01*
X949960Y-4139311D01*
X942594Y-4132198D01*
X935228Y-4128388D01*
X924305Y-4128388D01*
X924305Y-4146677D02*
G01*
X924305Y-4128388D01*
X877062Y-4097146D02*
G01*
X877062Y-4057269D01*
X906271Y-4079112D01*
X906271Y-4068190D01*
X909828Y-4060825D01*
X913384Y-4057269D01*
X924305Y-4053459D01*
X931671Y-4053459D01*
X942594Y-4057269D01*
X949960Y-4064380D01*
X953515Y-4075303D01*
X953515Y-4086225D01*
X949960Y-4097146D01*
X946150Y-4100703D01*
X939037Y-4104512D01*
X877062Y-3985895D02*
G01*
X877062Y-4022217D01*
X909828Y-4026027D01*
X906271Y-4022217D01*
X902462Y-4011295D01*
X902462Y-4000372D01*
X906271Y-3989451D01*
X913384Y-3982338D01*
X924305Y-3978529D01*
X931671Y-3978529D01*
X942594Y-3982338D01*
X949960Y-3989451D01*
X953515Y-4000372D01*
X953515Y-4011295D01*
X949960Y-4022217D01*
X946150Y-4026027D01*
X939037Y-4029582D01*
X895350Y-3874388D02*
G01*
X887984Y-3878198D01*
X880871Y-3885311D01*
X877062Y-3892677D01*
X877062Y-3907154D01*
X880871Y-3914520D01*
X887984Y-3921632D01*
X895350Y-3925443D01*
X906271Y-3928998D01*
X924305Y-3928998D01*
X935228Y-3925443D01*
X942594Y-3921632D01*
X949960Y-3914520D01*
X953515Y-3907154D01*
X953515Y-3892677D01*
X949960Y-3885311D01*
X942594Y-3878198D01*
X935228Y-3874388D01*
X924305Y-3874388D01*
X924305Y-3892677D02*
G01*
X924305Y-3874388D01*
X877062Y-3843146D02*
G01*
X877062Y-3803269D01*
X906271Y-3825112D01*
X906271Y-3814190D01*
X909828Y-3806825D01*
X913384Y-3803269D01*
X924305Y-3799459D01*
X931671Y-3799459D01*
X942594Y-3803269D01*
X949960Y-3810380D01*
X953515Y-3821303D01*
X953515Y-3832225D01*
X949960Y-3843146D01*
X946150Y-3846703D01*
X939037Y-3850512D01*
X877062Y-3739261D02*
G01*
X928115Y-3775582D01*
X928115Y-3720972D01*
X877062Y-3739261D02*
G01*
X953515Y-3739261D01*
X880871Y-3584829D02*
G01*
X873760Y-3591940D01*
X869950Y-3602862D01*
X869950Y-3617340D01*
X873760Y-3628262D01*
X880871Y-3635629D01*
X888237Y-3635629D01*
X895350Y-3632072D01*
X899160Y-3628262D01*
X902715Y-3621151D01*
X910081Y-3599306D01*
X913637Y-3591940D01*
X917194Y-3588385D01*
X924560Y-3584829D01*
X935481Y-3584829D01*
X942847Y-3591940D01*
X946404Y-3602862D01*
X946404Y-3617340D01*
X942847Y-3628262D01*
X935481Y-3635629D01*
X869950Y-3560698D02*
G01*
X946404Y-3560698D01*
X869950Y-3560698D02*
G01*
X946404Y-3509898D01*
X869950Y-3509898D02*
G01*
X946404Y-3509898D01*
X887984Y-3332098D02*
G01*
X880871Y-3339211D01*
X877062Y-3350132D01*
X877062Y-3364611D01*
X880871Y-3375532D01*
X887984Y-3382898D01*
X895350Y-3382898D01*
X902462Y-3379343D01*
X906271Y-3375532D01*
X909828Y-3368420D01*
X917194Y-3346577D01*
X920750Y-3339211D01*
X924305Y-3335654D01*
X931671Y-3332098D01*
X942594Y-3332098D01*
X949960Y-3339211D01*
X953515Y-3350132D01*
X953515Y-3364611D01*
X949960Y-3375532D01*
X942594Y-3382898D01*
X877062Y-3307969D02*
G01*
X953515Y-3307969D01*
X877062Y-3307969D02*
G01*
X877062Y-3275203D01*
X880871Y-3264280D01*
X884428Y-3260725D01*
X891539Y-3257169D01*
X902462Y-3257169D01*
X909828Y-3260725D01*
X913384Y-3264280D01*
X917194Y-3275203D01*
X917194Y-3307969D01*
X864362Y-3116198D02*
G01*
X940815Y-3116198D01*
X864362Y-3116198D02*
G01*
X864362Y-3068954D01*
X900684Y-3116198D02*
G01*
X900684Y-3086988D01*
X940815Y-3116198D02*
G01*
X940815Y-3068954D01*
X864362Y-3044825D02*
G01*
X940815Y-3044825D01*
X864362Y-3044825D02*
G01*
X940815Y-2994025D01*
X864362Y-2994025D02*
G01*
X940815Y-2994025D01*
X869950Y-2910456D02*
G01*
X869950Y-2870578D01*
X899160Y-2892422D01*
X899160Y-2881500D01*
X902715Y-2874134D01*
X906271Y-2870578D01*
X917194Y-2867022D01*
X924560Y-2867022D01*
X935481Y-2870578D01*
X942847Y-2877944D01*
X946404Y-2888612D01*
X946404Y-2899534D01*
X942847Y-2910456D01*
X939037Y-2914266D01*
X931926Y-2917822D01*
X869950Y-2842892D02*
G01*
X946404Y-2813936D01*
X869950Y-2784726D02*
G01*
X946404Y-2813936D01*
X869950Y-2753484D02*
G01*
X869950Y-2713352D01*
X899160Y-2735196D01*
X899160Y-2724274D01*
X902715Y-2717162D01*
X906271Y-2713352D01*
X917194Y-2709796D01*
X924560Y-2709796D01*
X935481Y-2713352D01*
X942847Y-2720718D01*
X946404Y-2731640D01*
X946404Y-2742562D01*
X942847Y-2753484D01*
X939037Y-2757040D01*
X931926Y-2760850D01*
X3105142Y-7311014D02*
G01*
X3112508Y-7307204D01*
X3119874Y-7300092D01*
X3123430Y-7292726D01*
X3123430Y-7278248D01*
X3119874Y-7270882D01*
X3112508Y-7263770D01*
X3105142Y-7259960D01*
X3094220Y-7256404D01*
X3076186Y-7256404D01*
X3065264Y-7259960D01*
X3057898Y-7263770D01*
X3050532Y-7270882D01*
X3046976Y-7278248D01*
X3046976Y-7292726D01*
X3050532Y-7300092D01*
X3057898Y-7307204D01*
X3065264Y-7311014D01*
X3123430Y-7334890D02*
G01*
X3046976Y-7334890D01*
X3046976Y-7334890D02*
G01*
X3046976Y-7378578D01*
X3123430Y-7402454D02*
G01*
X3046976Y-7402454D01*
X3123430Y-7453508D02*
G01*
X3072376Y-7402454D01*
X3090664Y-7420742D02*
G01*
X3046976Y-7453508D01*
X3119881Y-7065898D02*
G01*
X3126993Y-7058787D01*
X3130804Y-7047864D01*
X3130804Y-7033387D01*
X3126993Y-7022464D01*
X3119881Y-7015098D01*
X3112515Y-7015098D01*
X3105404Y-7018654D01*
X3101593Y-7022464D01*
X3098038Y-7029577D01*
X3090672Y-7051420D01*
X3087115Y-7058787D01*
X3083559Y-7062343D01*
X3076193Y-7065898D01*
X3065272Y-7065898D01*
X3057906Y-7058787D01*
X3054350Y-7047864D01*
X3054350Y-7033387D01*
X3057906Y-7022464D01*
X3065272Y-7015098D01*
X3130804Y-7090029D02*
G01*
X3054350Y-7090029D01*
X3130804Y-7090029D02*
G01*
X3130804Y-7115429D01*
X3126993Y-7126351D01*
X3119881Y-7133717D01*
X3112515Y-7137272D01*
X3101593Y-7140829D01*
X3083559Y-7140829D01*
X3072638Y-7137272D01*
X3065272Y-7133717D01*
X3057906Y-7126351D01*
X3054350Y-7115429D01*
X3054350Y-7090029D01*
X3130804Y-7186803D02*
G01*
X3126993Y-7175880D01*
X3116325Y-7168514D01*
X3098038Y-7164959D01*
X3087115Y-7164959D01*
X3068827Y-7168514D01*
X3057906Y-7175880D01*
X3054350Y-7186803D01*
X3054350Y-7193914D01*
X3057906Y-7204837D01*
X3068827Y-7212203D01*
X3087115Y-7215759D01*
X3098038Y-7215759D01*
X3116325Y-7212203D01*
X3126993Y-7204837D01*
X3130804Y-7193914D01*
X3130804Y-7186803D01*
X3119881Y-6824598D02*
G01*
X3126993Y-6817487D01*
X3130804Y-6806564D01*
X3130804Y-6792087D01*
X3126993Y-6781164D01*
X3119881Y-6773798D01*
X3112515Y-6773798D01*
X3105404Y-6777354D01*
X3101593Y-6781164D01*
X3098038Y-6788277D01*
X3090672Y-6810120D01*
X3087115Y-6817487D01*
X3083559Y-6821043D01*
X3076193Y-6824598D01*
X3065272Y-6824598D01*
X3057906Y-6817487D01*
X3054350Y-6806564D01*
X3054350Y-6792087D01*
X3057906Y-6781164D01*
X3065272Y-6773798D01*
X3130804Y-6848729D02*
G01*
X3054350Y-6848729D01*
X3130804Y-6848729D02*
G01*
X3130804Y-6874129D01*
X3126993Y-6885051D01*
X3119881Y-6892417D01*
X3112515Y-6895972D01*
X3101593Y-6899529D01*
X3083559Y-6899529D01*
X3072638Y-6895972D01*
X3065272Y-6892417D01*
X3057906Y-6885051D01*
X3054350Y-6874129D01*
X3054350Y-6848729D01*
X3116325Y-6923659D02*
G01*
X3119881Y-6930770D01*
X3130804Y-6941693D01*
X3054350Y-6941693D01*
X3112515Y-6587109D02*
G01*
X3119881Y-6583298D01*
X3126993Y-6576187D01*
X3130804Y-6568820D01*
X3130804Y-6554343D01*
X3126993Y-6546977D01*
X3119881Y-6539864D01*
X3112515Y-6536054D01*
X3101593Y-6532498D01*
X3083559Y-6532498D01*
X3072638Y-6536054D01*
X3065272Y-6539864D01*
X3057906Y-6546977D01*
X3054350Y-6554343D01*
X3054350Y-6568820D01*
X3057906Y-6576187D01*
X3065272Y-6583298D01*
X3072638Y-6587109D01*
X3083559Y-6587109D01*
X3083559Y-6568820D02*
G01*
X3083559Y-6587109D01*
X3116325Y-6610985D02*
G01*
X3119881Y-6618351D01*
X3130804Y-6629272D01*
X3054350Y-6629272D01*
X3130804Y-6696837D02*
G01*
X3130804Y-6660514D01*
X3098038Y-6656959D01*
X3101593Y-6660514D01*
X3105404Y-6671437D01*
X3105404Y-6682359D01*
X3101593Y-6693280D01*
X3094481Y-6700393D01*
X3083559Y-6704203D01*
X3076193Y-6704203D01*
X3065272Y-6700393D01*
X3057906Y-6693280D01*
X3054350Y-6682359D01*
X3054350Y-6671437D01*
X3057906Y-6660514D01*
X3061715Y-6656959D01*
X3068827Y-6653148D01*
X3112515Y-6358509D02*
G01*
X3119881Y-6354698D01*
X3126993Y-6347587D01*
X3130804Y-6340220D01*
X3130804Y-6325743D01*
X3126993Y-6318377D01*
X3119881Y-6311264D01*
X3112515Y-6307454D01*
X3101593Y-6303898D01*
X3083559Y-6303898D01*
X3072638Y-6307454D01*
X3065272Y-6311264D01*
X3057906Y-6318377D01*
X3054350Y-6325743D01*
X3054350Y-6340220D01*
X3057906Y-6347587D01*
X3065272Y-6354698D01*
X3072638Y-6358509D01*
X3083559Y-6358509D01*
X3083559Y-6340220D02*
G01*
X3083559Y-6358509D01*
X3112515Y-6386195D02*
G01*
X3116325Y-6386195D01*
X3123438Y-6389751D01*
X3126993Y-6393306D01*
X3130804Y-6400672D01*
X3130804Y-6415151D01*
X3126993Y-6422517D01*
X3123438Y-6426072D01*
X3116325Y-6429629D01*
X3108959Y-6429629D01*
X3101593Y-6426072D01*
X3090672Y-6418706D01*
X3054350Y-6382385D01*
X3054350Y-6433438D01*
X3112515Y-6104509D02*
G01*
X3119881Y-6100698D01*
X3126993Y-6093587D01*
X3130804Y-6086220D01*
X3130804Y-6071743D01*
X3126993Y-6064377D01*
X3119881Y-6057264D01*
X3112515Y-6053454D01*
X3101593Y-6049898D01*
X3083559Y-6049898D01*
X3072638Y-6053454D01*
X3065272Y-6057264D01*
X3057906Y-6064377D01*
X3054350Y-6071743D01*
X3054350Y-6086220D01*
X3057906Y-6093587D01*
X3065272Y-6100698D01*
X3072638Y-6104509D01*
X3083559Y-6104509D01*
X3083559Y-6086220D02*
G01*
X3083559Y-6104509D01*
X3130804Y-6150229D02*
G01*
X3126993Y-6139306D01*
X3116325Y-6132195D01*
X3098038Y-6128385D01*
X3087115Y-6128385D01*
X3068827Y-6132195D01*
X3057906Y-6139306D01*
X3054350Y-6150229D01*
X3054350Y-6157595D01*
X3057906Y-6168517D01*
X3068827Y-6175629D01*
X3087115Y-6179438D01*
X3098038Y-6179438D01*
X3116325Y-6175629D01*
X3126993Y-6168517D01*
X3130804Y-6157595D01*
X3130804Y-6150229D01*
X3117850Y-5850509D02*
G01*
X3125215Y-5846698D01*
X3132327Y-5839587D01*
X3136138Y-5832220D01*
X3136138Y-5817743D01*
X3132327Y-5810377D01*
X3125215Y-5803264D01*
X3117850Y-5799454D01*
X3106927Y-5795898D01*
X3088893Y-5795898D01*
X3077972Y-5799454D01*
X3070606Y-5803264D01*
X3063240Y-5810377D01*
X3059684Y-5817743D01*
X3059684Y-5832220D01*
X3063240Y-5839587D01*
X3070606Y-5846698D01*
X3077972Y-5850509D01*
X3088893Y-5850509D01*
X3088893Y-5832220D02*
G01*
X3088893Y-5850509D01*
X3136138Y-5910706D02*
G01*
X3085084Y-5874385D01*
X3085084Y-5928995D01*
X3136138Y-5910706D02*
G01*
X3059684Y-5910706D01*
X3117850Y-5571109D02*
G01*
X3125215Y-5567298D01*
X3132327Y-5560187D01*
X3136138Y-5552820D01*
X3136138Y-5538343D01*
X3132327Y-5530977D01*
X3125215Y-5523864D01*
X3117850Y-5520054D01*
X3106927Y-5516498D01*
X3088893Y-5516498D01*
X3077972Y-5520054D01*
X3070606Y-5523864D01*
X3063240Y-5530977D01*
X3059684Y-5538343D01*
X3059684Y-5552820D01*
X3063240Y-5560187D01*
X3070606Y-5567298D01*
X3077972Y-5571109D01*
X3088893Y-5571109D01*
X3088893Y-5552820D02*
G01*
X3088893Y-5571109D01*
X3121659Y-5594985D02*
G01*
X3125215Y-5602351D01*
X3136138Y-5613272D01*
X3059684Y-5613272D01*
X3125215Y-5680837D02*
G01*
X3132327Y-5677280D01*
X3136138Y-5666359D01*
X3136138Y-5658993D01*
X3132327Y-5648070D01*
X3121659Y-5640959D01*
X3103372Y-5637148D01*
X3085084Y-5637148D01*
X3070606Y-5640959D01*
X3063240Y-5648070D01*
X3059684Y-5658993D01*
X3059684Y-5662803D01*
X3063240Y-5673470D01*
X3070606Y-5680837D01*
X3081527Y-5684393D01*
X3085084Y-5684393D01*
X3096006Y-5680837D01*
X3103372Y-5673470D01*
X3106927Y-5662803D01*
X3106927Y-5658993D01*
X3103372Y-5648070D01*
X3096006Y-5640959D01*
X3085084Y-5637148D01*
X3117850Y-5304409D02*
G01*
X3125215Y-5300598D01*
X3132327Y-5293487D01*
X3136138Y-5286120D01*
X3136138Y-5271643D01*
X3132327Y-5264277D01*
X3125215Y-5257164D01*
X3117850Y-5253354D01*
X3106927Y-5249798D01*
X3088893Y-5249798D01*
X3077972Y-5253354D01*
X3070606Y-5257164D01*
X3063240Y-5264277D01*
X3059684Y-5271643D01*
X3059684Y-5286120D01*
X3063240Y-5293487D01*
X3070606Y-5300598D01*
X3077972Y-5304409D01*
X3088893Y-5304409D01*
X3088893Y-5286120D02*
G01*
X3088893Y-5304409D01*
X3121659Y-5328285D02*
G01*
X3125215Y-5335651D01*
X3136138Y-5346572D01*
X3059684Y-5346572D01*
X3136138Y-5421503D02*
G01*
X3059684Y-5385180D01*
X3136138Y-5370448D02*
G01*
X3136138Y-5421503D01*
X3117850Y-5063109D02*
G01*
X3125215Y-5059298D01*
X3132327Y-5052187D01*
X3136138Y-5044820D01*
X3136138Y-5030343D01*
X3132327Y-5022977D01*
X3125215Y-5015864D01*
X3117850Y-5012054D01*
X3106927Y-5008498D01*
X3088893Y-5008498D01*
X3077972Y-5012054D01*
X3070606Y-5015864D01*
X3063240Y-5022977D01*
X3059684Y-5030343D01*
X3059684Y-5044820D01*
X3063240Y-5052187D01*
X3070606Y-5059298D01*
X3077972Y-5063109D01*
X3088893Y-5063109D01*
X3088893Y-5044820D02*
G01*
X3088893Y-5063109D01*
X3136138Y-5130672D02*
G01*
X3136138Y-5094351D01*
X3103372Y-5090795D01*
X3106927Y-5094351D01*
X3110738Y-5105272D01*
X3110738Y-5116195D01*
X3106927Y-5127117D01*
X3099815Y-5134229D01*
X3088893Y-5138038D01*
X3081527Y-5138038D01*
X3070606Y-5134229D01*
X3063240Y-5127117D01*
X3059684Y-5116195D01*
X3059684Y-5105272D01*
X3063240Y-5094351D01*
X3067050Y-5090795D01*
X3074161Y-5086985D01*
X3117850Y-4809109D02*
G01*
X3125215Y-4805298D01*
X3132327Y-4798187D01*
X3136138Y-4790820D01*
X3136138Y-4776343D01*
X3132327Y-4768977D01*
X3125215Y-4761864D01*
X3117850Y-4758054D01*
X3106927Y-4754498D01*
X3088893Y-4754498D01*
X3077972Y-4758054D01*
X3070606Y-4761864D01*
X3063240Y-4768977D01*
X3059684Y-4776343D01*
X3059684Y-4790820D01*
X3063240Y-4798187D01*
X3070606Y-4805298D01*
X3077972Y-4809109D01*
X3088893Y-4809109D01*
X3088893Y-4790820D02*
G01*
X3088893Y-4809109D01*
X3121659Y-4832985D02*
G01*
X3125215Y-4840351D01*
X3136138Y-4851272D01*
X3059684Y-4851272D01*
X3136138Y-4893437D02*
G01*
X3132327Y-4882514D01*
X3125215Y-4878959D01*
X3117850Y-4878959D01*
X3110738Y-4882514D01*
X3106927Y-4889880D01*
X3103372Y-4904359D01*
X3099815Y-4915280D01*
X3092450Y-4922393D01*
X3085084Y-4926203D01*
X3074161Y-4926203D01*
X3067050Y-4922393D01*
X3063240Y-4918837D01*
X3059684Y-4907914D01*
X3059684Y-4893437D01*
X3063240Y-4882514D01*
X3067050Y-4878959D01*
X3074161Y-4875148D01*
X3085084Y-4875148D01*
X3092450Y-4878959D01*
X3099815Y-4886070D01*
X3103372Y-4896993D01*
X3106927Y-4911470D01*
X3110738Y-4918837D01*
X3117850Y-4922393D01*
X3125215Y-4922393D01*
X3132327Y-4918837D01*
X3136138Y-4907914D01*
X3136138Y-4893437D01*
X3117850Y-4555109D02*
G01*
X3125215Y-4551298D01*
X3132327Y-4544187D01*
X3136138Y-4536820D01*
X3136138Y-4522343D01*
X3132327Y-4514977D01*
X3125215Y-4507864D01*
X3117850Y-4504054D01*
X3106927Y-4500498D01*
X3088893Y-4500498D01*
X3077972Y-4504054D01*
X3070606Y-4507864D01*
X3063240Y-4514977D01*
X3059684Y-4522343D01*
X3059684Y-4536820D01*
X3063240Y-4544187D01*
X3070606Y-4551298D01*
X3077972Y-4555109D01*
X3088893Y-4555109D01*
X3088893Y-4536820D02*
G01*
X3088893Y-4555109D01*
X3121659Y-4578985D02*
G01*
X3125215Y-4586351D01*
X3136138Y-4597272D01*
X3059684Y-4597272D01*
X3110738Y-4668393D02*
G01*
X3099815Y-4664837D01*
X3092450Y-4657470D01*
X3088893Y-4646803D01*
X3088893Y-4642993D01*
X3092450Y-4632070D01*
X3099815Y-4624959D01*
X3110738Y-4621148D01*
X3114293Y-4621148D01*
X3125215Y-4624959D01*
X3132327Y-4632070D01*
X3136138Y-4642993D01*
X3136138Y-4646803D01*
X3132327Y-4657470D01*
X3125215Y-4664837D01*
X3110738Y-4668393D01*
X3092450Y-4668393D01*
X3074161Y-4664837D01*
X3063240Y-4657470D01*
X3059684Y-4646803D01*
X3059684Y-4639437D01*
X3063240Y-4628514D01*
X3070606Y-4624959D01*
X3117850Y-4275709D02*
G01*
X3125215Y-4271898D01*
X3132327Y-4264787D01*
X3136138Y-4257420D01*
X3136138Y-4242943D01*
X3132327Y-4235577D01*
X3125215Y-4228464D01*
X3117850Y-4224654D01*
X3106927Y-4221098D01*
X3088893Y-4221098D01*
X3077972Y-4224654D01*
X3070606Y-4228464D01*
X3063240Y-4235577D01*
X3059684Y-4242943D01*
X3059684Y-4257420D01*
X3063240Y-4264787D01*
X3070606Y-4271898D01*
X3077972Y-4275709D01*
X3088893Y-4275709D01*
X3088893Y-4257420D02*
G01*
X3088893Y-4275709D01*
X3136138Y-4299585D02*
G01*
X3059684Y-4299585D01*
X3136138Y-4299585D02*
G01*
X3059684Y-4350638D01*
X3136138Y-4350638D02*
G01*
X3059684Y-4350638D01*
X3136138Y-4374514D02*
G01*
X3059684Y-4374514D01*
X3136138Y-4374514D02*
G01*
X3136138Y-4399914D01*
X3132327Y-4410837D01*
X3125215Y-4418203D01*
X3117850Y-4421759D01*
X3106927Y-4425569D01*
X3088893Y-4425569D01*
X3077972Y-4421759D01*
X3070606Y-4418203D01*
X3063240Y-4410837D01*
X3059684Y-4399914D01*
X3059684Y-4374514D01*
X3125215Y-4034409D02*
G01*
X3132581Y-4030598D01*
X3139693Y-4023487D01*
X3143504Y-4016120D01*
X3143504Y-4001643D01*
X3139693Y-3994277D01*
X3132581Y-3987164D01*
X3125215Y-3983354D01*
X3114293Y-3979798D01*
X3096259Y-3979798D01*
X3085338Y-3983354D01*
X3077972Y-3987164D01*
X3070606Y-3994277D01*
X3067050Y-4001643D01*
X3067050Y-4016120D01*
X3070606Y-4023487D01*
X3077972Y-4030598D01*
X3085338Y-4034409D01*
X3096259Y-4034409D01*
X3096259Y-4016120D02*
G01*
X3096259Y-4034409D01*
X3125215Y-4062095D02*
G01*
X3129025Y-4062095D01*
X3136138Y-4065651D01*
X3139693Y-4069206D01*
X3143504Y-4076572D01*
X3143504Y-4091051D01*
X3139693Y-4098417D01*
X3136138Y-4101972D01*
X3129025Y-4105529D01*
X3121659Y-4105529D01*
X3114293Y-4101972D01*
X3103372Y-4094606D01*
X3067050Y-4058285D01*
X3067050Y-4109338D01*
X3129025Y-4133214D02*
G01*
X3132581Y-4140580D01*
X3143504Y-4151503D01*
X3067050Y-4151503D01*
X3143504Y-3725798D02*
G01*
X3067050Y-3725798D01*
X3143504Y-3725798D02*
G01*
X3143504Y-3758564D01*
X3139693Y-3769487D01*
X3136138Y-3773043D01*
X3129025Y-3776598D01*
X3121659Y-3776598D01*
X3114293Y-3773043D01*
X3110738Y-3769487D01*
X3107181Y-3758564D01*
X3107181Y-3725798D01*
X3107181Y-3751198D02*
G01*
X3067050Y-3776598D01*
X3143504Y-3800729D02*
G01*
X3067050Y-3851529D01*
X3143504Y-3851529D02*
G01*
X3067050Y-3800729D01*
X3143504Y-3875659D02*
G01*
X3067050Y-3875659D01*
X3143504Y-3875659D02*
G01*
X3143504Y-3901059D01*
X3139693Y-3911980D01*
X3132581Y-3919346D01*
X3125215Y-3922903D01*
X3114293Y-3926459D01*
X3096259Y-3926459D01*
X3085338Y-3922903D01*
X3077972Y-3919346D01*
X3070606Y-3911980D01*
X3067050Y-3901059D01*
X3067050Y-3875659D01*
X3143504Y-3484498D02*
G01*
X3067050Y-3484498D01*
X3143504Y-3459098D02*
G01*
X3143504Y-3509898D01*
X3143504Y-3534029D02*
G01*
X3067050Y-3584829D01*
X3143504Y-3584829D02*
G01*
X3067050Y-3534029D01*
X3143504Y-3608959D02*
G01*
X3067050Y-3608959D01*
X3143504Y-3608959D02*
G01*
X3143504Y-3634359D01*
X3139693Y-3645280D01*
X3132581Y-3652646D01*
X3125215Y-3656203D01*
X3114293Y-3659759D01*
X3096259Y-3659759D01*
X3085338Y-3656203D01*
X3077972Y-3652646D01*
X3070606Y-3645280D01*
X3067050Y-3634359D01*
X3067050Y-3608959D01*
X3125215Y-3247009D02*
G01*
X3132581Y-3243198D01*
X3139693Y-3236087D01*
X3143504Y-3228720D01*
X3143504Y-3214243D01*
X3139693Y-3206877D01*
X3132581Y-3199764D01*
X3125215Y-3195954D01*
X3114293Y-3192398D01*
X3096259Y-3192398D01*
X3085338Y-3195954D01*
X3077972Y-3199764D01*
X3070606Y-3206877D01*
X3067050Y-3214243D01*
X3067050Y-3228720D01*
X3070606Y-3236087D01*
X3077972Y-3243198D01*
X3085338Y-3247009D01*
X3096259Y-3247009D01*
X3096259Y-3228720D02*
G01*
X3096259Y-3247009D01*
X3125215Y-3274695D02*
G01*
X3129025Y-3274695D01*
X3136138Y-3278251D01*
X3139693Y-3281806D01*
X3143504Y-3289172D01*
X3143504Y-3303651D01*
X3139693Y-3311017D01*
X3136138Y-3314572D01*
X3129025Y-3318129D01*
X3121659Y-3318129D01*
X3114293Y-3314572D01*
X3103372Y-3307206D01*
X3067050Y-3270885D01*
X3067050Y-3321938D01*
X3125215Y-3349370D02*
G01*
X3129025Y-3349370D01*
X3136138Y-3353180D01*
X3139693Y-3356737D01*
X3143504Y-3364103D01*
X3143504Y-3378580D01*
X3139693Y-3385946D01*
X3136138Y-3389503D01*
X3129025Y-3393059D01*
X3121659Y-3393059D01*
X3114293Y-3389503D01*
X3103372Y-3382137D01*
X3067050Y-3345814D01*
X3067050Y-3396869D01*
X3125215Y-2993009D02*
G01*
X3132581Y-2989198D01*
X3139693Y-2982087D01*
X3143504Y-2974720D01*
X3143504Y-2960243D01*
X3139693Y-2952877D01*
X3132581Y-2945764D01*
X3125215Y-2941954D01*
X3114293Y-2938398D01*
X3096259Y-2938398D01*
X3085338Y-2941954D01*
X3077972Y-2945764D01*
X3070606Y-2952877D01*
X3067050Y-2960243D01*
X3067050Y-2974720D01*
X3070606Y-2982087D01*
X3077972Y-2989198D01*
X3085338Y-2993009D01*
X3096259Y-2993009D01*
X3096259Y-2974720D02*
G01*
X3096259Y-2993009D01*
X3125215Y-3020695D02*
G01*
X3129025Y-3020695D01*
X3136138Y-3024251D01*
X3139693Y-3027806D01*
X3143504Y-3035172D01*
X3143504Y-3049651D01*
X3139693Y-3057017D01*
X3136138Y-3060572D01*
X3129025Y-3064129D01*
X3121659Y-3064129D01*
X3114293Y-3060572D01*
X3103372Y-3053206D01*
X3067050Y-3016885D01*
X3067050Y-3067938D01*
X3143504Y-3099180D02*
G01*
X3143504Y-3139059D01*
X3114293Y-3117214D01*
X3114293Y-3128137D01*
X3110738Y-3135503D01*
X3107181Y-3139059D01*
X3096259Y-3142869D01*
X3088893Y-3142869D01*
X3077972Y-3139059D01*
X3070606Y-3131946D01*
X3067050Y-3121025D01*
X3067050Y-3110103D01*
X3070606Y-3099180D01*
X3074415Y-3095370D01*
X3081527Y-3091814D01*
X3125215Y-2739009D02*
G01*
X3132581Y-2735198D01*
X3139693Y-2728087D01*
X3143504Y-2720720D01*
X3143504Y-2706243D01*
X3139693Y-2698877D01*
X3132581Y-2691764D01*
X3125215Y-2687954D01*
X3114293Y-2684398D01*
X3096259Y-2684398D01*
X3085338Y-2687954D01*
X3077972Y-2691764D01*
X3070606Y-2698877D01*
X3067050Y-2706243D01*
X3067050Y-2720720D01*
X3070606Y-2728087D01*
X3077972Y-2735198D01*
X3085338Y-2739009D01*
X3096259Y-2739009D01*
X3096259Y-2720720D02*
G01*
X3096259Y-2739009D01*
X3143504Y-2762885D02*
G01*
X3067050Y-2762885D01*
X3143504Y-2762885D02*
G01*
X3067050Y-2813938D01*
X3143504Y-2813938D02*
G01*
X3067050Y-2813938D01*
X3143504Y-2837814D02*
G01*
X3067050Y-2837814D01*
X3143504Y-2837814D02*
G01*
X3143504Y-2863214D01*
X3139693Y-2874137D01*
X3132581Y-2881503D01*
X3125215Y-2885059D01*
X3114293Y-2888869D01*
X3096259Y-2888869D01*
X3085338Y-2885059D01*
X3077972Y-2881503D01*
X3070606Y-2874137D01*
X3067050Y-2863214D01*
X3067050Y-2837814D01*
D24*
X5604256Y-1065784D02*
G01*
X5562600Y-1174750D01*
X5604256Y-1065784D02*
G01*
X5645658Y-1174750D01*
X5578093Y-1138428D02*
G01*
X5630163Y-1138428D01*
X5679947Y-1086612D02*
G01*
X5690361Y-1081278D01*
X5706109Y-1065784D01*
X5706109Y-1174750D01*
D20*
X5818377Y-1966213D02*
G01*
X5624575Y-1892300D01*
X5818377Y-1966213D02*
G01*
X5624575Y-2040128D01*
X5689091Y-1919986D02*
G01*
X5689091Y-2012442D01*
X5818377Y-2101087D02*
G01*
X5624575Y-2101087D01*
X5818377Y-2101087D02*
G01*
X5818377Y-2165604D01*
X5809234Y-2193289D01*
X5790691Y-2211831D01*
X5772150Y-2221229D01*
X5744463Y-2230373D01*
X5698490Y-2230373D01*
X5670550Y-2221229D01*
X5652261Y-2211831D01*
X5633720Y-2193289D01*
X5624575Y-2165604D01*
X5624575Y-2101087D01*
X5790691Y-2420620D02*
G01*
X5809234Y-2402078D01*
X5818377Y-2374392D01*
X5818377Y-2337562D01*
X5809234Y-2309876D01*
X5790691Y-2291334D01*
X5772150Y-2291334D01*
X5753861Y-2300478D01*
X5744463Y-2309876D01*
X5735320Y-2328163D01*
X5716777Y-2383789D01*
X5707634Y-2402078D01*
X5698490Y-2411476D01*
X5679947Y-2420620D01*
X5652261Y-2420620D01*
X5633720Y-2402078D01*
X5624575Y-2374392D01*
X5624575Y-2337562D01*
X5633720Y-2309876D01*
X5652261Y-2291334D01*
X5781547Y-2623820D02*
G01*
X5790691Y-2642362D01*
X5818377Y-2670047D01*
X5624575Y-2670047D01*
X5781547Y-2731007D02*
G01*
X5790691Y-2749550D01*
X5818377Y-2777236D01*
X5624575Y-2777236D01*
X5781547Y-2838195D02*
G01*
X5790691Y-2856484D01*
X5818377Y-2884170D01*
X5624575Y-2884170D01*
X5818377Y-3056128D02*
G01*
X5818377Y-2963671D01*
X5735320Y-2954528D01*
X5744463Y-2963671D01*
X5753861Y-2991357D01*
X5753861Y-3019044D01*
X5744463Y-3046729D01*
X5726175Y-3065271D01*
X5698490Y-3074670D01*
X5679947Y-3074670D01*
X5652261Y-3065271D01*
X5633720Y-3046729D01*
X5624575Y-3019044D01*
X5624575Y-2991357D01*
X5633720Y-2963671D01*
X5642863Y-2954528D01*
X5661406Y-2945129D01*
X6175756Y-1714500D02*
G01*
X6181343Y-1725929D01*
X6198870Y-1743455D01*
X6077458Y-1743455D01*
X6181343Y-1850644D02*
G01*
X6193027Y-1845055D01*
X6198870Y-1827529D01*
X6198870Y-1816100D01*
X6193027Y-1798828D01*
X6175756Y-1787144D01*
X6146800Y-1781555D01*
X6117843Y-1781555D01*
X6094729Y-1787144D01*
X6083300Y-1798828D01*
X6077458Y-1816100D01*
X6077458Y-1821942D01*
X6083300Y-1839213D01*
X6094729Y-1850644D01*
X6112256Y-1856486D01*
X6117843Y-1856486D01*
X6135370Y-1850644D01*
X6146800Y-1839213D01*
X6152641Y-1821942D01*
X6152641Y-1816100D01*
X6146800Y-1798828D01*
X6135370Y-1787144D01*
X6117843Y-1781555D01*
X6198870Y-1894586D02*
G01*
X6077458Y-1894586D01*
X6198870Y-1894586D02*
G01*
X6198870Y-1946655D01*
X6193027Y-1963928D01*
X6187186Y-1969770D01*
X6175756Y-1975357D01*
X6164072Y-1975357D01*
X6152641Y-1969770D01*
X6146800Y-1963928D01*
X6140958Y-1946655D01*
X6140958Y-1894586D02*
G01*
X6140958Y-1946655D01*
X6135370Y-1963928D01*
X6129527Y-1969770D01*
X6117843Y-1975357D01*
X6100572Y-1975357D01*
X6089141Y-1969770D01*
X6083300Y-1963928D01*
X6077458Y-1946655D01*
X6077458Y-1894586D01*
X6198870Y-2013457D02*
G01*
X6193027Y-2019300D01*
X6198870Y-2025142D01*
X6204458Y-2019300D01*
X6198870Y-2013457D01*
X6158229Y-2019300D02*
G01*
X6077458Y-2019300D01*
X6198870Y-2080513D02*
G01*
X6100572Y-2080513D01*
X6083300Y-2086355D01*
X6077458Y-2097786D01*
X6077458Y-2109470D01*
X6158229Y-2063242D02*
G01*
X6158229Y-2103628D01*
X6198870Y-2236470D02*
G01*
X6077458Y-2236470D01*
X6169913Y-2280157D02*
G01*
X6175756Y-2280157D01*
X6187186Y-2286000D01*
X6193027Y-2291842D01*
X6198870Y-2303271D01*
X6198870Y-2326386D01*
X6193027Y-2338070D01*
X6187186Y-2343657D01*
X6175756Y-2349500D01*
X6164072Y-2349500D01*
X6152641Y-2343657D01*
X6135370Y-2332228D01*
X6077458Y-2274570D01*
X6077458Y-2355342D01*
X6169913Y-2480055D02*
G01*
X6181343Y-2474213D01*
X6193027Y-2462529D01*
X6198870Y-2451100D01*
X6198870Y-2427986D01*
X6193027Y-2416555D01*
X6181343Y-2404871D01*
X6169913Y-2399029D01*
X6152641Y-2393442D01*
X6123686Y-2393442D01*
X6106413Y-2399029D01*
X6094729Y-2404871D01*
X6083300Y-2416555D01*
X6077458Y-2427986D01*
X6077458Y-2451100D01*
X6083300Y-2462529D01*
X6094729Y-2474213D01*
X6106413Y-2480055D01*
X6198870Y-2653029D02*
G01*
X6077458Y-2607055D01*
X6198870Y-2653029D02*
G01*
X6077458Y-2699257D01*
X6117843Y-2624328D02*
G01*
X6117843Y-2681986D01*
X6198870Y-2737357D02*
G01*
X6077458Y-2737357D01*
X6198870Y-2737357D02*
G01*
X6198870Y-2777744D01*
X6193027Y-2795270D01*
X6181343Y-2806700D01*
X6169913Y-2812542D01*
X6152641Y-2818129D01*
X6123686Y-2818129D01*
X6106413Y-2812542D01*
X6094729Y-2806700D01*
X6083300Y-2795270D01*
X6077458Y-2777744D01*
X6077458Y-2737357D01*
X6169913Y-2942844D02*
G01*
X6181343Y-2937255D01*
X6193027Y-2925571D01*
X6198870Y-2914142D01*
X6198870Y-2891028D01*
X6193027Y-2879344D01*
X6181343Y-2867913D01*
X6169913Y-2862071D01*
X6152641Y-2856229D01*
X6123686Y-2856229D01*
X6106413Y-2862071D01*
X6094729Y-2867913D01*
X6083300Y-2879344D01*
X6077458Y-2891028D01*
X6077458Y-2914142D01*
X6083300Y-2925571D01*
X6094729Y-2937255D01*
X6106413Y-2942844D01*
X6181343Y-3033013D02*
G01*
X6077458Y-3033013D01*
X6129527Y-2980944D02*
G01*
X6129527Y-3084829D01*
X6198870Y-3122929D02*
G01*
X6077458Y-3122929D01*
X6198870Y-3122929D02*
G01*
X6198870Y-3175000D01*
X6193027Y-3192271D01*
X6187186Y-3198113D01*
X6175756Y-3203955D01*
X6158229Y-3203955D01*
X6146800Y-3198113D01*
X6140958Y-3192271D01*
X6135370Y-3175000D01*
X6135370Y-3122929D01*
X6169913Y-3328670D02*
G01*
X6181343Y-3322828D01*
X6193027Y-3311144D01*
X6198870Y-3299713D01*
X6198870Y-3276600D01*
X6193027Y-3265170D01*
X6181343Y-3253486D01*
X6169913Y-3247644D01*
X6152641Y-3242055D01*
X6123686Y-3242055D01*
X6106413Y-3247644D01*
X6094729Y-3253486D01*
X6083300Y-3265170D01*
X6077458Y-3276600D01*
X6077458Y-3299713D01*
X6083300Y-3311144D01*
X6094729Y-3322828D01*
X6106413Y-3328670D01*
X6123686Y-3328670D01*
X6123686Y-3299713D02*
G01*
X6123686Y-3328670D01*
X6198870Y-3412744D02*
G01*
X6077458Y-3366770D01*
X6198870Y-3412744D02*
G01*
X6077458Y-3458971D01*
X6117843Y-3384042D02*
G01*
X6117843Y-3441700D01*
X5054600Y-1408429D02*
G01*
X5100827Y-1529842D01*
X5147056Y-1408429D02*
G01*
X5100827Y-1529842D01*
X5185156Y-1408429D02*
G01*
X5185156Y-1529842D01*
X5185156Y-1408429D02*
G01*
X5225541Y-1408429D01*
X5242813Y-1414271D01*
X5254243Y-1425955D01*
X5260086Y-1437386D01*
X5265927Y-1454657D01*
X5265927Y-1483613D01*
X5260086Y-1500886D01*
X5254243Y-1512570D01*
X5242813Y-1524000D01*
X5225541Y-1529842D01*
X5185156Y-1529842D01*
X5304027Y-1408429D02*
G01*
X5304027Y-1529842D01*
X5304027Y-1408429D02*
G01*
X5344413Y-1408429D01*
X5361686Y-1414271D01*
X5373370Y-1425955D01*
X5378958Y-1437386D01*
X5384800Y-1454657D01*
X5384800Y-1483613D01*
X5378958Y-1500886D01*
X5373370Y-1512570D01*
X5361686Y-1524000D01*
X5344413Y-1529842D01*
X5304027Y-1529842D01*
X5141213Y-1691386D02*
G01*
X5135372Y-1679955D01*
X5123941Y-1668271D01*
X5112258Y-1662429D01*
X5089143Y-1662429D01*
X5077713Y-1668271D01*
X5066029Y-1679955D01*
X5060441Y-1691386D01*
X5054600Y-1708657D01*
X5054600Y-1737613D01*
X5060441Y-1754886D01*
X5066029Y-1766570D01*
X5077713Y-1778000D01*
X5089143Y-1783842D01*
X5112258Y-1783842D01*
X5123941Y-1778000D01*
X5135372Y-1766570D01*
X5141213Y-1754886D01*
X5141213Y-1737613D01*
X5112258Y-1737613D02*
G01*
X5141213Y-1737613D01*
X5179313Y-1662429D02*
G01*
X5179313Y-1783842D01*
X5179313Y-1662429D02*
G01*
X5260086Y-1783842D01*
X5260086Y-1662429D02*
G01*
X5260086Y-1783842D01*
X5298186Y-1662429D02*
G01*
X5298186Y-1783842D01*
X5298186Y-1662429D02*
G01*
X5338572Y-1662429D01*
X5355843Y-1668271D01*
X5367527Y-1679955D01*
X5373370Y-1691386D01*
X5378958Y-1708657D01*
X5378958Y-1737613D01*
X5373370Y-1754886D01*
X5367527Y-1766570D01*
X5355843Y-1778000D01*
X5338572Y-1783842D01*
X5298186Y-1783842D01*
X5135372Y-1933955D02*
G01*
X5123941Y-1922271D01*
X5106670Y-1916429D01*
X5083556Y-1916429D01*
X5066029Y-1922271D01*
X5054600Y-1933955D01*
X5054600Y-1945386D01*
X5060441Y-1957070D01*
X5066029Y-1962657D01*
X5077713Y-1968500D01*
X5112258Y-1979929D01*
X5123941Y-1985771D01*
X5129529Y-1991613D01*
X5135372Y-2003044D01*
X5135372Y-2020570D01*
X5123941Y-2032000D01*
X5106670Y-2037842D01*
X5083556Y-2037842D01*
X5066029Y-2032000D01*
X5054600Y-2020570D01*
X5260086Y-1945386D02*
G01*
X5254243Y-1933955D01*
X5242813Y-1922271D01*
X5231129Y-1916429D01*
X5208270Y-1916429D01*
X5196586Y-1922271D01*
X5185156Y-1933955D01*
X5179313Y-1945386D01*
X5173472Y-1962657D01*
X5173472Y-1991613D01*
X5179313Y-2008886D01*
X5185156Y-2020570D01*
X5196586Y-2032000D01*
X5208270Y-2037842D01*
X5231129Y-2037842D01*
X5242813Y-2032000D01*
X5254243Y-2020570D01*
X5260086Y-2008886D01*
X5298186Y-1916429D02*
G01*
X5298186Y-2037842D01*
X5298186Y-2037842D02*
G01*
X5367527Y-2037842D01*
X5135372Y-2187955D02*
G01*
X5123941Y-2176271D01*
X5106670Y-2170429D01*
X5083556Y-2170429D01*
X5066029Y-2176271D01*
X5054600Y-2187955D01*
X5054600Y-2199386D01*
X5060441Y-2211070D01*
X5066029Y-2216657D01*
X5077713Y-2222500D01*
X5112258Y-2233929D01*
X5123941Y-2239771D01*
X5129529Y-2245613D01*
X5135372Y-2257044D01*
X5135372Y-2274570D01*
X5123941Y-2286000D01*
X5106670Y-2291842D01*
X5083556Y-2291842D01*
X5066029Y-2286000D01*
X5054600Y-2274570D01*
X5173472Y-2170429D02*
G01*
X5173472Y-2291842D01*
X5173472Y-2170429D02*
G01*
X5213858Y-2170429D01*
X5231129Y-2176271D01*
X5242813Y-2187955D01*
X5248656Y-2199386D01*
X5254243Y-2216657D01*
X5254243Y-2245613D01*
X5248656Y-2262886D01*
X5242813Y-2274570D01*
X5231129Y-2286000D01*
X5213858Y-2291842D01*
X5173472Y-2291842D01*
X5338572Y-2170429D02*
G01*
X5292343Y-2291842D01*
X5338572Y-2170429D02*
G01*
X5384800Y-2291842D01*
X5309870Y-2251455D02*
G01*
X5367527Y-2251455D01*
X5100827Y-2424429D02*
G01*
X5054600Y-2545842D01*
X5100827Y-2424429D02*
G01*
X5147056Y-2545842D01*
X5071872Y-2505455D02*
G01*
X5129529Y-2505455D01*
X5185156Y-2424429D02*
G01*
X5185156Y-2545842D01*
X5185156Y-2424429D02*
G01*
X5225541Y-2424429D01*
X5242813Y-2430271D01*
X5254243Y-2441955D01*
X5260086Y-2453386D01*
X5265927Y-2470657D01*
X5265927Y-2499613D01*
X5260086Y-2516886D01*
X5254243Y-2528570D01*
X5242813Y-2540000D01*
X5225541Y-2545842D01*
X5185156Y-2545842D01*
X5304027Y-2424429D02*
G01*
X5304027Y-2545842D01*
X5304027Y-2424429D02*
G01*
X5344413Y-2424429D01*
X5361686Y-2430271D01*
X5373370Y-2441955D01*
X5378958Y-2453386D01*
X5384800Y-2470657D01*
X5384800Y-2499613D01*
X5378958Y-2516886D01*
X5373370Y-2528570D01*
X5361686Y-2540000D01*
X5344413Y-2545842D01*
X5304027Y-2545842D01*
X5422900Y-2424429D02*
G01*
X5422900Y-2545842D01*
X5422900Y-2424429D02*
G01*
X5474970Y-2424429D01*
X5492241Y-2430271D01*
X5497829Y-2436113D01*
X5503672Y-2447544D01*
X5503672Y-2459228D01*
X5497829Y-2470657D01*
X5492241Y-2476500D01*
X5474970Y-2482342D01*
X5422900Y-2482342D01*
X5463286Y-2482342D02*
G01*
X5503672Y-2545842D01*
X5100827Y-2678429D02*
G01*
X5054600Y-2799842D01*
X5100827Y-2678429D02*
G01*
X5147056Y-2799842D01*
X5071872Y-2759455D02*
G01*
X5129529Y-2759455D01*
X5185156Y-2678429D02*
G01*
X5185156Y-2799842D01*
X5185156Y-2799842D02*
G01*
X5254243Y-2799842D01*
X5292343Y-2678429D02*
G01*
X5292343Y-2799842D01*
X5292343Y-2678429D02*
G01*
X5344413Y-2678429D01*
X5361686Y-2684271D01*
X5367527Y-2690113D01*
X5373370Y-2701544D01*
X5373370Y-2713228D01*
X5367527Y-2724657D01*
X5361686Y-2730500D01*
X5344413Y-2736342D01*
X5292343Y-2736342D01*
X5332729Y-2736342D02*
G01*
X5373370Y-2799842D01*
X5451856Y-2678429D02*
G01*
X5451856Y-2799842D01*
X5411470Y-2678429D02*
G01*
X5492241Y-2678429D01*
X5100827Y-2932429D02*
G01*
X5054600Y-3053842D01*
X5100827Y-2932429D02*
G01*
X5147056Y-3053842D01*
X5071872Y-3013455D02*
G01*
X5129529Y-3013455D01*
X5219700Y-2932429D02*
G01*
X5202427Y-2938271D01*
X5190743Y-2955544D01*
X5185156Y-2984500D01*
X5185156Y-3001771D01*
X5190743Y-3030728D01*
X5202427Y-3048000D01*
X5219700Y-3053842D01*
X5231129Y-3053842D01*
X5248656Y-3048000D01*
X5260086Y-3030728D01*
X5265927Y-3001771D01*
X5265927Y-2984500D01*
X5260086Y-2955544D01*
X5248656Y-2938271D01*
X5231129Y-2932429D01*
X5219700Y-2932429D01*
X5100827Y-3694429D02*
G01*
X5054600Y-3815842D01*
X5100827Y-3694429D02*
G01*
X5147056Y-3815842D01*
X5071872Y-3775455D02*
G01*
X5129529Y-3775455D01*
X5196586Y-3694429D02*
G01*
X5260086Y-3694429D01*
X5225541Y-3740657D01*
X5242813Y-3740657D01*
X5254243Y-3746500D01*
X5260086Y-3752342D01*
X5265927Y-3769613D01*
X5265927Y-3781044D01*
X5260086Y-3798570D01*
X5248656Y-3810000D01*
X5231129Y-3815842D01*
X5213858Y-3815842D01*
X5196586Y-3810000D01*
X5190743Y-3804157D01*
X5185156Y-3792728D01*
X5100827Y-3440429D02*
G01*
X5054600Y-3561842D01*
X5100827Y-3440429D02*
G01*
X5147056Y-3561842D01*
X5071872Y-3521455D02*
G01*
X5129529Y-3521455D01*
X5190743Y-3469386D02*
G01*
X5190743Y-3463544D01*
X5196586Y-3452113D01*
X5202427Y-3446271D01*
X5213858Y-3440429D01*
X5236972Y-3440429D01*
X5248656Y-3446271D01*
X5254243Y-3452113D01*
X5260086Y-3463544D01*
X5260086Y-3475228D01*
X5254243Y-3486657D01*
X5242813Y-3503929D01*
X5185156Y-3561842D01*
X5265927Y-3561842D01*
X5100827Y-3186429D02*
G01*
X5054600Y-3307842D01*
X5100827Y-3186429D02*
G01*
X5147056Y-3307842D01*
X5071872Y-3267455D02*
G01*
X5129529Y-3267455D01*
X5185156Y-3209544D02*
G01*
X5196586Y-3203955D01*
X5213858Y-3186429D01*
X5213858Y-3307842D01*
G36*
X4483100Y-4394200D02*
G01*
X4483100Y-4495800D01*
X4559300Y-4445000D01*
G37*
D10*
X5210995Y298394D02*
G01*
X5710994Y298394D01*
X5710994Y-1605D02*
G01*
X5710994Y298394D01*
X5210995Y-1605D02*
G01*
X5210995Y298394D01*
X5583417Y-901606D02*
G01*
X5710994Y-901606D01*
X5210995Y-901606D02*
G01*
X5338572Y-901606D01*
X5710994Y-1605D02*
G01*
X5710994Y-901606D01*
X5210995Y-1605D02*
G01*
X5210995Y-901606D01*
X5210995Y-1605D02*
G01*
X5710994Y-1605D01*
X4318000Y-1778000D02*
G01*
X4318000Y-1803400D01*
X4318000Y-1270000D02*
G01*
X4318000Y-1244600D01*
X4318000Y-1778000D02*
G01*
X4241800Y-1778000D01*
X4394200Y-1778000D02*
G01*
X4318000Y-1778000D01*
X4394200Y-1270000D02*
G01*
X4394200Y-1778000D01*
X4318000Y-1270000D02*
G01*
X4394200Y-1270000D01*
X4241800Y-1270000D02*
G01*
X4318000Y-1270000D01*
X4241800Y-1778000D02*
G01*
X4241800Y-1270000D01*
X4575708Y-4295012D02*
G01*
X5355691Y-4295012D01*
X5355691Y-4295012D02*
G01*
X5355691Y-4595012D01*
X5355691Y-4595012D02*
G01*
X4575708Y-4595012D01*
X4575708Y-4595012D02*
G01*
X4575708Y-4295012D01*
X3826695Y298394D02*
G01*
X4326694Y298394D01*
X4326694Y-1605D02*
G01*
X4326694Y298394D01*
X3826695Y-1605D02*
G01*
X3826695Y298394D01*
X4199117Y-901606D02*
G01*
X4326694Y-901606D01*
X3826695Y-901606D02*
G01*
X3954272Y-901606D01*
X4326694Y-1605D02*
G01*
X4326694Y-901606D01*
X3826695Y-1605D02*
G01*
X3826695Y-901606D01*
X3826695Y-1605D02*
G01*
X4326694Y-1605D01*
X2416995Y298394D02*
G01*
X2916994Y298394D01*
X2916994Y-1605D02*
G01*
X2916994Y298394D01*
X2416995Y-1605D02*
G01*
X2416995Y298394D01*
X2789417Y-901606D02*
G01*
X2916994Y-901606D01*
X2416995Y-901606D02*
G01*
X2544572Y-901606D01*
X2916994Y-1605D02*
G01*
X2916994Y-901606D01*
X2416995Y-1605D02*
G01*
X2416995Y-901606D01*
X2416995Y-1605D02*
G01*
X2916994Y-1605D01*
X1032695Y298394D02*
G01*
X1532694Y298394D01*
X1532694Y-1605D02*
G01*
X1532694Y298394D01*
X1032695Y-1605D02*
G01*
X1032695Y298394D01*
X1405117Y-901606D02*
G01*
X1532694Y-901606D01*
X1032695Y-901606D02*
G01*
X1160271Y-901606D01*
X1532694Y-1605D02*
G01*
X1532694Y-901606D01*
X1032695Y-1605D02*
G01*
X1032695Y-901606D01*
X1032695Y-1605D02*
G01*
X1532694Y-1605D01*
X2387600Y-1778000D02*
G01*
X2387600Y-1803400D01*
X2387600Y-1270000D02*
G01*
X2387600Y-1244600D01*
X2387600Y-1778000D02*
G01*
X2311400Y-1778000D01*
X2463800Y-1778000D02*
G01*
X2387600Y-1778000D01*
X2463800Y-1270000D02*
G01*
X2463800Y-1778000D01*
X2387600Y-1270000D02*
G01*
X2463800Y-1270000D01*
X2311400Y-1270000D02*
G01*
X2387600Y-1270000D01*
X2311400Y-1778000D02*
G01*
X2311400Y-1270000D01*
X2832100Y-1270000D02*
G01*
X2832100Y-1244600D01*
X2832100Y-1778000D02*
G01*
X2832100Y-1803400D01*
X2832100Y-1270000D02*
G01*
X2908300Y-1270000D01*
X2755900Y-1270000D02*
G01*
X2832100Y-1270000D01*
X2755900Y-1778000D02*
G01*
X2755900Y-1270000D01*
X2832100Y-1778000D02*
G01*
X2755900Y-1778000D01*
X2908300Y-1778000D02*
G01*
X2832100Y-1778000D01*
X2908300Y-1270000D02*
G01*
X2908300Y-1778000D01*
X3898900Y-1778000D02*
G01*
X3898900Y-1803400D01*
X3898900Y-1270000D02*
G01*
X3898900Y-1244600D01*
X3898900Y-1778000D02*
G01*
X3822700Y-1778000D01*
X3975100Y-1778000D02*
G01*
X3898900Y-1778000D01*
X3975100Y-1270000D02*
G01*
X3975100Y-1778000D01*
X3898900Y-1270000D02*
G01*
X3975100Y-1270000D01*
X3822700Y-1270000D02*
G01*
X3898900Y-1270000D01*
X3822700Y-1778000D02*
G01*
X3822700Y-1270000D01*
X4076700Y-5054600D02*
G01*
X4051300Y-5054600D01*
X4584700Y-5054600D02*
G01*
X4610100Y-5054600D01*
X4076700Y-5054600D02*
G01*
X4076700Y-4978400D01*
X4076700Y-5130800D02*
G01*
X4076700Y-5054600D01*
X4584700Y-5130800D02*
G01*
X4076700Y-5130800D01*
X4584700Y-5054600D02*
G01*
X4584700Y-5130800D01*
X4584700Y-4978400D02*
G01*
X4584700Y-5054600D01*
X4076700Y-4978400D02*
G01*
X4584700Y-4978400D01*
D20*
X6007100Y-5740400D02*
G01*
X5816600Y-5740400D01*
X5816600Y-5994400D01*
X6578600Y-5994400D01*
X6578600Y-5740400D01*
D21*
X6578600Y-5740400D02*
G01*
X6007100Y-5740400D01*
D10*
X3772103Y-6461810D02*
G01*
X3772103Y-5318810D01*
X5575503Y-5318810D01*
X5575503Y-6461810D01*
X3772103Y-6461810D01*
X3975100Y-5867400D02*
G01*
X4127245Y-5704839D01*
X4127500Y-5831839D01*
X5194045Y-5831839D01*
X5194045Y-5882639D01*
X4127500Y-5882639D01*
X4127500Y-6019800D01*
X3975100Y-5867400D01*
X5702300Y-7848600D02*
G01*
X5702300Y-8102600D01*
X4813300Y-8102600D01*
X4813300Y-7848600D01*
X5702300Y-7848600D01*
X5702300Y-6705600D02*
G01*
X5702300Y-7848600D01*
X4813300Y-7848600D01*
X4813300Y-6705600D01*
X5702300Y-6705600D01*
X6305199Y-4965999D02*
G01*
X5785200Y-4965999D01*
X5785200Y-4965999D02*
G01*
X5785200Y-4686000D01*
X6305199Y-4686000D02*
G01*
X5785200Y-4686000D01*
X6305199Y-4965999D02*
G01*
X6305199Y-4686000D01*
X6209273Y-4965999D02*
G01*
X6209273Y-4686000D01*
X1631950Y-7891398D02*
G01*
X1631950Y-7391019D01*
X2373629Y-7391019D01*
X2373629Y-7891398D01*
X1636260Y-7816339D02*
G01*
X2372860Y-7816339D01*
X1672589Y-7391019D02*
G01*
X1631950Y-7391019D01*
X1631950Y-7545959D01*
X2322829Y-7391019D02*
G01*
X2373629Y-7391019D01*
X2373629Y-7556119D01*
X1631950Y-7794879D02*
G01*
X1631950Y-7886319D01*
X2373629Y-7794879D02*
G01*
X2373629Y-7886319D01*
X1675129Y-7906638D02*
G01*
X1659534Y-7903159D01*
X1649729Y-7893938D02*
G01*
X1624584Y-7894954D01*
X2386329Y-7893938D02*
G01*
X2360574Y-7895539D01*
X2360574Y-7895539D02*
G01*
X2348229Y-7896479D01*
X1724660Y-7939656D02*
G01*
X2313940Y-7939656D01*
X1710334Y-7961579D02*
G01*
X2299614Y-7961579D01*
X1695094Y-7923479D02*
G01*
X1695094Y-7926019D01*
X1695094Y-7926019D02*
G01*
X1695094Y-7946339D01*
X2314854Y-7923479D02*
G01*
X2314854Y-7926019D01*
X2314854Y-7926019D02*
G01*
X2314854Y-7946339D01*
X1637029Y-7904098D02*
G01*
X1611629Y-7947279D01*
X1609089Y-7949819D02*
G01*
X1629054Y-7961579D01*
X1629054Y-7961579D02*
G01*
X1656994Y-7915859D01*
X2373629Y-7904098D02*
G01*
X2399029Y-7947279D01*
X2399029Y-7949819D02*
G01*
X2380894Y-7961579D01*
X2380894Y-7961579D02*
G01*
X2352954Y-7918399D01*
X1157223Y-7318240D02*
G01*
X1157223Y-7267440D01*
X1309623Y-7267440D01*
X1309623Y-7311417D01*
X1106423Y-7673840D02*
G01*
X1360423Y-7673840D01*
X1360423Y-7318240D01*
X1106423Y-7318240D01*
X1106423Y-7673840D01*
X1157223Y-7673840D01*
X1157223Y-7724640D01*
X1309623Y-7724640D01*
X1309623Y-7673840D01*
X2706624Y-7315697D02*
G01*
X2706624Y-7264897D01*
X2859024Y-7264897D01*
X2859024Y-7306335D01*
X2655824Y-7671297D02*
G01*
X2909824Y-7671297D01*
X2909824Y-7315697D01*
X2655824Y-7315697D01*
X2655824Y-7671297D01*
X2706624Y-7671297D01*
X2706624Y-7722097D01*
X2859024Y-7722097D01*
X2859024Y-7671297D01*
X1104392Y-2400297D02*
G01*
X1104392Y-3750307D01*
X1104392Y-4950203D01*
X1104392Y-4950203D02*
G01*
X2904490Y-4950203D01*
X1104392Y-2400297D02*
G01*
X2904490Y-2400297D01*
X2904490Y-2400297D02*
G01*
X2904490Y-4950203D01*
X1104392Y-3000245D02*
G01*
X2704338Y-3000245D01*
X2904490Y-3000245D01*
D22*
X2743200Y-2921000D02*
G01*
X2743200Y-2489200D01*
X2235200Y-2489200D01*
X2235200Y-2755900D01*
X1968500Y-2755900D01*
X1968500Y-2486660D01*
X1727200Y-2486660D01*
X1727200Y-2755900D01*
X1462278Y-2755900D01*
X1462278Y-2486660D01*
X1231900Y-2486660D01*
X1231900Y-2948939D01*
X1231900Y-2946400D01*
X2489200Y-2921000D02*
G01*
X2489200Y-2486660D01*
D10*
X1219200Y-3302000D02*
G01*
X1219200Y-4826000D01*
X2743200Y-4826000D01*
X2743200Y-3302000D01*
X1219200Y-3302000D01*
X793750Y-2308097D02*
G01*
X3206750Y-2308097D01*
X584200Y-7635494D02*
G01*
X590550Y-2511297D01*
D23*
X1981200Y-6096000D02*
G01*
X2743200Y-6096000D01*
X2743200Y-6858000D01*
X1981200Y-6858000D01*
X1981200Y-6096000D01*
X1092200Y-6350000D02*
G01*
X1854200Y-6350000D01*
X1854200Y-6858000D01*
X1092200Y-6858000D01*
X1092200Y-6350000D01*
D10*
X3384550Y-2498597D02*
G01*
X3384550Y-7620000D01*
X3181350Y-7807197D02*
G01*
X768350Y-7807197D01*
X4699000Y-3746500D02*
G01*
X4699000Y-1460500D01*
X6172200Y-4000500D02*
G01*
X4927600Y-4000500D01*
X6426200Y-1460500D02*
G01*
X6426200Y-3746500D01*
X4927600Y-1206500D02*
G01*
X6172200Y-1206500D01*
G75*
G01*
X3206750Y-2308098D02*
G02*
X3384550Y-2495296I-4350J-182168D01*
G75*
G01*
X1652270Y-7904099D02*
G02*
X1696720Y-7919593I6997J-51434D01*
G75*
G01*
X1696720Y-7924165D02*
G03*
X1711960Y-7938643I15002J532D01*
G75*
G01*
X1696720Y-7944739D02*
G03*
X1711960Y-7960233I15004J-484D01*
G75*
G01*
X2301494Y-7960233D02*
G03*
X2316734Y-7944739I236J15010D01*
G75*
G01*
X2301494Y-7938643D02*
G03*
X2316734Y-7924165I238J15010D01*
G75*
G01*
X2316734Y-7919593D02*
G02*
X2355850Y-7904099I32959J-26084D01*
G75*
G01*
X1658366Y-7914259D02*
G03*
X1662430Y-7904099I-11596J10531D01*
G75*
G01*
X2355596Y-7914767D02*
G02*
X2353310Y-7904099I13209J8410D01*
G75*
G01*
X590550Y-2511298D02*
G02*
X793750Y-2308088I202064J1146D01*
G75*
G01*
X3384547Y-7623043D02*
G02*
X3181350Y-7807198I-195764J11825D01*
G75*
G01*
X768350Y-7807198D02*
G02*
X584203Y-7635608I-3735J180599D01*
G75*
G01
X1233424Y-7508748D02*
G03X1233424Y-7508748I-12700J0D01*
G75*
G01
X1258824Y-7483348D02*
G03X1258824Y-7483348I-12700J0D01*
G75*
G01
X1258824Y-7496048D02*
G03X1258824Y-7496048I-25400J0D01*
G75*
G01
X1284224Y-7496048D02*
G03X1284224Y-7496048I-50800J0D01*
G75*
G01
X1309624Y-7496048D02*
G03X1309624Y-7496048I-76200J0D01*
G75*
G01
X2782824Y-7506208D02*
G03X2782824Y-7506208I-12700J0D01*
G75*
G01
X2808224Y-7480808D02*
G03X2808224Y-7480808I-12700J0D01*
G75*
G01
X2808224Y-7493508D02*
G03X2808224Y-7493508I-25400J0D01*
G75*
G01
X2833624Y-7493508D02*
G03X2833624Y-7493508I-50800J0D01*
G75*
G01
X2859024Y-7493508D02*
G03X2859024Y-7493508I-76200J0D01*
G75*
G01
X2136597Y-6223000D02*
G03X2136597Y-6223000I-28397J0D01*
M02*
