G04 Layer: BottomSilkLayer*
G04 EasyEDA v6.4.19.5, 2021-06-22T13:22:06+02:00*
G04 8d010e87a7914041b3697a5a1e0c44dd,1767a0bbb58a490299b52c1c45d7117c,10*
G04 Gerber Generator version 0.2*
G04 Scale: 100 percent, Rotated: No, Reflected: No *
G04 Dimensions in millimeters *
G04 leading zeros omitted , absolute positions ,4 integer and 5 decimal *
%FSLAX45Y45*%
%MOMM*%

%ADD10C,0.2540*%
%ADD24C,0.1524*%
%ADD27C,0.1030*%

%LPD*%
D27*
X3009900Y-2828289D02*
G01*
X3017265Y-2832100D01*
X3024377Y-2839212D01*
X3028188Y-2846578D01*
X3028188Y-2861055D01*
X3024377Y-2868421D01*
X3017265Y-2875534D01*
X3009900Y-2879344D01*
X2998977Y-2882900D01*
X2980943Y-2882900D01*
X2970022Y-2879344D01*
X2962656Y-2875534D01*
X2955290Y-2868421D01*
X2951734Y-2861055D01*
X2951734Y-2846578D01*
X2955290Y-2839212D01*
X2962656Y-2832100D01*
X2970022Y-2828289D01*
X2980943Y-2828289D01*
X2980943Y-2846578D02*
G01*
X2980943Y-2828289D01*
X3028188Y-2804413D02*
G01*
X2951734Y-2804413D01*
X3028188Y-2804413D02*
G01*
X2951734Y-2753360D01*
X3028188Y-2753360D02*
G01*
X2951734Y-2753360D01*
X3028188Y-2729484D02*
G01*
X2951734Y-2729484D01*
X3028188Y-2729484D02*
G01*
X3028188Y-2704084D01*
X3024377Y-2693162D01*
X3017265Y-2685795D01*
X3009900Y-2682239D01*
X2998977Y-2678429D01*
X2980943Y-2678429D01*
X2970022Y-2682239D01*
X2962656Y-2685795D01*
X2955290Y-2693162D01*
X2951734Y-2704084D01*
X2951734Y-2729484D01*
X3009900Y-3336289D02*
G01*
X3017265Y-3340100D01*
X3024377Y-3347212D01*
X3028188Y-3354578D01*
X3028188Y-3369055D01*
X3024377Y-3376421D01*
X3017265Y-3383534D01*
X3009900Y-3387344D01*
X2998977Y-3390900D01*
X2980943Y-3390900D01*
X2970022Y-3387344D01*
X2962656Y-3383534D01*
X2955290Y-3376421D01*
X2951734Y-3369055D01*
X2951734Y-3354578D01*
X2955290Y-3347212D01*
X2962656Y-3340100D01*
X2970022Y-3336289D01*
X2980943Y-3336289D01*
X2980943Y-3354578D02*
G01*
X2980943Y-3336289D01*
X3009900Y-3308604D02*
G01*
X3013709Y-3308604D01*
X3020822Y-3305047D01*
X3024377Y-3301492D01*
X3028188Y-3294126D01*
X3028188Y-3279647D01*
X3024377Y-3272281D01*
X3020822Y-3268726D01*
X3013709Y-3265170D01*
X3006343Y-3265170D01*
X2998977Y-3268726D01*
X2988056Y-3276092D01*
X2951734Y-3312413D01*
X2951734Y-3261360D01*
X3009900Y-3233928D02*
G01*
X3013709Y-3233928D01*
X3020822Y-3230118D01*
X3024377Y-3226562D01*
X3028188Y-3219195D01*
X3028188Y-3204718D01*
X3024377Y-3197352D01*
X3020822Y-3193795D01*
X3013709Y-3190239D01*
X3006343Y-3190239D01*
X2998977Y-3193795D01*
X2988056Y-3201162D01*
X2951734Y-3237484D01*
X2951734Y-3186429D01*
X3009900Y-4098289D02*
G01*
X3017265Y-4102100D01*
X3024377Y-4109212D01*
X3028188Y-4116578D01*
X3028188Y-4131055D01*
X3024377Y-4138421D01*
X3017265Y-4145534D01*
X3009900Y-4149344D01*
X2998977Y-4152900D01*
X2980943Y-4152900D01*
X2970022Y-4149344D01*
X2962656Y-4145534D01*
X2955290Y-4138421D01*
X2951734Y-4131055D01*
X2951734Y-4116578D01*
X2955290Y-4109212D01*
X2962656Y-4102100D01*
X2970022Y-4098289D01*
X2980943Y-4098289D01*
X2980943Y-4116578D02*
G01*
X2980943Y-4098289D01*
X3009900Y-4070604D02*
G01*
X3013709Y-4070604D01*
X3020822Y-4067047D01*
X3024377Y-4063492D01*
X3028188Y-4056126D01*
X3028188Y-4041647D01*
X3024377Y-4034281D01*
X3020822Y-4030726D01*
X3013709Y-4027170D01*
X3006343Y-4027170D01*
X2998977Y-4030726D01*
X2988056Y-4038092D01*
X2951734Y-4074413D01*
X2951734Y-4023360D01*
X3013709Y-3999484D02*
G01*
X3017265Y-3992118D01*
X3028188Y-3981195D01*
X2951734Y-3981195D01*
X2997200Y-5076189D02*
G01*
X3004565Y-5080000D01*
X3011677Y-5087112D01*
X3015488Y-5094478D01*
X3015488Y-5108955D01*
X3011677Y-5116321D01*
X3004565Y-5123434D01*
X2997200Y-5127244D01*
X2986277Y-5130800D01*
X2968243Y-5130800D01*
X2957322Y-5127244D01*
X2949956Y-5123434D01*
X2942590Y-5116321D01*
X2939034Y-5108955D01*
X2939034Y-5094478D01*
X2942590Y-5087112D01*
X2949956Y-5080000D01*
X2957322Y-5076189D01*
X2968243Y-5076189D01*
X2968243Y-5094478D02*
G01*
X2968243Y-5076189D01*
X3015488Y-5008626D02*
G01*
X3015488Y-5044947D01*
X2982722Y-5048504D01*
X2986277Y-5044947D01*
X2990088Y-5034026D01*
X2990088Y-5023104D01*
X2986277Y-5012181D01*
X2979165Y-5005070D01*
X2968243Y-5001260D01*
X2960877Y-5001260D01*
X2949956Y-5005070D01*
X2942590Y-5012181D01*
X2939034Y-5023104D01*
X2939034Y-5034026D01*
X2942590Y-5044947D01*
X2946400Y-5048504D01*
X2953511Y-5052313D01*
X985009Y-7358887D02*
G01*
X985009Y-7322565D01*
X1017775Y-7318755D01*
X1014219Y-7322565D01*
X1010409Y-7333487D01*
X1010409Y-7344410D01*
X1014219Y-7355078D01*
X1021331Y-7362444D01*
X1032253Y-7366000D01*
X1039619Y-7366000D01*
X1050541Y-7362444D01*
X1057907Y-7355078D01*
X1061463Y-7344410D01*
X1061463Y-7333487D01*
X1057907Y-7322565D01*
X1054097Y-7318755D01*
X1046985Y-7315200D01*
X985009Y-7390129D02*
G01*
X1061463Y-7419086D01*
X985009Y-7448295D02*
G01*
X1061463Y-7419086D01*
X1016000Y-6061710D02*
G01*
X1008634Y-6057900D01*
X1001521Y-6050787D01*
X997712Y-6043421D01*
X997712Y-6028944D01*
X1001521Y-6021578D01*
X1008634Y-6014465D01*
X1016000Y-6010655D01*
X1026921Y-6007100D01*
X1044955Y-6007100D01*
X1055878Y-6010655D01*
X1063244Y-6014465D01*
X1070610Y-6021578D01*
X1074165Y-6028944D01*
X1074165Y-6043421D01*
X1070610Y-6050787D01*
X1063244Y-6057900D01*
X1055878Y-6061710D01*
X1044955Y-6061710D01*
X1044955Y-6043421D02*
G01*
X1044955Y-6061710D01*
X997712Y-6085586D02*
G01*
X1074165Y-6085586D01*
X997712Y-6085586D02*
G01*
X1074165Y-6136639D01*
X997712Y-6136639D02*
G01*
X1074165Y-6136639D01*
X997712Y-6160515D02*
G01*
X1074165Y-6160515D01*
X997712Y-6160515D02*
G01*
X997712Y-6185915D01*
X1001521Y-6196837D01*
X1008634Y-6204204D01*
X1016000Y-6207760D01*
X1026921Y-6211570D01*
X1044955Y-6211570D01*
X1055878Y-6207760D01*
X1063244Y-6204204D01*
X1070610Y-6196837D01*
X1074165Y-6185915D01*
X1074165Y-6160515D01*
X1010412Y-2997200D02*
G01*
X1086865Y-2997200D01*
X1010412Y-2997200D02*
G01*
X1010412Y-3044444D01*
X1046734Y-2997200D02*
G01*
X1046734Y-3026410D01*
X1086865Y-2997200D02*
G01*
X1086865Y-3044444D01*
X1010412Y-3068573D02*
G01*
X1086865Y-3068573D01*
X1010412Y-3068573D02*
G01*
X1086865Y-3119373D01*
X1010412Y-3119373D02*
G01*
X1086865Y-3119373D01*
X1010412Y-2712468D02*
G01*
X1010412Y-2752346D01*
X1039621Y-2730502D01*
X1039621Y-2741424D01*
X1043178Y-2748790D01*
X1046734Y-2752346D01*
X1057655Y-2755902D01*
X1065021Y-2755902D01*
X1075944Y-2752346D01*
X1083310Y-2744980D01*
X1086865Y-2734312D01*
X1086865Y-2723390D01*
X1083310Y-2712468D01*
X1079500Y-2708658D01*
X1072387Y-2705102D01*
X1010412Y-2780032D02*
G01*
X1086865Y-2808988D01*
X1010412Y-2838198D02*
G01*
X1086865Y-2808988D01*
X1010412Y-2869440D02*
G01*
X1010412Y-2909572D01*
X1039621Y-2887728D01*
X1039621Y-2898650D01*
X1043178Y-2905762D01*
X1046734Y-2909572D01*
X1057655Y-2913128D01*
X1065021Y-2913128D01*
X1075944Y-2909572D01*
X1083310Y-2902206D01*
X1086865Y-2891284D01*
X1086865Y-2880362D01*
X1083310Y-2869440D01*
X1079500Y-2865884D01*
X1072387Y-2862074D01*
D24*
X2095500Y-4913884D02*
G01*
X2095500Y-5022850D01*
X2095500Y-4913884D02*
G01*
X2048763Y-4913884D01*
X2033270Y-4918963D01*
X2027936Y-4924297D01*
X2022856Y-4934712D01*
X2022856Y-4945126D01*
X2027936Y-4955539D01*
X2033270Y-4960620D01*
X2048763Y-4965700D01*
X2095500Y-4965700D01*
X2059177Y-4965700D02*
G01*
X2022856Y-5022850D01*
X1988565Y-4913884D02*
G01*
X1988565Y-5022850D01*
X1988565Y-4913884D02*
G01*
X1921002Y-4913884D01*
X1988565Y-4965700D02*
G01*
X1946909Y-4965700D01*
X1988565Y-5022850D02*
G01*
X1921002Y-5022850D01*
X1813813Y-4929378D02*
G01*
X1824228Y-4918963D01*
X1839976Y-4913884D01*
X1860550Y-4913884D01*
X1876297Y-4918963D01*
X1886712Y-4929378D01*
X1886712Y-4939792D01*
X1881378Y-4950205D01*
X1876297Y-4955539D01*
X1865884Y-4960620D01*
X1834642Y-4971034D01*
X1824228Y-4976113D01*
X1819147Y-4981447D01*
X1813813Y-4991862D01*
X1813813Y-5007355D01*
X1824228Y-5017770D01*
X1839976Y-5022850D01*
X1860550Y-5022850D01*
X1876297Y-5017770D01*
X1886712Y-5007355D01*
X1779523Y-4913884D02*
G01*
X1779523Y-5022850D01*
X1779523Y-4913884D02*
G01*
X1711960Y-4913884D01*
X1779523Y-4965700D02*
G01*
X1738121Y-4965700D01*
X1779523Y-5022850D02*
G01*
X1711960Y-5022850D01*
X1641347Y-4913884D02*
G01*
X1641347Y-5022850D01*
X1677670Y-4913884D02*
G01*
X1605026Y-4913884D01*
D10*
X1524000Y-5272755D02*
G01*
X1524000Y-5496844D01*
X2099213Y-5080000D02*
G01*
X1609186Y-5080000D01*
X2184400Y-5272755D02*
G01*
X2184400Y-5496844D01*
X2099213Y-5689600D02*
G01*
X1609186Y-5689600D01*
G75*
G01
X2095500Y-5207000D02*
G03X2095500Y-5207000I-50800J0D01*
G75*
G01
X2108200Y-5562600D02*
G03X2108200Y-5562600I-50800J0D01*
G75*
G01
X1714500Y-5207000D02*
G03X1714500Y-5207000I-50800J0D01*
G75*
G01
X1727200Y-5562600D02*
G03X1727200Y-5562600I-50800J0D01*
G75*
G01
X1968500Y-5384800D02*
G03X1968500Y-5384800I-114300J0D01*
G75*
G01
X2004314Y-5384800D02*
G03X2004314Y-5384800I-150114J0D01*
M02*
