M48
METRIC,LZ,000.000
;FILE_FORMAT=3:3
;TYPE=PLATED
;Layer: Drill PTH
;EasyEDA v6.4.19.5, 2021-06-22T13:22:06+02:00
;8d010e87a7914041b3697a5a1e0c44dd,1767a0bbb58a490299b52c1c45d7117c,10
;Gerber Generator version 0.2
;Holesize 1 = 0.600 mm
T01C0.600
;Holesize 2 = 0.635 mm
T02C0.635
;Holesize 3 = 0.800 mm
T03C0.800
;Holesize 4 = 0.889 mm
T04C0.889
;Holesize 5 = 0.900 mm
T05C0.900
;Holesize 6 = 0.915 mm
T06C0.915
;Holesize 7 = 1.000 mm
T07C1.000
;Holesize 8 = 1.016 mm
T08C1.016
;Holesize 9 = 1.101 mm
T09C1.101
%
G05
G90
T01
X055110Y-008916G85X054110Y-008916
X056360Y-005316G85X056360Y-006316
X052860Y-005316G85X052860Y-006316
X041267Y-008916G85X040267Y-008916
X042517Y-005316G85X042517Y-006316
X039017Y-005316G85X039017Y-006316
X027170Y-008916G85X026170Y-008916
X028420Y-005316G85X028420Y-006316
X024920Y-005316G85X024920Y-006316
X013327Y-008916G85X012327Y-008916
X014577Y-005316G85X014577Y-006316
X011077Y-005316G85X011077Y-006316
T02
X057023Y-069152G85X057023Y-071057
X053531Y-073406G85X051626Y-073406
X053467Y-067107G85X051562Y-067107
T03
X007112Y-027940
X007112Y-030480
X007112Y-033020
X007112Y-035560
X007112Y-038100
X007112Y-040640
X007112Y-043180
X007112Y-045720
X007112Y-048260
X007112Y-050800
X007112Y-053340
X007112Y-055880
X007112Y-058420
X007112Y-060960
X007112Y-063500
X007112Y-066040
X007112Y-068580
X007112Y-071120
X007112Y-073660
X032512Y-073660
X032512Y-071120
X032512Y-068580
X032512Y-066040
X032512Y-063500
X032512Y-060960
X032512Y-058420
X032512Y-055880
X032512Y-053340
X032512Y-050800
X032512Y-048260
X032512Y-045720
X032512Y-043180
X032512Y-040640
X032512Y-038100
X032512Y-035560
X032512Y-033020
X032512Y-030480
X032512Y-027940
T04
X064516Y-058674
X061976Y-058674
X059436Y-058674
T05
X043180Y-019050
X043180Y-011430
X023876Y-019050
X023876Y-011430
X028321Y-011430
X028321Y-019050
X038989Y-019050
X038989Y-011430
X039497Y-050546
X047117Y-050546
T06
X016510Y-013970
X016510Y-016510
X016510Y-019050
X036195Y-044704
X038735Y-044704
X041275Y-044704
X054737Y-054102
X054737Y-063602
X038738Y-054102
X038738Y-063602
T07
X065052Y-048260
X055852Y-048260
T08
X049022Y-024765
X049022Y-022225
X049022Y-019685
X049022Y-017145
X049022Y-014605
X049022Y-027305
X049022Y-029845
X049022Y-032385
X049022Y-037465
X049022Y-034925
T09
X047117Y-044450
X049657Y-044450
X052197Y-044450
X021793Y-051598
X021793Y-056098
X015291Y-051598
X015291Y-056098
M30
