G04 Layer: TopSolderMaskLayer*
G04 EasyEDA v6.4.19.5, 2021-06-22T13:22:06+02:00*
G04 8d010e87a7914041b3697a5a1e0c44dd,1767a0bbb58a490299b52c1c45d7117c,10*
G04 Gerber Generator version 0.2*
G04 Scale: 100 percent, Rotated: No, Reflected: No *
G04 Dimensions in millimeters *
G04 leading zeros omitted , absolute positions ,4 integer and 5 decimal *
%FSLAX45Y45*%
%MOMM*%

%ADD13C,1.8796*%
%ADD28C,1.1016*%
%ADD29C,2.1082*%
%ADD30C,1.7272*%
%ADD31C,1.9812*%
%ADD33C,1.8016*%
%ADD34C,1.6764*%
%ADD36C,1.9016*%
%ADD37C,2.0032*%

%LPD*%
D28*
X5411000Y-891590D02*
G01*
X5510999Y-891590D01*
X5636006Y-631609D02*
G01*
X5636006Y-531609D01*
X5285993Y-631609D02*
G01*
X5285993Y-531609D01*
X4026700Y-891590D02*
G01*
X4126699Y-891590D01*
X4251706Y-631609D02*
G01*
X4251706Y-531609D01*
X3901693Y-631609D02*
G01*
X3901693Y-531609D01*
X2617000Y-891590D02*
G01*
X2716999Y-891590D01*
X2842006Y-631609D02*
G01*
X2842006Y-531609D01*
X2491993Y-631609D02*
G01*
X2491993Y-531609D01*
X1232700Y-891590D02*
G01*
X1332699Y-891590D01*
X1457705Y-631609D02*
G01*
X1457705Y-531609D01*
X1107694Y-631609D02*
G01*
X1107694Y-531609D01*
D29*
X5702300Y-7105650D02*
G01*
X5702300Y-6915150D01*
X5162550Y-7340600D02*
G01*
X5353050Y-7340600D01*
X5156200Y-6710679D02*
G01*
X5346700Y-6710679D01*
D30*
G01*
X1651000Y-1397000D03*
G01*
X1651000Y-1651000D03*
G01*
X1651000Y-1905000D03*
D31*
G01*
X4318000Y-1905000D03*
G01*
X4318000Y-1143000D03*
D30*
G01*
X3619500Y-4470400D03*
G01*
X3873500Y-4470400D03*
G01*
X4127500Y-4470400D03*
G36*
X4621529Y-4535170D02*
G01*
X4621529Y-4354829D01*
X4801870Y-4354829D01*
X4801870Y-4535170D01*
G37*
D33*
G01*
X4965700Y-4445000D03*
G01*
X5219700Y-4445000D03*
D31*
G01*
X2387600Y-1905000D03*
G01*
X2387600Y-1143000D03*
G01*
X2832100Y-1143000D03*
G01*
X2832100Y-1905000D03*
G01*
X3898900Y-1905000D03*
G01*
X3898900Y-1143000D03*
G01*
X3949700Y-5054600D03*
G01*
X4711700Y-5054600D03*
D34*
G01*
X6451600Y-5867400D03*
G01*
X6197600Y-5867400D03*
G36*
X5859779Y-5951220D02*
G01*
X5859779Y-5783579D01*
X6027420Y-5783579D01*
X6027420Y-5951220D01*
G37*
D30*
G01*
X5473700Y-5410200D03*
G01*
X5473700Y-6360160D03*
G01*
X3873754Y-5410200D03*
G01*
X3873754Y-6360160D03*
D36*
G01*
X6505193Y-4826000D03*
G01*
X5585206Y-4826000D03*
D37*
G01*
X711200Y-2794000D03*
G01*
X711200Y-3048000D03*
G01*
X711200Y-3302000D03*
G01*
X711200Y-3556000D03*
G01*
X711200Y-3810000D03*
G01*
X711200Y-4064000D03*
G01*
X711200Y-4318000D03*
G01*
X711200Y-4572000D03*
G01*
X711200Y-4826000D03*
G01*
X711200Y-5080000D03*
G01*
X711200Y-5334000D03*
G01*
X711200Y-5588000D03*
G01*
X711200Y-5842000D03*
G01*
X711200Y-6096000D03*
G01*
X711200Y-6350000D03*
G01*
X711200Y-6604000D03*
G01*
X711200Y-6858000D03*
G01*
X711200Y-7112000D03*
G01*
X711200Y-7366000D03*
G01*
X3251200Y-7366000D03*
G01*
X3251200Y-7112000D03*
G01*
X3251200Y-6858000D03*
G01*
X3251200Y-6604000D03*
G01*
X3251200Y-6350000D03*
G01*
X3251200Y-6096000D03*
G01*
X3251200Y-5842000D03*
G01*
X3251200Y-5588000D03*
G01*
X3251200Y-5334000D03*
G01*
X3251200Y-5080000D03*
G01*
X3251200Y-4826000D03*
G01*
X3251200Y-4572000D03*
G01*
X3251200Y-4318000D03*
G01*
X3251200Y-4064000D03*
G01*
X3251200Y-3810000D03*
G01*
X3251200Y-3556000D03*
G01*
X3251200Y-3302000D03*
G01*
X3251200Y-3048000D03*
G01*
X3251200Y-2794000D03*
D36*
G01*
X2179320Y-5159755D03*
G01*
X2179320Y-5609844D03*
G01*
X1529079Y-5159755D03*
G01*
X1529079Y-5609844D03*
D13*
G01*
X4902200Y-2476500D03*
G01*
X4902200Y-2222500D03*
G01*
X4902200Y-1968500D03*
G01*
X4902200Y-1714500D03*
G01*
X4902200Y-1460500D03*
G01*
X4902200Y-2730500D03*
G01*
X4902200Y-2984500D03*
G01*
X4902200Y-3238500D03*
G01*
X4902200Y-3746500D03*
G01*
X4902200Y-3492500D03*
M02*
